SplineFontDB: 3.0
FontName: Spiral-Regular
FullName: Spiral Regular
FamilyName: Spiral
Weight: Regular
Copyright: Copyright (c) 2011 by Brenda Gallo (gbrenda1987@gmail.com), with Reserved Font Name Spiral.
Version: 001.001
ItalicAngle: 0
UnderlinePosition: -50
UnderlineWidth: 50
Ascent: 800
Descent: 200
sfntRevision: 0x00010042
LayerCount: 2
Layer: 0 1 "Back"  1
Layer: 1 1 "Fore"  0
NeedsXUIDChange: 1
XUID: [1021 288 713564382 3874563]
FSType: 0
OS2Version: 2
OS2_WeightWidthSlopeOnly: 0
OS2_UseTypoMetrics: 1
CreationTime: 1320659897
ModificationTime: 1320685142
PfmFamily: 17
TTFWeight: 400
TTFWidth: 5
LineGap: 0
VLineGap: 0
Panose: 2 0 5 3 8 0 0 2 0 3
OS2TypoAscent: 147
OS2TypoAOffset: 1
OS2TypoDescent: -88
OS2TypoDOffset: 1
OS2TypoLinegap: 0
OS2WinAscent: 0
OS2WinAOffset: 1
OS2WinDescent: 0
OS2WinDOffset: 1
HheadAscent: 0
HheadAOffset: 1
HheadDescent: 0
HheadDOffset: 1
OS2SubXSize: 700
OS2SubYSize: 650
OS2SubXOff: 0
OS2SubYOff: 140
OS2SupXSize: 700
OS2SupYSize: 650
OS2SupXOff: 0
OS2SupYOff: 477
OS2StrikeYSize: 50
OS2StrikeYPos: 250
OS2Vendor: 'pyrs'
OS2CodePages: 00000001.00000000
OS2UnicodeRanges: 8000002f.0000000a.00000000.00000000
Lookup: 258 0 0 "'kern' Horizontal Kerning in Latin lookup 0"  {"'kern' Horizontal Kerning in Latin lookup 0 per glyph data 0"  "'kern' Horizontal Kerning in Latin lookup 0 kerning class 1"  } ['kern' ('latn' <'dflt' > ) ]
MarkAttachClasses: 1
DEI: 91125
KernClass2: 76+ 69 "'kern' Horizontal Kerning in Latin lookup 0 kerning class 1" 
 2 at
 10 exclamdown
 40 period comma quotesinglbase quotedblbase
 15 semicolon colon
 3 bar
 28 hyphen endash emdash uni00AD
 9 backslash
 5 slash
 20 quotedbl quotesingle
 24 quoteright quotedblright
 22 quoteleft quotedblleft
 12 questiondown
 29 guilsinglright guillemotright
 27 guilsinglleft guillemotleft
 8 asterisk
 9 ampersand
 9 trademark
 10 registered
 1 V
 50 A Agrave Aacute Acircumflex Atilde Adieresis Aring
 41 I M H Igrave Iacute Icircumflex Idieresis
 1 J
 1 X
 1 K
 1 L
 1 B
 1 R

StartChar: e.ss01
Encoding: 65537 -1 1
Width: 454
Flags: HMW
HStem: 1 176<223.5 287 223.5 315> 152 25<223.5 287 223.5 295.5> 338 21<207.5 242> 453 20<234 302>
VStem: 34 100<172.5 219 145 300> 34 120<237.5 285 237.5 300> 391 28<267 348>
LayerCount: 2
Fore
SplineSet
369 196.5 m 128,-1,1
 319 152 319 152 260.5 152 c 128,-1,2
 202 152 202 152 171 178 c 128,-1,3
 140 204 140 204 135 243 c 1,4,5
 134 233 134 233 134 214 c 0,6,7
 134 20 134 20 258 20 c 0,8,9
 312 20 312 20 345 49 c 128,-1,10
 378 78 378 78 378 100 c 1,11,-1
 420 100 l 1,12,13
 411.285714286 73.8571428571 411.285714286 73.8571428571 388.142857143 49.4285714286 c 0,14,15
 342.263157895 1 342.263157895 1 247 1 c 0,16,17
 188 1 188 1 144.5 20.5 c 128,-1,18
 101 40 101 40 78 74 c 0,19,20
 34 139.043478261 34 139.043478261 34 225 c 0,21,22
 34 335 34 335 96 404 c 128,-1,23
 158 473 158 473 241.5 473 c 128,-1,24
 325 473 325 473 372 423 c 128,-1,25
 419 373 419 373 419 307 c 128,-1,0
 419 241 419 241 369 196.5 c 128,-1,1
172.5 339.5 m 128,-1,27
 197 359 197 359 224 359 c 128,-1,28
 251 359 251 359 251 346 c 1,29,30
 249 338 249 338 239 338 c 0,31,32
 200 335 200 335 177 315.5 c 128,-1,33
 154 296 154 296 154 260.5 c 128,-1,34
 154 225 154 225 181.5 201 c 128,-1,35
 209 177 209 177 258.5 177 c 128,-1,36
 308 177 308 177 349.5 213 c 128,-1,37
 391 249 391 249 391 308.5 c 128,-1,38
 391 368 391 368 355 410.5 c 128,-1,39
 319 453 319 453 268 453 c 128,-1,40
 217 453 217 453 183.5 410 c 128,-1,41
 150 367 150 367 139 289 c 1,42,26
 148 320 148 320 172.5 339.5 c 128,-1,27
EndSplineSet
EndChar

StartChar: b
Encoding: 98 98 2
Width: 538
Flags: HMW
HStem: -10 20<270 343 269.5 365> 0 21G<64 164 64 64> 448 24<294 315.5> 730 20G<64 164 164 164>
VStem: 64 100<0 79 0 109 109 383 406 750> 64 119<71.5 126 71.5 750> 403 100<202 304.5>
LayerCount: 2
Fore
SplineSet
164 750 m 1,0,-1
 164 406 l 1,1,2
 253 472 253 472 320 472 c 0,3,4
 379.117647059 472 379.117647059 472 435 424.5 c 0,5,6
 465 399 465 399 484 348.5 c 128,-1,7
 503 298 503 298 503 230 c 0,8,9
 503 116 503 116 449.5 53 c 128,-1,10
 396 -10 396 -10 305 -10 c 0,11,12
 249 -10 249 -10 209.5 12.5 c 128,-1,13
 170 35 170 35 164 79 c 1,14,-1
 164 0 l 1,15,-1
 64 0 l 1,16,-1
 64 750 l 1,17,-1
 164 750 l 1,0,-1
403 243 m 0,18,19
 403 331 403 331 367.5 389.5 c 128,-1,20
 332 448 332 448 287 448 c 128,-1,21
 242 448 242 448 164 383 c 1,22,-1
 164 109 l 1,23,24
 167 134 167 134 181 153 c 0,25,26
 205.315789474 186 205.315789474 186 227 186 c 0,27,28
 235 186 235 186 235 176 c 0,29,30
 235 171.2 235 171.2 217 158.6 c 0,31,32
 183 134.8 183 134.8 183 97.4 c 128,-1,33
 183 60 183 60 218.5 35 c 128,-1,34
 254 10 254 10 293 10 c 0,35,36
 403 10 403 10 403 243 c 0,18,19
EndSplineSet
EndChar

StartChar: p
Encoding: 112 112 3
Width: 538
Flags: HMW
HStem: -250 21G<64 164 64 64> -10 20<270 343 269.5 365> 443 20G<64 164 164 164> 448 24<294 315.5>
VStem: 64 100<-250 79 -250 109 109 383 406 463> 64 119<71.5 126 71.5 463> 403 100<202 304.5>
LayerCount: 2
Fore
SplineSet
164 463 m 1,0,-1
 164 406 l 1,1,2
 253 472 253 472 320 472 c 0,3,4
 379.117647059 472 379.117647059 472 435 424.5 c 0,5,6
 465 399 465 399 484 348.5 c 128,-1,7
 503 298 503 298 503 230 c 0,8,9
 503 116 503 116 449.5 53 c 128,-1,10
 396 -10 396 -10 305 -10 c 0,11,12
 249 -10 249 -10 209.5 12.5 c 128,-1,13
 170 35 170 35 164 79 c 1,14,-1
 164 -250 l 1,15,-1
 64 -250 l 1,16,-1
 64 463 l 1,17,-1
 164 463 l 1,0,-1
403 243 m 0,18,19
 403 331 403 331 367.5 389.5 c 128,-1,20
 332 448 332 448 287 448 c 128,-1,21
 242 448 242 448 164 383 c 1,22,-1
 164 109 l 1,23,24
 167 134 167 134 181 153 c 0,25,26
 205.315789474 186 205.315789474 186 227 186 c 0,27,28
 235 186 235 186 235 176 c 0,29,30
 235 171.2 235 171.2 217 158.6 c 0,31,32
 183 134.8 183 134.8 183 97.4 c 128,-1,33
 183 60 183 60 218.5 35 c 128,-1,34
 254 10 254 10 293 10 c 0,35,36
 403 10 403 10 403 243 c 0,18,19
EndSplineSet
EndChar

StartChar: a.ss01
Encoding: 65538 -1 4
Width: 497
Flags: HMW
HStem: -10 20<180 240 180 240.5> 0 21G<339 439 339 339> 273 20<190 235 184 236> 455 21<188 257.5>
VStem: 24 100<110.5 176 110.5 202> 320 119<64.5 90> 339 100<0 77 77 77 108 244 244 244>
LayerCount: 2
Fore
SplineSet
296 13 m 128,-1,1
 259 -10 259 -10 197 -10 c 128,-1,2
 135 -10 135 -10 79.5 30.5 c 128,-1,3
 24 71 24 71 24 143 c 0,4,5
 24 185 24 185 44.5 216 c 128,-1,6
 65 247 65 247 96.5 262.5 c 0,7,8
 158.483870968 293 158.483870968 293 214.241935484 293 c 128,-1,9
 270 293 270 293 339 269 c 1,10,11
 336 365 336 365 306.5 410 c 128,-1,12
 277 455 277 455 218 455 c 0,13,14
 174 455 174 455 138 433.5 c 128,-1,15
 102 412 102 412 85 377 c 1,16,-1
 56 377 l 1,17,18
 107 476 107 476 239 476 c 0,19,20
 339 476 339 476 389 422 c 128,-1,21
 439 368 439 368 439 250 c 2,22,-1
 439 0 l 1,23,-1
 339 0 l 1,24,-1
 339 77 l 1,25,0
 333 36 333 36 296 13 c 128,-1,1
295 177 m 0,26,27
 331 152 331 152 339 108 c 1,28,-1
 339 244 l 1,29,30
 267 273 267 273 221.5 273 c 128,-1,31
 176 273 176 273 150 235 c 128,-1,32
 124 197 124 197 124 142 c 128,-1,33
 124 87 124 87 145.5 48.5 c 128,-1,34
 167 10 167 10 210.5 10 c 128,-1,35
 254 10 254 10 287 32.5 c 128,-1,36
 320 55 320 55 320 86 c 0,37,38
 320 130 320 130 294 152 c 1,39,-1
 283.5 159 l 2,40,41
 269 168.666666667 269 168.666666667 269 176.833333333 c 128,-1,42
 269 185 269 185 276 185 c 128,-1,43
 283 185 283 185 295 177 c 0,26,27
EndSplineSet
EndChar

StartChar: h
Encoding: 104 104 5
Width: 534
Flags: HMW
HStem: 0 245<64 240.5 64 240.5 215 375 215 475> 225 20<215 240.5 215 242> 442 31<306 340> 730 20G<64 163 163 163>
VStem: 64 99<0 302 0 317 317 750> 163 20<0 345.5 317 317 317 345.5 302.5 750> 375 100<0 208 208 234 0 279>
LayerCount: 2
Fore
SplineSet
195.5 267.5 m 128,-1,1
 208 245 208 245 230.625 245 c 128,-1,2
 253.25 245 253.25 245 265.625 250.5 c 128,-1,3
 278 256 278 256 280 256 c 0,4,5
 286 256 286 256 286 248 c 128,-1,6
 286 240 286 240 274.5 232.5 c 128,-1,7
 263 225 263 225 233.5 225 c 128,-1,8
 204 225 204 225 185 249 c 128,-1,9
 166 273 166 273 163 302 c 1,10,-1
 163 0 l 1,11,-1
 64 0 l 1,12,-1
 64 750 l 1,13,-1
 163 750 l 1,14,-1
 163 317 l 1,15,16
 167 380 167 380 225 426.5 c 128,-1,17
 283 473 283 473 346 473 c 0,18,19
 412 473 412 473 443.5 427.5 c 128,-1,20
 475 382 475 382 475 234 c 2,21,-1
 475 0 l 1,22,-1
 375 0 l 1,23,-1
 375 208 l 2,24,25
 375 326 375 326 362.5 384 c 128,-1,26
 350 442 350 442 315 442 c 0,27,28
 271 442 271 442 227 401 c 128,-1,29
 183 360 183 360 183 314 c 0,30,0
 183 290 183 290 195.5 267.5 c 128,-1,1
EndSplineSet
EndChar

StartChar: i
Encoding: 105 105 6
Width: 228
Flags: HMW
HStem: -1 21G<64 164 64 64> 541 106<99.5 128.5>
VStem: 64 100<-1 462 -1 462>
LayerCount: 2
Fore
SplineSet
164 462 m 1,0,-1
 164 -1 l 1,1,-1
 64 -1 l 1,2,-1
 64 462 l 1,3,-1
 164 462 l 1,0,-1
61 594 m 128,-1,5
 61 616 61 616 76.5 631.5 c 128,-1,6
 92 647 92 647 114 647 c 128,-1,7
 136 647 136 647 151.5 631.5 c 128,-1,8
 167 616 167 616 167 594 c 128,-1,9
 167 572 167 572 151.5 556.5 c 128,-1,10
 136 541 136 541 114 541 c 128,-1,11
 92 541 92 541 76.5 556.5 c 128,-1,4
 61 572 61 572 61 594 c 128,-1,5
EndSplineSet
EndChar

StartChar: n
Encoding: 110 110 7
Width: 534
Flags: HMW
HStem: 0 245<64 240.5 64 240.5 215 375 215 475> 225 20<215 240.5 215 242> 442 31<306 340> 443 20G<64 163 163 163>
VStem: 64 99<0 302 0 317 317 463> 163 20<0 345.5 317 317 317 345.5 302.5 463> 375 100<0 208 208 234 0 279>
LayerCount: 2
Fore
SplineSet
195.5 267.5 m 128,-1,1
 208 245 208 245 230.625 245 c 128,-1,2
 253.25 245 253.25 245 265.625 250.5 c 128,-1,3
 278 256 278 256 280 256 c 0,4,5
 286 256 286 256 286 248 c 128,-1,6
 286 240 286 240 274.5 232.5 c 128,-1,7
 263 225 263 225 233.5 225 c 128,-1,8
 204 225 204 225 185 249 c 128,-1,9
 166 273 166 273 163 302 c 1,10,-1
 163 0 l 1,11,-1
 64 0 l 1,12,-1
 64 463 l 1,13,-1
 163 463 l 1,14,-1
 163 317 l 1,15,16
 167 380 167 380 225 426.5 c 128,-1,17
 283 473 283 473 346 473 c 0,18,19
 412 473 412 473 443.5 427.5 c 128,-1,20
 475 382 475 382 475 234 c 2,21,-1
 475 0 l 1,22,-1
 375 0 l 1,23,-1
 375 208 l 2,24,25
 375 326 375 326 362.5 384 c 128,-1,26
 350 442 350 442 315 442 c 0,27,28
 271 442 271 442 227 401 c 128,-1,29
 183 360 183 360 183 314 c 0,30,0
 183 290 183 290 195.5 267.5 c 128,-1,1
EndSplineSet
EndChar

StartChar: m
Encoding: 109 109 8
Width: 843
Flags: HMW
HStem: 0 245<64 240.5 64 240.5 215 375 215 475> 225 20<215 240.5 215 242 525 549.5> 442 31<306 340 616 649> 443 20G<64 163 163 163>
VStem: 64 99<0 302 0 317 317 463> 163 20<0 345.5 317 317 317 345.5 302.5 463> 375 100<0 208 208 234 0 279> 472 20<302.5 345.5> 684 100<0 208 208 234 0 279>
LayerCount: 2
Fore
SplineSet
195.5 267.5 m 128,-1,1
 208 245 208 245 230.625 245 c 128,-1,2
 253.25 245 253.25 245 265.625 250.5 c 128,-1,3
 278 256 278 256 280 256 c 0,4,5
 286 256 286 256 286 248 c 128,-1,6
 286 240 286 240 274.5 232.5 c 128,-1,7
 263 225 263 225 233.5 225 c 128,-1,8
 204 225 204 225 185 249 c 128,-1,9
 166 273 166 273 163 302 c 1,10,-1
 163 0 l 1,11,-1
 64 0 l 1,12,-1
 64 463 l 1,13,-1
 163 463 l 1,14,-1
 163 317 l 1,15,16
 167 380 167 380 225 426.5 c 128,-1,17
 283 473 283 473 346.5 473 c 128,-1,18
 410 473 410 473 437.5 434.5 c 128,-1,19
 465 396 465 396 472 324 c 1,20,21
 476 384 476 384 534.5 428.5 c 128,-1,22
 593 473 593 473 655 473 c 0,23,24
 721 473 721 473 752.5 427.5 c 128,-1,25
 784 382 784 382 784 234 c 2,26,-1
 784 0 l 1,27,-1
 684 0 l 1,28,-1
 684 208 l 2,29,30
 684 326 684 326 671.5 384 c 128,-1,31
 659 442 659 442 624 442 c 0,32,33
 580 442 580 442 536 401 c 128,-1,34
 492 360 492 360 492 314 c 0,35,36
 492 290 492 290 504.5 267.5 c 128,-1,37
 517 245 517 245 545 245 c 0,38,39
 562.25 245 562.25 245 574.625 250.5 c 128,-1,40
 587 256 587 256 589 256 c 0,41,42
 595 256 595 256 595 248 c 128,-1,43
 595 240 595 240 583.5 232.5 c 128,-1,44
 572 225 572 225 544.5 225 c 128,-1,45
 517 225 517 225 498 244.5 c 128,-1,46
 479 264 479 264 474 295 c 1,47,48
 475 276 475 276 475 234 c 2,49,-1
 475 0 l 1,50,-1
 375 0 l 1,51,-1
 375 208 l 2,52,53
 375 326 375 326 362.5 384 c 128,-1,54
 350 442 350 442 315 442 c 0,55,56
 271 442 271 442 227 401 c 128,-1,57
 183 360 183 360 183 314 c 0,58,0
 183 290 183 290 195.5 267.5 c 128,-1,1
EndSplineSet
EndChar

StartChar: r
Encoding: 114 114 10
Width: 386
Flags: HMW
HStem: 0 21G<64 164 64 64> 402 78<278.5 370.5> 443 20G<64 164 164 164> 450 30<278.5 317>
VStem: 64 100<0 241 345 463>
LayerCount: 2
Fore
SplineSet
392 425 m 0,0,1
 392 414 392 414 383.5 408 c 128,-1,2
 375 402 375 402 362 402 c 0,3,4
 349 402 349 402 341 409.5 c 128,-1,5
 333 417 333 417 330.5 426 c 128,-1,6
 328 435 328 435 318 442.5 c 128,-1,7
 308 450 308 450 290 450 c 0,8,9
 246 450 246 450 208 386 c 128,-1,10
 170 322 170 322 164 241 c 1,11,-1
 164 0 l 1,12,-1
 64 0 l 1,13,-1
 64 463 l 1,14,-1
 164 463 l 1,15,-1
 164 345 l 1,16,17
 188 403 188 403 226.5 441.5 c 128,-1,18
 265 480 265 480 304 480 c 0,19,20
 343 480 343 480 367.5 466.5 c 128,-1,21
 392 453 392 453 392 425 c 0,0,1
EndSplineSet
EndChar

StartChar: s
Encoding: 115 115 11
Width: 438
Flags: HMW
HStem: -10 20<191 250 191 260.5> 357 118<195.5 374.5> 455 20<195.5 247.5>
VStem: 40 28 40 46<315.5 394 315.5 395> 362 44<96.5 154.5>
LayerCount: 2
Fore
SplineSet
93 23.5 m 128,-1,1
 33 57 33 57 33 117 c 0,2,3
 33 133 33 133 41 147 c 128,-1,4
 49 161 49 161 61.5 161 c 128,-1,5
 74 161 74 161 81 153 c 128,-1,6
 88 145 88 145 88 137 c 128,-1,7
 88 129 88 129 78 114.5 c 128,-1,8
 68 100 68 100 68 91 c 0,9,10
 68 60 68 60 121 35 c 128,-1,11
 174 10 174 10 222.5 10 c 128,-1,12
 271 10 271 10 316.5 42 c 128,-1,13
 362 74 362 74 362 123 c 0,14,15
 362 168.058823529 362 168.058823529 312.5 186.5 c 0,16,17
 279.61281337 198.752089136 279.61281337 198.752089136 202.806406685 211.376044568 c 128,-1,18
 126 224 126 224 83 253 c 128,-1,19
 40 282 40 282 40 343 c 0,20,21
 40 380 40 380 59 407 c 128,-1,22
 78 434 78 434 108.5 448 c 0,23,24
 167.321428571 475 167.321428571 475 224.660714286 475 c 128,-1,25
 282 475 282 475 326.5 455 c 128,-1,26
 371 435 371 435 385 405 c 0,27,28
 391 391 391 391 391 381 c 0,29,30
 391 357 391 357 366 357 c 0,31,32
 338.769230769 357 338.769230769 357 337.5 390 c 0,33,34
 336.094240838 426.54973822 336.094240838 426.54973822 309 441 c 1,35,36
 275 455 275 455 223.5 455 c 128,-1,37
 172 455 172 455 129 430.5 c 128,-1,38
 86 406 86 406 86 368 c 0,39,40
 86 322.263888889 86 322.263888889 169 316.5 c 0,41,42
 251.736842105 310.754385965 251.736842105 310.754385965 323 287 c 0,43,44
 359 275 359 275 382.5 241.5 c 128,-1,45
 406 208 406 208 406 160.5 c 128,-1,46
 406 113 406 113 389 80 c 128,-1,47
 372 47 372 47 344 28 c 0,48,49
 288 -10 288 -10 220.5 -10 c 128,-1,0
 153 -10 153 -10 93 23.5 c 128,-1,1
EndSplineSet
EndChar

StartChar: e
Encoding: 101 101 12
Width: 464
Flags: HMW
HStem: -10 21<203.5 296.5 203.5 302> -10 190<209.5 268 209.5 302> 162 195<215.5 232 206.5 305> 338 135<237 241>
VStem: 32 103 32 116<238 282.5 238 302> 346 86<289.5 359.5 281.5 370.5>
LayerCount: 2
Fore
SplineSet
228.5 18 m 128,-1,1
 250 11 250 11 281 11 c 128,-1,2
 312 11 312 11 347 25.5 c 128,-1,3
 382 40 382 40 396 69 c 1,4,-1
 425 69 l 1,5,6
 386 -10 386 -10 261 -10 c 0,7,8
 165 -10 165 -10 98.5 58.5 c 128,-1,9
 32 127 32 127 32 230.5 c 128,-1,10
 32 334 32 334 102 403.5 c 128,-1,11
 172 473 172 473 254.5 473 c 128,-1,12
 337 473 337 473 384.5 427.5 c 128,-1,13
 432 382 432 382 432 320 c 128,-1,14
 432 258 432 258 381 210 c 128,-1,15
 330 162 330 162 247 162 c 128,-1,16
 164 162 164 162 131 233 c 1,17,18
 132 226 132 226 133.5 203 c 128,-1,19
 135 180 135 180 136 167 c 128,-1,20
 137 154 137 154 141.5 131 c 128,-1,21
 146 108 146 108 151.5 94 c 128,-1,22
 157 80 157 80 168 62.5 c 128,-1,23
 179 45 179 45 193 35 c 128,-1,0
 207 25 207 25 228.5 18 c 128,-1,1
346 325 m 0,24,25
 346 454 346 454 247.5 454 c 0,26,27
 200 454 200 454 169.5 407.5 c 128,-1,28
 139 361 139 361 135 295 c 1,29,30
 147 323 147 323 171.5 340 c 128,-1,31
 196 357 196 357 222.5 357 c 128,-1,32
 249 357 249 357 249 347.5 c 128,-1,33
 249 338 249 338 237 338 c 0,34,35
 191 335 191 335 169.5 315 c 128,-1,36
 148 295 148 295 148 261 c 128,-1,37
 148 227 148 227 172.5 203.5 c 128,-1,38
 197 180 197 180 230 180 c 0,39,40
 284 180 284 180 315 223.5 c 128,-1,41
 346 267 346 267 346 325 c 0,24,25
EndSplineSet
EndChar

StartChar: o
Encoding: 111 111 13
Width: 565
Flags: HMW
HStem: -5 20<234 334> 159 20<292.5 338.5 291.5 346.5> 301 20<274.5 294.5> 451 20<210 318.5>
VStem: 32 100<157.5 270 157.5 298> 222 20<233 260.5 233 267> 426 106<266.5 306.5 147 359.5>
LayerCount: 2
Fore
SplineSet
32 231 m 0,0,1
 32 333 32 333 102.5 402 c 128,-1,2
 173 471 173 471 283.5 471 c 128,-1,3
 394 471 394 471 463 406 c 128,-1,4
 532 341 532 341 532 235 c 0,5,6
 532 172 532 172 508 123.5 c 128,-1,7
 484 75 484 75 445.5 48.5 c 0,8,9
 367.773584906 -5 367.773584906 -5 283 -5 c 0,10,11
 200.444444444 -5 200.444444444 -5 121 50 c 0,12,13
 82 77 82 77 57 124.5 c 128,-1,14
 32 172 32 172 32 231 c 0,0,1
317 295 m 1,15,-1
 288 301 l 1,16,17
 269 301 269 301 255.5 284.5 c 128,-1,18
 242 268 242 268 242 245.5 c 128,-1,19
 242 223 242 223 262 201 c 128,-1,20
 282 179 282 179 318.5 179 c 128,-1,21
 355 179 355 179 390.5 214.5 c 128,-1,22
 426 250 426 250 426 315 c 128,-1,23
 426 380 426 380 384.5 415.5 c 128,-1,24
 343 451 343 451 280 451 c 0,25,26
 240 451 240 451 211 435.5 c 128,-1,27
 182 420 182 420 167 398 c 128,-1,28
 152 376 152 376 144 342.5 c 0,29,30
 132 292.25 132 292.25 132 226 c 0,31,32
 132 15 132 15 286 15 c 0,33,34
 377.373134328 15 377.373134328 15 406 83.5 c 0,35,36
 431 143.321428571 431 143.321428571 431 237 c 1,37,38
 422 211 422 211 389.5 185 c 128,-1,39
 357 159 357 159 318 159 c 128,-1,40
 279 159 279 159 250.5 185.5 c 128,-1,41
 222 212 222 212 222 245 c 128,-1,42
 222 278 222 278 240 299.5 c 128,-1,43
 258 321 258 321 291.5 321 c 128,-1,44
 325 321 325 321 325 302 c 0,45,46
 325 295 325 295 317 295 c 1,15,-1
EndSplineSet
EndChar

StartChar: d
Encoding: 100 100 14
Width: 538
Flags: HMW
HStem: -10 29<222.5 243.5> 0 21G<374 374 374 474> 453 20<195 265.5 173 268.5> 730 20G<374 474 474 474>
VStem: 35 100<158.5 261 158.5 310> 357 117<330 384.5> 374 100<0 57 57 57 82 336 336 336 386 750 0 750>
LayerCount: 2
Fore
SplineSet
374 0 m 1,0,-1
 374 57 l 1,1,2
 287 -10 287 -10 218 -10 c 0,3,4
 160.6 -10 160.6 -10 103 38 c 0,5,6
 73 63 73 63 54 114 c 128,-1,7
 35 165 35 165 35 233 c 0,8,9
 35 347 35 347 88.5 410 c 128,-1,10
 142 473 142 473 233 473 c 0,11,12
 284 473 284 473 324 450 c 128,-1,13
 364 427 364 427 374 386 c 1,14,-1
 374 750 l 1,15,-1
 474 750 l 1,16,-1
 474 0 l 1,17,-1
 374 0 l 1,0,-1
135 220 m 0,18,19
 135 132 135 132 170.5 75.5 c 128,-1,20
 206 19 206 19 251 19 c 128,-1,21
 296 19 296 19 374 82 c 1,22,-1
 374 336 l 1,23,24
 367 306 367 306 345.5 288 c 128,-1,25
 324 270 324 270 313 270 c 0,26,27
 305 270 305 270 305 280 c 0,28,29
 305 284.8 305 284.8 323 297.4 c 0,30,31
 357 321.2 357 321.2 357 358.6 c 128,-1,32
 357 396 357 396 320.5 424.5 c 128,-1,33
 284 453 284 453 245 453 c 0,34,35
 135 453 135 453 135 220 c 0,18,19
EndSplineSet
EndChar

StartChar: q
Encoding: 113 113 15
Width: 538
Flags: HMW
HStem: -250 21G<374 374 374 474> -10 29<222.5 243.5> 443 20G<374 474 474 474> 453 20<195 265.5 173 268.5>
VStem: 35 100<158.5 261 158.5 310> 357 117<330 384.5> 374 100<-250 57 57 57 82 336 336 336 386 463 -250 463>
LayerCount: 2
Fore
SplineSet
374 -250 m 1,0,-1
 374 57 l 1,1,2
 287 -10 287 -10 218 -10 c 0,3,4
 160.6 -10 160.6 -10 103 38 c 0,5,6
 73 63 73 63 54 114 c 128,-1,7
 35 165 35 165 35 233 c 0,8,9
 35 347 35 347 88.5 410 c 128,-1,10
 142 473 142 473 233 473 c 0,11,12
 284 473 284 473 324 450 c 128,-1,13
 364 427 364 427 374 386 c 1,14,-1
 374 463 l 1,15,-1
 474 463 l 1,16,-1
 474 -250 l 1,17,-1
 374 -250 l 1,0,-1
135 220 m 0,18,19
 135 132 135 132 170.5 75.5 c 128,-1,20
 206 19 206 19 251 19 c 128,-1,21
 296 19 296 19 374 82 c 1,22,-1
 374 336 l 1,23,24
 367 306 367 306 345.5 288 c 128,-1,25
 324 270 324 270 313 270 c 0,26,27
 305 270 305 270 305 280 c 0,28,29
 305 284.8 305 284.8 323 297.4 c 0,30,31
 357 321.2 357 321.2 357 358.6 c 128,-1,32
 357 396 357 396 320.5 424.5 c 128,-1,33
 284 453 284 453 245 453 c 0,34,35
 135 453 135 453 135 220 c 0,18,19
EndSplineSet
EndChar

StartChar: c
Encoding: 99 99 16
Width: 453
Flags: HMW
HStem: -10 21<215 290 215 294.5> 252 20<319.5 346 319.5 362> 252 221<206 362>
VStem: 32 100<177 302.5 177 308.5> 252 20<309 332.5 309 338> 400 20<316.5 369.5>
LayerCount: 2
Fore
SplineSet
392 99 m 1,0,-1
 421 99 l 1,1,2
 399 54 399 54 355.5 22 c 128,-1,3
 312 -10 312 -10 247 -10 c 0,4,5
 144 -10 144 -10 88 63 c 128,-1,6
 32 136 32 136 32 238 c 128,-1,7
 32 340 32 340 102 406.5 c 128,-1,8
 172 473 172 473 260 473 c 0,9,10
 322 473 322 473 371 436 c 128,-1,11
 420 399 420 399 420 342 c 0,12,13
 420 303 420 303 397 277.5 c 128,-1,14
 374 252 374 252 339.5 252 c 128,-1,15
 305 252 305 252 278.5 270.5 c 128,-1,16
 252 289 252 289 252 316.5 c 128,-1,17
 252 344 252 344 262 360 c 0,18,19
 275.75 382 275.75 382 288.375 382 c 128,-1,20
 301 382 301 382 301 374 c 0,21,22
 301 369 301 369 296.5 366 c 0,23,24
 272 349.666666667 272 349.666666667 272 325.833333333 c 128,-1,25
 272 302 272 302 291.5 287 c 128,-1,26
 311 272 311 272 334.5 272 c 128,-1,27
 358 272 358 272 379 288 c 128,-1,28
 400 304 400 304 400 344.5 c 128,-1,29
 400 385 400 385 360.5 419.5 c 128,-1,30
 321 454 321 454 268 454 c 0,31,32
 200 454 200 454 166 396.5 c 128,-1,33
 132 339 132 339 132 238.5 c 128,-1,34
 132 138 132 138 164 74.5 c 128,-1,35
 196 11 196 11 262 11 c 0,36,37
 302 11 302 11 339 38 c 128,-1,38
 376 65 376 65 392 99 c 1,0,-1
EndSplineSet
EndChar

StartChar: j
Encoding: 106 106 17
Width: 228
Flags: HMW
HStem: -250 20<-104 -51 -104 -10.5> -97 21G<-77 -69> -77 20<-131 -100.5 -139.5 -93> 443 20G<64 164 164 164> 541 106<100.5 129.5>
VStem: -194 20<-166 -125 -166 -121.5> 64 100<-55 -29 -29 463>
LayerCount: 2
Fore
SplineSet
62 594 m 128,-1,1
 62 616 62 616 77.5 631.5 c 128,-1,2
 93 647 93 647 115 647 c 128,-1,3
 137 647 137 647 152.5 631.5 c 128,-1,4
 168 616 168 616 168 594 c 128,-1,5
 168 572 168 572 152.5 556.5 c 128,-1,6
 137 541 137 541 115 541 c 128,-1,7
 93 541 93 541 77.5 556.5 c 128,-1,0
 62 572 62 572 62 594 c 128,-1,1
64 -55 m 2,8,-1
 64 463 l 1,9,-1
 164 463 l 1,10,-1
 164 -29 l 2,11,12
 164 -90 164 -90 143 -135 c 128,-1,13
 122 -180 122 -180 88 -204 c 0,14,15
 22.8333333333 -250 22.8333333333 -250 -51.0833333333 -250 c 128,-1,16
 -125 -250 -125 -250 -159.5 -218.5 c 128,-1,17
 -194 -187 -194 -187 -194 -148 c 128,-1,18
 -194 -109 -194 -109 -172 -83 c 128,-1,19
 -150 -57 -150 -57 -121.5 -57 c 128,-1,20
 -93 -57 -93 -57 -79 -66 c 128,-1,21
 -65 -75 -65 -75 -65 -86 c 128,-1,22
 -65 -97 -65 -97 -70 -97 c 128,-1,23
 -75 -97 -75 -97 -78 -92 c 0,24,25
 -87 -77 -87 -77 -113.5 -77 c 128,-1,26
 -140 -77 -140 -77 -157 -96 c 128,-1,27
 -174 -115 -174 -115 -174 -147.5 c 128,-1,28
 -174 -180 -174 -180 -146.5 -205 c 128,-1,29
 -119 -230 -119 -230 -70 -230 c 0,30,31
 -29.15625 -230 -29.15625 -230 10.5 -203 c 0,32,33
 34 -187 34 -187 49 -149 c 128,-1,34
 64 -111 64 -111 64 -55 c 2,8,-1
EndSplineSet
EndChar

StartChar: f
Encoding: 102 102 18
Width: 338
Flags: HMW
HStem: 0 21G<108 208 108 108> 401 20<7 108 7 108 208 308> 401 177<208 357 208 357> 711 20G<266.5 329.5>
VStem: 108 100<0 401 0 401 421 492 0 518> 261 20<608.5 634> 404 20<629 675>
LayerCount: 2
Fore
SplineSet
208 401 m 1,0,-1
 208 0 l 1,1,-1
 108 0 l 1,2,-1
 108 401 l 1,3,-1
 7 401 l 1,4,-1
 7 421 l 1,5,-1
 108 421 l 1,6,-1
 108 518 l 2,7,8
 108 628 108 628 173.5 689 c 128,-1,9
 239 750 239 750 309 750 c 0,10,11
 355 750 355 750 389.5 722 c 128,-1,12
 424 694 424 694 424 650 c 0,13,14
 424 606 424 606 397.5 582.5 c 128,-1,15
 371 559 371 559 338.5 559 c 0,16,17
 306 559 306 559 283.5 576.5 c 128,-1,18
 261 594 261 594 261 617.5 c 0,19,20
 261 641 261 641 268.5 657 c 128,-1,21
 276 673 276 673 286 673 c 0,22,23
 296 673 296 673 296 666 c 0,24,25
 296 663 296 663 288.5 653.5 c 128,-1,26
 281 644 281 644 281 623 c 0,27,28
 281 602 281 602 300 590 c 128,-1,29
 319 578 319 578 342.5 578 c 0,30,31
 366 578 366 578 385 598.5 c 128,-1,32
 404 619 404 619 404 652.5 c 0,33,34
 404 686 404 686 374 708.5 c 128,-1,35
 344 731 344 731 305 731 c 0,36,37
 249 731 249 731 228.5 675.5 c 128,-1,38
 208 620 208 620 208 492 c 2,39,-1
 208 421 l 1,40,-1
 308 421 l 1,41,-1
 308 401 l 1,42,-1
 208 401 l 1,0,-1
EndSplineSet
EndChar

StartChar: g
Encoding: 103 103 19
Width: 518
Flags: HMW
HStem: -250 20<186 239 186 279.5> -97 21G<213 221> -77 20<159 189.5 150.5 197> -10 20<191 255.5> 443 20G<354 454 454 454> 450 23<209.5 231.5 176 254>
VStem: 36 80 36 100<203.5 307.5 203.5 338> 96 20<-166 -125 -166 -121.5> 337 117<80.5 136.5> 354 100<-55 -29 -29 82 82 82 125 387 387 387 408 463>
LayerCount: 2
Fore
SplineSet
354 408 m 1,0,-1
 354 463 l 1,1,-1
 454 463 l 1,2,-1
 454 -29 l 2,3,4
 454 -90 454 -90 433 -135 c 128,-1,5
 412 -180 412 -180 378 -204 c 0,6,7
 312.833333333 -250 312.833333333 -250 238.916666667 -250 c 128,-1,8
 165 -250 165 -250 130.5 -218.5 c 128,-1,9
 96 -187 96 -187 96 -148 c 128,-1,10
 96 -109 96 -109 118 -83 c 128,-1,11
 140 -57 140 -57 168.5 -57 c 128,-1,12
 197 -57 197 -57 211 -66 c 128,-1,13
 225 -75 225 -75 225 -86 c 128,-1,14
 225 -97 225 -97 220 -97 c 128,-1,15
 215 -97 215 -97 212 -92 c 0,16,17
 203 -77 203 -77 176.5 -77 c 128,-1,18
 150 -77 150 -77 133 -96 c 128,-1,19
 116 -115 116 -115 116 -147.5 c 128,-1,20
 116 -180 116 -180 143.5 -205 c 128,-1,21
 171 -230 171 -230 220 -230 c 0,22,23
 260.84375 -230 260.84375 -230 300.5 -203 c 0,24,25
 324 -187 324 -187 339 -149 c 128,-1,26
 354 -111 354 -111 354 -55 c 2,27,-1
 354 82 l 1,28,29
 346 39 346 39 309.5 14.5 c 128,-1,30
 273 -10 273 -10 223 -10 c 0,31,32
 134 -10 134 -10 85 56.5 c 128,-1,33
 36 123 36 123 36 239 c 0,34,35
 36 309 36 309 53.5 358.5 c 128,-1,36
 71 408 71 408 99.5 431 c 0,37,38
 151.543478261 473 151.543478261 473 211.77173913 473 c 128,-1,39
 272 473 272 473 354 408 c 1,0,-1
136 234 m 0,40,41
 136 168 136 168 148 114 c 0,42,43
 171.111111111 10 171.111111111 10 238 10 c 0,44,45
 279 10 279 10 308 38.5 c 128,-1,46
 337 67 337 67 337 109 c 0,47,48
 337 148.346153846 337 148.346153846 297 174.5 c 0,49,50
 284 183 284 183 284 187 c 0,51,52
 284 196 284 196 290.5 196 c 128,-1,53
 297 196 297 196 309 189.5 c 128,-1,54
 321 183 321 183 335 166 c 128,-1,55
 349 149 349 149 354 125 c 1,56,-1
 354 387 l 1,57,58
 281 450 281 450 237 450 c 128,-1,59
 193 450 193 450 164.5 394.5 c 128,-1,60
 136 339 136 339 136 234 c 0,40,41
EndSplineSet
EndChar

StartChar: k
Encoding: 107 107 20
Width: 500
Flags: HMW
HStem: -90 20<426.5 497> -16 21G<559.5 565> 0 21G<64 164 64 64> 452 20G<472 495> 730 20G<64 164 164 164>
VStem: 64 100<0 178 0 211 211 750>
LayerCount: 2
Fore
SplineSet
456 -90 m 0,0,1
 402 -90 402 -90 372.5 -54.5 c 128,-1,2
 343 -19 343 -19 334.5 33 c 128,-1,3
 326 85 326 85 320.5 138 c 0,4,5
 306.935240572 268.714954486 306.935240572 268.714954486 242 281 c 1,6,-1
 164 178 l 1,7,-1
 164 0 l 1,8,-1
 64 0 l 1,9,-1
 64 750 l 1,10,-1
 164 750 l 1,11,-1
 164 211 l 1,12,-1
 290 378 l 2,13,14
 328 429 328 429 379 461 c 128,-1,15
 430 493 430 493 484 493 c 0,16,17
 503 493 503 493 503 484 c 0,18,19
 503 472 503 472 491 472 c 0,20,21
 463 472 463 472 442.5 468.5 c 128,-1,22
 422 465 422 465 382 439 c 128,-1,23
 342 413 342 413 304 363 c 2,24,-1
 255 299 l 1,25,26
 277 301 277 301 284 301 c 0,27,28
 335 301 335 301 366.5 273.5 c 128,-1,29
 398 246 398 246 407.5 205 c 128,-1,30
 417 164 417 164 422.5 115.5 c 128,-1,31
 428 67 428 67 429.5 26 c 128,-1,32
 431 -15 431 -15 444 -42.5 c 128,-1,33
 457 -70 457 -70 481 -70 c 128,-1,34
 505 -70 505 -70 523 -56.5 c 128,-1,35
 541 -43 541 -43 551 -29.5 c 128,-1,36
 561 -16 561 -16 565 -16 c 128,-1,37
 569 -16 569 -16 569 -20.5 c 128,-1,38
 569 -25 569 -25 566 -31 c 0,39,40
 536 -90 536 -90 456 -90 c 0,0,1
EndSplineSet
EndChar

StartChar: florin
Encoding: 402 402 21
Width: 451
Flags: HMW
HStem: -130 20<64.5 110.5 58.5 164> -59 21G<-8.5 -3.5> 401 20<46 147 46 147 46 148 248 248 248 347> 401 177<248 396 248 396> 713 20G<305.5 368.5>
VStem: 148 100<91 92 92 401> 300 20<608.5 634> 443 20<629 675>
LayerCount: 2
Fore
SplineSet
46 401 m 1,0,-1
 46 421 l 1,1,-1
 147 421 l 1,2,-1
 147 518 l 2,3,4
 147 628 147 628 212.5 689 c 128,-1,5
 278 750 278 750 348 750 c 0,6,7
 394 750 394 750 428.5 722 c 128,-1,8
 463 694 463 694 463 650 c 128,-1,9
 463 606 463 606 436.5 582.5 c 128,-1,10
 410 559 410 559 377.5 559 c 128,-1,11
 345 559 345 559 322.5 576.5 c 128,-1,12
 300 594 300 594 300 617.5 c 128,-1,13
 300 641 300 641 307.5 657 c 128,-1,14
 315 673 315 673 325 673 c 128,-1,15
 335 673 335 673 335 666 c 0,16,17
 335 663 335 663 327.5 653.5 c 128,-1,18
 320 644 320 644 320 623 c 128,-1,19
 320 602 320 602 339 590 c 128,-1,20
 358 578 358 578 381.5 578 c 128,-1,21
 405 578 405 578 424 598.5 c 128,-1,22
 443 619 443 619 443 652.5 c 128,-1,23
 443 686 443 686 413 709.5 c 128,-1,24
 383 733 383 733 344 733 c 0,25,26
 288 733 288 733 267.5 676.5 c 128,-1,27
 247 620 247 620 247 492 c 2,28,-1
 247 421 l 1,29,-1
 347 421 l 1,30,-1
 347 401 l 1,31,-1
 248 401 l 1,32,-1
 248 92 l 2,33,34
 248 51.7368421053 248 51.7368421053 236.5 9.36842105263 c 128,-1,35
 225 -33 225 -33 209.5 -60.5 c 128,-1,36
 194 -88 194 -88 163 -109 c 128,-1,37
 132 -130 132 -130 93 -130 c 128,-1,38
 54 -130 54 -130 28 -116 c 128,-1,39
 2 -102 2 -102 -9 -83 c 0,40,41
 -14 -75 -14 -75 -14 -70 c 0,42,43
 -14 -59 -14 -59 -5 -59 c 0,44,45
 0 -59 0 -59 12 -73.5 c 0,46,47
 42.2068965517 -110 42.2068965517 -110 73 -110 c 0,48,49
 148 -110 148 -110 148 91 c 2,50,-1
 148 401 l 1,51,-1
 46 401 l 1,0,-1
EndSplineSet
EndChar

StartChar: t
Encoding: 116 116 22
Width: 335
Flags: HMW
HStem: -10 20<222 258> 443 20<0 92 0 92 192 297> 580 20G<92 192 192 192>
VStem: 92 100<170 443 463 600>
LayerCount: 2
Fore
SplineSet
0 443 m 1,0,-1
 0 463 l 1,1,-1
 92 463 l 1,2,-1
 92 600 l 1,3,-1
 192 600 l 1,4,-1
 192 463 l 1,5,-1
 297 463 l 1,6,-1
 297 443 l 1,7,-1
 192 443 l 1,8,-1
 192 134 l 2,9,10
 192 10 192 10 246 10 c 0,11,12
 267 10 267 10 285 23.5 c 128,-1,13
 303 37 303 37 313 50.5 c 128,-1,14
 323 64 323 64 327 64 c 0,15,16
 331 64 331 64 331 59.5 c 0,17,18
 331 55 331 55 328 49 c 0,19,20
 298 -10 298 -10 218 -10 c 0,21,22
 154 -10 154 -10 123 39 c 128,-1,23
 92 88 92 88 92 170 c 2,24,-1
 92 443 l 1,25,-1
 0 443 l 1,0,-1
EndSplineSet
EndChar

StartChar: u
Encoding: 117 117 23
Width: 533
Flags: HMW
HStem: -10 31<193 227> 0 21G 218 20<292.5 318> 218 245<58 318>
VStem: 58 100<229 255 255 463> 350 20<117.5 146 158 160.5> 370 99<0 146 146 146 158 463 0 463>
LayerCount: 2
Fore
SplineSet
337.5 195.5 m 128,-1,1
 325 218 325 218 302.375 218 c 128,-1,2
 279.75 218 279.75 218 267.375 212.5 c 128,-1,3
 255 207 255 207 253 207 c 0,4,5
 247 207 247 207 247 215 c 128,-1,6
 247 223 247 223 258.5 230.5 c 128,-1,7
 270 238 270 238 299.5 238 c 128,-1,8
 329 238 329 238 348.5 213 c 128,-1,9
 368 188 368 188 370 158 c 1,10,-1
 370 463 l 1,11,-1
 469 463 l 1,12,-1
 469 0 l 1,13,-1
 370 0 l 1,14,-1
 370 146 l 1,15,16
 366 83 366 83 308 36.5 c 128,-1,17
 250 -10 250 -10 187 -10 c 0,18,19
 121 -10 121 -10 89.5 35.5 c 128,-1,20
 58 81 58 81 58 229 c 2,21,-1
 58 463 l 1,22,-1
 158 463 l 1,23,-1
 158 255 l 2,24,25
 158 137 158 137 170.5 79 c 128,-1,26
 183 21 183 21 218 21 c 0,27,28
 262 21 262 21 306 62 c 128,-1,29
 350 103 350 103 350 149 c 0,30,0
 350 173 350 173 337.5 195.5 c 128,-1,1
EndSplineSet
EndChar

StartChar: v
Encoding: 118 118 24
Width: 551
Flags: HMW
HStem: -10 20<293 358.5 293 373> 233 20<66.5 91.5> 440 22 440 36<106 141>
VStem: 13 20<310 342 310 358.5> 176 91<121 316.5> 362 20<396.5 411.5 389.5 413.5> 493 20<281 366>
LayerCount: 2
Fore
SplineSet
382 395 m 1,0,-1
 386 365 l 1,1,2
 386 357 386 357 379 357 c 0,3,4
 362 357 362 357 362 400 c 0,5,6
 362 422 362 422 381 442 c 128,-1,7
 400 462 400 462 432.5 462 c 128,-1,8
 465 462 465 462 489 430 c 128,-1,9
 513 398 513 398 513 344.5 c 128,-1,10
 513 291 513 291 500.5 235 c 128,-1,11
 488 179 488 179 463.5 122.5 c 128,-1,12
 439 66 439 66 394.5 28 c 128,-1,13
 350 -10 350 -10 295 -10 c 0,14,15
 258 -10 258 -10 232.5 7.5 c 128,-1,16
 207 25 207 25 195 55 c 0,17,18
 173 110 173 110 173 175 c 1,19,-1
 176 285 l 1,20,21
 176 398 176 398 146 426 c 0,22,23
 131 440 131 440 108 440 c 128,-1,24
 85 440 85 440 69 428 c 128,-1,25
 53 416 53 416 46 396 c 0,26,27
 33 358.857142857 33 358.857142857 33 327.928571429 c 128,-1,28
 33 297 33 297 46 275 c 128,-1,29
 59 253 59 253 91 253 c 0,30,31
 106 253 106 253 119 260 c 128,-1,32
 132 267 132 267 133 267 c 0,33,34
 140 267 140 267 140 255.5 c 128,-1,35
 140 244 140 244 120.5 238.5 c 128,-1,36
 101 233 101 233 84 233 c 0,37,38
 52 233 52 233 32.5 261 c 128,-1,39
 13 289 13 289 13 322 c 0,40,41
 13 385 13 385 49 430.5 c 128,-1,42
 85 476 85 476 160 476 c 0,43,44
 226.648148148 476 226.648148148 476 250.5 420 c 0,45,46
 270 374.217391304 270 374.217391304 270 299 c 1,47,-1
 267 159 l 1,48,49
 267 89 267 89 276.5 49.5 c 128,-1,50
 286 10 286 10 314 10 c 0,51,52
 357 10 357 10 399.5 61 c 128,-1,53
 442 112 442 112 467.5 186 c 128,-1,54
 493 260 493 260 493 321 c 128,-1,55
 493 382 493 382 473 412 c 128,-1,56
 453 442 453 442 424 442 c 0,57,58
 408 442 408 442 395 430 c 128,-1,59
 382 418 382 418 382 395 c 1,0,-1
EndSplineSet
EndChar

StartChar: x
Encoding: 120 120 25
Width: 525
Flags: HMW
HStem: -5 38<381.5 472.5> 0 21G<52 72 52 52> 428 38<76.5 89> 443 20G<449 469 469 469>
VStem: 52 20<0 48> 449 20<413.5 463>
LayerCount: 2
Fore
SplineSet
508 119 m 1,0,1
 517 119 517 119 517 107 c 0,2,3
 516 63 516 63 481.5 29 c 128,-1,4
 447 -5 447 -5 408.5 -5 c 128,-1,5
 370 -5 370 -5 339 16 c 128,-1,6
 308 37 308 37 289 74 c 2,7,-1
 227 195 l 1,8,9
 154 147 154 147 114 101 c 128,-1,10
 74 55 74 55 72 0 c 1,11,-1
 52 0 l 1,12,13
 52 66 52 66 92 111 c 128,-1,14
 132 156 132 156 218 213 c 1,15,-1
 161 326 l 2,16,17
 109 428 109 428 75 428 c 0,18,19
 38.25 428 38.25 428 22.5 365 c 0,20,21
 17 343 17 343 15 342 c 1,22,23
 6 342 6 342 6 353.5 c 128,-1,24
 6 365 6 365 15.5 389 c 128,-1,25
 25 413 25 413 53 439.5 c 128,-1,26
 81 466 81 466 117 466 c 128,-1,27
 153 466 153 466 186.5 440.5 c 128,-1,28
 220 415 220 415 242 370 c 2,29,-1
 298 259 l 1,30,31
 371 306 371 306 408.5 354.5 c 128,-1,32
 446 403 446 403 449 463 c 1,33,-1
 469 463 l 1,34,35
 469 393 469 393 432 345.5 c 128,-1,36
 395 298 395 298 308 241 c 1,37,-1
 395 69 l 2,38,39
 414 33 414 33 448 33 c 0,40,41
 470 33 470 33 483.5 53.5 c 128,-1,42
 497 74 497 74 502.5 96.5 c 2,43,-1
 508 119 l 1,0,1
EndSplineSet
EndChar

StartChar: V
Encoding: 86 86 26
Width: 685
Flags: HMW
HStem: -10 20<329 425 329 431> 443 20<51.5 79> 457 20G<114.5 120> 487 20<430.5 451> 660 46<145.5 151> 686 20<490 552>
VStem: -2 20<520.5 555.5 520.5 574.5> 205 94<125 143 87 201> 228 71 228 99<432 516.5> 376 20<554 596 554 614> 618 20<464.5 585.5>
LayerCount: 2
Fore
SplineSet
463 51.5 m 128,-1,1
 406 -10 406 -10 346 -10 c 128,-1,2
 286 -10 286 -10 245.5 45 c 128,-1,3
 205 100 205 100 205 172 c 0,4,5
 205 196 205 196 216.5 292.5 c 128,-1,6
 228 389 228 389 228 443 c 0,7,8
 228 547 228 547 197.5 603.5 c 128,-1,9
 167 660 167 660 128 660 c 128,-1,10
 89 660 89 660 53.5 615 c 128,-1,11
 18 570 18 570 18 531 c 0,12,13
 18 507 18 507 31 485 c 128,-1,14
 44 463 44 463 76 463 c 0,15,16
 91 463 91 463 104 470 c 128,-1,17
 117 477 117 477 118 477 c 0,18,19
 125 477 125 477 125 466 c 128,-1,20
 125 455 125 455 106.5 449 c 128,-1,21
 88 443 88 443 71 443 c 0,22,23
 38 443 38 443 18 470.5 c 128,-1,24
 -2 498 -2 498 -2 532 c 0,25,26
 -2 594 -2 594 61 650 c 128,-1,27
 124 706 124 706 184.5 706 c 128,-1,28
 245 706 245 706 286 637 c 128,-1,29
 327 568 327 568 327 452 c 0,30,31
 327 408 327 408 313 290 c 128,-1,32
 299 172 299 172 299 118.5 c 128,-1,33
 299 65 299 65 310 37.5 c 128,-1,34
 321 10 321 10 352 10 c 0,35,36
 404 10 404 10 455 71 c 128,-1,37
 506 132 506 132 540.5 218 c 128,-1,38
 575 304 575 304 596.5 393.5 c 128,-1,39
 618 483 618 483 618 546 c 128,-1,40
 618 609 618 609 592.5 647.5 c 128,-1,41
 567 686 567 686 516.5 686 c 128,-1,42
 466 686 466 686 431 649.5 c 128,-1,43
 396 613 396 613 396 568 c 0,44,45
 396 545 396 545 410 526 c 128,-1,46
 424 507 424 507 447 507 c 0,47,48
 456 507 456 507 469.5 511 c 128,-1,49
 483 515 483 515 485 515 c 0,50,51
 493 515 493 515 493 506 c 0,52,53
 493 489 493 489 461.5 487.5 c 2,54,-1
 451 487 l 1,55,56
 415 487 415 487 395.5 511.5 c 128,-1,57
 376 536 376 536 376 573 c 0,58,59
 376 632 376 632 422 669 c 128,-1,60
 468 706 468 706 521.5 706 c 128,-1,61
 575 706 575 706 606.5 662.5 c 128,-1,62
 638 619 638 619 638 546.5 c 128,-1,63
 638 474 638 474 616 381.5 c 128,-1,64
 594 289 594 289 557 201 c 128,-1,0
 520 113 520 113 463 51.5 c 128,-1,1
EndSplineSet
EndChar

StartChar: w
Encoding: 119 119 27
Width: 761
Flags: HMW
HStem: -10 20<294 329.5 533 598.5> 233 20<66.5 91.5> 440 36<106 136.5> 452 20G<625 652>
VStem: 13 20<310 342 310 358.5> 177 87 413 94 572 21<406.5 421.5 399.5 423.5> 694 20<281.5 378.5>
LayerCount: 2
Fore
SplineSet
593 405 m 1,0,-1
 596 375 l 2,1,2
 596 367 596 367 589 367 c 0,3,4
 572 367 572 367 572 410 c 0,5,6
 572 432 572 432 591 452 c 128,-1,7
 610 472 610 472 640 472 c 0,8,9
 714 472 714 472 714 344 c 0,10,11
 714 230.555555556 714 230.555555556 680 121 c 0,12,13
 662 63 662 63 625.5 26.5 c 128,-1,14
 589 -10 589 -10 544.5 -10 c 128,-1,15
 500 -10 500 -10 466.5 17.5 c 128,-1,16
 433 45 433 45 424 81 c 1,17,18
 396 43 396 43 383 28.5 c 0,19,20
 348.482758621 -10 348.482758621 -10 305.74137931 -10 c 128,-1,21
 263 -10 263 -10 235.5 4.5 c 128,-1,22
 208 19 208 19 195 46.5 c 0,23,24
 172 95.1538461538 172 95.1538461538 172 174 c 1,25,-1
 177 319 l 1,26,27
 177 377 177 377 162.5 408.5 c 128,-1,28
 148 440 148 440 108 440 c 0,29,30
 61.4 440 61.4 440 46 396 c 0,31,32
 33 358.857142857 33 358.857142857 33 327.928571429 c 128,-1,33
 33 297 33 297 46 275 c 128,-1,34
 59 253 59 253 91 253 c 0,35,36
 106 253 106 253 119 260 c 128,-1,37
 132 267 132 267 133 267 c 0,38,39
 140 267 140 267 140 255.5 c 128,-1,40
 140 244 140 244 120.5 238.5 c 128,-1,41
 101 233 101 233 84 233 c 0,42,43
 52 233 52 233 32.5 261 c 128,-1,44
 13 289 13 289 13 322 c 0,45,46
 13 385 13 385 49 430.5 c 128,-1,47
 85 476 85 476 160 476 c 0,48,49
 204 476 204 476 229.5 449 c 128,-1,50
 255 422 255 422 262.5 384.5 c 128,-1,51
 270 347 270 347 270 292 c 1,52,-1
 264 121 l 1,53,54
 264 67 264 67 275 38.5 c 128,-1,55
 286 10 286 10 318.5 10 c 128,-1,56
 351 10 351 10 381 60.5 c 128,-1,57
 411 111 411 111 413 171 c 0,58,59
 416 276 416 276 416 286 c 2,60,-1
 416 301 l 1,61,-1
 510 301 l 1,62,-1
 507 159 l 1,63,64
 507 89 507 89 516.5 49.5 c 128,-1,65
 526 10 526 10 554 10 c 0,66,67
 596 10 596 10 629 64.5 c 128,-1,68
 662 119 662 119 678 192.5 c 128,-1,69
 694 266 694 266 694 337 c 0,70,71
 694 452 694 452 634 452 c 0,72,73
 618 452 618 452 605.5 440 c 128,-1,74
 593 428 593 428 593 405 c 1,0,-1
EndSplineSet
EndChar

StartChar: l
Encoding: 108 108 28
Width: 296
Flags: HMW
HStem: -131 20<280 283.5 280 289.5> 37 20<18.5 40> 676 20G<105 205 205 205>
VStem: 105 100<32 696>
LayerCount: 2
Fore
SplineSet
105 32 m 1,0,-1
 105 696 l 1,1,-1
 205 696 l 1,2,-1
 205 -25 l 2,3,4
 205 -108 205 -108 280 -111 c 0,5,6
 285 -111 285 -111 288.5 -115 c 128,-1,7
 292 -119 292 -119 292 -125 c 0,8,9
 292 -131 292 -131 288 -131 c 0,10,11
 254 -131 254 -131 226 -117 c 128,-1,12
 198 -103 198 -103 183 -88.5 c 128,-1,13
 168 -74 168 -74 144 -44 c 128,-1,14
 120 -14 120 -14 103 4 c 0,15,16
 86 22 86 22 67.5 28.5 c 128,-1,17
 49 35 49 35 26 36.5 c 0,18,19
 3 38 3 38 3 46 c 0,20,21
 3 57 3 57 33.5 57 c 0,22,23
 64 57 64 57 105 32 c 1,0,-1
EndSplineSet
EndChar

StartChar: y
Encoding: 121 121 29
Width: 637
Flags: HMW
HStem: -250 21<318 382.5 307 423> -47 21G<193.5 199> -3 20<311 368.5> 260 20<64.5 89.5> 284 20<411.5 431> 284 188<406 514> 453 20G
VStem: 11 20<337.5 372.5 337.5 385> 171 22 171 95<186.5 265.5 151.5 281.5> 356 20<350 390.5 350 401.5> 478 100<-82 -80 -80 39 39 39> 555 23<226.5 239>
LayerCount: 2
Fore
SplineSet
343 -3 m 0,0,1
 244.954545455 -3 244.954545455 -3 203 68 c 0,2,3
 180.459227468 106.145922747 180.459227468 106.145922747 176.229613734 138.572961373 c 0,4,5
 171 178.666666667 171 178.666666667 171 259.333333333 c 128,-1,6
 171 340 171 340 162.5 395.5 c 128,-1,7
 154 451 154 451 120 451 c 0,8,9
 78 451 78 451 54.5 419.5 c 128,-1,10
 31 388 31 388 31 356 c 0,11,12
 31 280 31 280 89 280 c 0,13,14
 104 280 104 280 117 287 c 128,-1,15
 130 294 130 294 131 294 c 0,16,17
 138 294 138 294 138 282.5 c 128,-1,18
 138 271 138 271 118.5 265.5 c 128,-1,19
 99 260 99 260 82 260 c 0,20,21
 51 260 51 260 31 287.5 c 128,-1,22
 11 315 11 315 11 349 c 0,23,24
 11 404 11 404 49 438.5 c 128,-1,25
 87 473 87 473 151 473 c 0,26,27
 183 473 183 473 205.5 455 c 128,-1,28
 228 437 228 437 239.5 412.5 c 128,-1,29
 251 388 251 388 257.5 348.5 c 0,30,31
 266 296.846153846 266 296.846153846 266 201.923076923 c 128,-1,32
 266 107 266 107 281 62 c 128,-1,33
 296 17 296 17 350 17 c 0,34,35
 440 17 440 17 497.5 101.5 c 128,-1,36
 555 186 555 186 555 297 c 0,37,38
 555 365 555 365 530.5 409 c 128,-1,39
 506 453 506 453 455 453 c 0,40,41
 420 453 420 453 398 428 c 128,-1,42
 376 403 376 403 376 372 c 128,-1,43
 376 341 376 341 390.5 322.5 c 128,-1,44
 405 304 405 304 427 304 c 0,45,46
 436 304 436 304 449.5 308 c 128,-1,47
 463 312 463 312 465 312 c 0,48,49
 473 312 473 312 473 303 c 0,50,51
 473 286 473 286 441.5 284.5 c 2,52,-1
 431 284 l 1,53,54
 395 284 395 284 375.5 308.5 c 128,-1,55
 356 333 356 333 356 375 c 128,-1,56
 356 417 356 417 386 444.5 c 128,-1,57
 416 472 416 472 458 472 c 128,-1,58
 500 472 500 472 524 453 c 128,-1,59
 548 434 548 434 559 398 c 0,60,61
 578 335.818181818 578 335.818181818 578 239 c 2,62,-1
 578 -80 l 2,63,64
 578 -161 578 -161 517 -205.5 c 128,-1,65
 456 -250 456 -250 372 -250 c 128,-1,66
 288 -250 288 -250 230.5 -211.5 c 128,-1,67
 173 -173 173 -173 173 -106 c 0,68,69
 173 -69 173 -69 185 -53 c 0,70,71
 189 -47 189 -47 197 -47 c 128,-1,72
 205 -47 205 -47 205 -57 c 0,73,74
 205 -60 205 -60 199 -72 c 128,-1,75
 193 -84 193 -84 193 -105 c 0,76,77
 193 -156 193 -156 240 -192.5 c 128,-1,78
 287 -229 287 -229 344 -229 c 128,-1,79
 401 -229 401 -229 439.5 -185 c 128,-1,80
 478 -141 478 -141 478 -82 c 2,81,-1
 478 39 l 1,82,83
 424 -3 424 -3 343 -3 c 0,0,1
EndSplineSet
EndChar

StartChar: z
Encoding: 122 122 30
Width: 484
Flags: HMW
HStem: 0 22<142 346> 153 20<373 404.5> 290 20<90.5 122> 441 22<114.5 438 149 307>
VStem: 35 22<355.5 388.5 355.5 389.5> 35 141<330 389.5> 319 141<73.5 133> 438 22<74.5 107.5>
LayerCount: 2
Fore
SplineSet
27 0 m 2,0,1
 20 0 20 0 20 7 c 0,2,3
 20 14 20 14 29 23 c 1,4,-1
 307 441 l 1,5,-1
 148 441 l 2,6,7
 101 441 101 441 79 421 c 128,-1,8
 57 401 57 401 57 373 c 0,9,10
 57 345 57 345 70 327.5 c 128,-1,11
 83 310 83 310 106.5 310 c 0,12,13
 130 310 130 310 141 321 c 128,-1,14
 152 332 152 332 158 342.5 c 128,-1,15
 164 353 164 353 170 353 c 128,-1,16
 176 353 176 353 176 338 c 0,17,18
 176 323 176 323 153.5 306.5 c 128,-1,19
 131 290 131 290 101 290 c 0,20,21
 71 290 71 290 53 313 c 128,-1,22
 35 336 35 336 35 370.5 c 0,23,24
 35 405 35 405 64.5 434 c 128,-1,25
 94 463 94 463 149 463 c 2,26,-1
 438 463 l 2,27,28
 446 463 446 463 446 459 c 0,29,30
 446 455 446 455 436 440 c 2,31,-1
 142 22 l 1,32,-1
 347 22 l 2,33,34
 394 22 394 22 416 42 c 128,-1,35
 438 62 438 62 438 90 c 0,36,37
 438 118 438 118 425 135.5 c 128,-1,38
 412 153 412 153 388.5 153 c 0,39,40
 365 153 365 153 354 142.5 c 128,-1,41
 343 132 343 132 337 121 c 128,-1,42
 331 110 331 110 325 110 c 128,-1,43
 319 110 319 110 319 125 c 0,44,45
 319 140 319 140 341.5 156.5 c 128,-1,46
 364 173 364 173 394 173 c 0,47,48
 424 173 424 173 442 150 c 128,-1,49
 460 127 460 127 460 92.5 c 0,50,51
 460 58 460 58 430.5 29 c 128,-1,52
 401 0 401 0 346 0 c 2,53,-1
 27 0 l 2,0,1
EndSplineSet
EndChar

StartChar: A
Encoding: 65 65 31
Width: 762
Flags: HMW
HStem: -11 49 -8 21G<628.5 662> 681 20G<408.5 414>
VStem: -40 20<101 157.5 98.5 168>
LayerCount: 2
Fore
SplineSet
205 115 m 2,0,-1
 391 657 l 2,1,2
 407 701 407 701 411 701 c 0,3,4
 419 701 419 701 439 646 c 2,5,-1
 656 70 l 2,6,7
 667 38 667 38 706 38 c 0,8,9
 728.615384615 38 728.615384615 38 740 56.5 c 0,10,11
 744 63 744 63 748 70.5 c 128,-1,12
 752 78 752 78 754 78 c 0,13,14
 763 78 763 78 763 66 c 128,-1,15
 763 54 763 54 732 23 c 128,-1,16
 701 -8 701 -8 646 -8 c 0,17,18
 577 -8 577 -8 554 53 c 2,19,-1
 493 216 l 1,20,-1
 260 216 l 1,21,-1
 219 97 l 2,22,23
 198 36 198 36 167.5 12.5 c 128,-1,24
 137 -11 137 -11 92 -11 c 0,25,26
 32 -11 32 -11 -4 34 c 128,-1,27
 -40 79 -40 79 -40 131.5 c 128,-1,28
 -40 184 -40 184 -13.5 216 c 128,-1,29
 13 248 13 248 55 248 c 0,30,31
 75 248 75 248 97 236 c 0,32,33
 130 218 130 218 130 198 c 0,34,35
 130 190 130 190 125.5 190 c 128,-1,36
 121 190 121 190 111 200 c 0,37,38
 82 229 82 229 50 229 c 128,-1,39
 18 229 18 229 -1 201 c 128,-1,40
 -20 173 -20 173 -20 127.5 c 128,-1,41
 -20 82 -20 82 14 45 c 128,-1,42
 48 8 48 8 91 8 c 128,-1,43
 134 8 134 8 158.5 30.5 c 128,-1,44
 183 53 183 53 205 115 c 2,0,-1
372 542 m 1,45,-1
 266 235 l 1,46,-1
 486 235 l 1,47,-1
 372 542 l 1,45,-1
EndSplineSet
EndChar

StartChar: I
Encoding: 73 73 32
Width: 357
Flags: HMW
HStem: 0 21G<162 262 162 162> 524 20<28.5 60> 676 20<52.5 262 87 162>
VStem: -27 20<588.5 622.5 588.5 623.5> -27 141<564 623.5> 162 100<0 676 676 676>
LayerCount: 2
Fore
SplineSet
262 0 m 1,0,-1
 162 0 l 1,1,-1
 162 676 l 1,2,-1
 86 676 l 2,3,4
 39 676 39 676 16 655.5 c 128,-1,5
 -7 635 -7 635 -7 607 c 0,6,7
 -7 579 -7 579 7 561.5 c 128,-1,8
 21 544 21 544 44.5 544 c 0,9,10
 68 544 68 544 79 555 c 128,-1,11
 90 566 90 566 96 576.5 c 128,-1,12
 102 587 102 587 108 587 c 128,-1,13
 114 587 114 587 114 572 c 0,14,15
 114 557 114 557 91.5 540.5 c 128,-1,16
 69 524 69 524 39 524 c 0,17,18
 9 524 9 524 -9 547 c 128,-1,19
 -27 570 -27 570 -27 604.5 c 0,20,21
 -27 639 -27 639 2.5 667.5 c 128,-1,22
 32 696 32 696 87 696 c 2,23,-1
 262 696 l 1,24,-1
 262 0 l 1,0,-1
EndSplineSet
EndChar

StartChar: J
Encoding: 74 74 33
Width: 444
Flags: HMW
HStem: -250 246<16.5 175.5> -231 21G<90 135> -44 21G<68.5 76> -24 20<16.5 44 16.5 51> 524 20<115.5 147> 676 20<139.5 349 174 249>
VStem: -44 124<-132 -26> 60 141<564 623.5> 249 100<-42 -16 -16 676 676 676>
LayerCount: 2
Fore
SplineSet
249 -42 m 2,0,-1
 249 676 l 1,1,-1
 173 676 l 2,2,3
 126 676 126 676 103 655.5 c 128,-1,4
 80 635 80 635 80 607 c 128,-1,5
 80 579 80 579 94 561.5 c 128,-1,6
 108 544 108 544 131.5 544 c 128,-1,7
 155 544 155 544 166 555 c 128,-1,8
 177 566 177 566 183 576.5 c 128,-1,9
 189 587 189 587 195 587 c 128,-1,10
 201 587 201 587 201 572 c 128,-1,11
 201 557 201 557 178.5 540.5 c 128,-1,12
 156 524 156 524 126 524 c 128,-1,13
 96 524 96 524 78 547 c 128,-1,14
 60 570 60 570 60 604.5 c 128,-1,15
 60 639 60 639 89.5 667.5 c 128,-1,16
 119 696 119 696 174 696 c 2,17,-1
 349 696 l 1,18,-1
 349 -16 l 2,19,20
 349 -77 349 -77 328 -124 c 128,-1,21
 307 -171 307 -171 273 -197.5 c 0,22,23
 205.641509434 -250 205.641509434 -250 131.320754717 -250 c 128,-1,24
 57 -250 57 -250 6.5 -202 c 128,-1,25
 -44 -154 -44 -154 -44 -95 c 0,26,27
 -44 -55 -44 -55 -19.5 -29.5 c 128,-1,28
 5 -4 5 -4 28 -4 c 128,-1,29
 51 -4 51 -4 65.5 -13 c 128,-1,30
 80 -22 80 -22 80 -33 c 128,-1,31
 80 -44 80 -44 75.5 -44 c 128,-1,32
 71 -44 71 -44 62.5 -34 c 128,-1,33
 54 -24 54 -24 29.5 -24 c 128,-1,34
 5 -24 5 -24 -10.5 -45.5 c 128,-1,35
 -26 -67 -26 -67 -26 -97 c 0,36,37
 -26 -152 -26 -152 23 -191.5 c 128,-1,38
 72 -231 72 -231 113 -231 c 0,39,40
 133 -231 133 -231 145 -230 c 128,-1,41
 157 -229 157 -229 179 -219 c 128,-1,42
 201 -209 201 -209 214.5 -190.5 c 128,-1,43
 228 -172 228 -172 238.5 -134 c 128,-1,44
 249 -96 249 -96 249 -42 c 2,0,-1
EndSplineSet
EndChar

StartChar: X
Encoding: 88 88 34
Width: 779
Flags: HMW
HStem: -3 40 0 21G<579.5 636> 183 20<667 692.5> 493 20<79.5 105> 659 37<84 192.5>
VStem: 26 20<570.5 604 570.5 627.5> 726 20<92 125.5>
LayerCount: 2
Fore
SplineSet
410 396 m 1,0,-1
 537 581 l 1,1,2
 577 632 577 632 627.5 664 c 128,-1,3
 678 696 678 696 731 696 c 0,4,5
 742 696 742 696 746 693.5 c 128,-1,6
 750 691 750 691 750 684 c 0,7,8
 750 669 750 669 738 669 c 0,9,10
 666.354166667 669 666.354166667 669 612.5 622 c 0,11,12
 585 598 585 598 556 560 c 1,13,-1
 427 371 l 1,14,-1
 559 168 l 1,15,16
 588.306122449 116.714285714 588.306122449 116.714285714 613.653061224 83.8571428571 c 128,-1,17
 639 51 639 51 650.5 44 c 128,-1,18
 662 37 662 37 673 37 c 0,19,20
 696 37 696 37 711 59 c 128,-1,21
 726 81 726 81 726 110 c 128,-1,22
 726 139 726 139 713 161 c 128,-1,23
 700 183 700 183 668 183 c 0,24,25
 653 183 653 183 640 176 c 128,-1,26
 627 169 627 169 626 169 c 0,27,28
 619 169 619 169 619 180.5 c 128,-1,29
 619 192 619 192 638.5 197.5 c 128,-1,30
 658 203 658 203 674 203 c 0,31,32
 706 203 706 203 726 176 c 128,-1,33
 746 149 746 149 746 114 c 0,34,35
 746 52 746 52 704 26 c 128,-1,36
 662 0 662 0 604 0 c 0,37,38
 571 0 571 0 545.5 25.5 c 128,-1,39
 520 51 520 51 492 94 c 2,40,-1
 369 287 l 1,41,-1
 251 115 l 1,42,43
 160 -3 160 -3 59 -3 c 0,44,45
 46 -3 46 -3 42 -0.5 c 128,-1,46
 38 2 38 2 38 10 c 0,47,48
 38 24 38 24 54 24.5 c 128,-1,49
 70 25 70 25 83.5 27 c 128,-1,50
 97 29 97 29 121.5 38.5 c 0,51,52
 169.513931889 57.1176470588 169.513931889 57.1176470588 231 135 c 1,53,-1
 353 312 l 1,54,-1
 213 528 l 1,55,56
 183.693877551 579.285714286 183.693877551 579.285714286 158.346938776 612.142857143 c 128,-1,57
 133 645 133 645 121.5 652 c 128,-1,58
 110 659 110 659 99 659 c 0,59,60
 76 659 76 659 61 637 c 128,-1,61
 46 615 46 615 46 586 c 128,-1,62
 46 557 46 557 59 535 c 128,-1,63
 72 513 72 513 104 513 c 0,64,65
 119 513 119 513 132 520 c 128,-1,66
 145 527 145 527 146 527 c 0,67,68
 153 527 153 527 153 515.5 c 128,-1,69
 153 504 153 504 133.5 498.5 c 128,-1,70
 114 493 114 493 98 493 c 0,71,72
 66 493 66 493 46 520 c 128,-1,73
 26 547 26 547 26 582 c 0,74,75
 26 644 26 644 68 670 c 128,-1,76
 110 696 110 696 168 696 c 0,77,78
 201 696 201 696 226.5 670.5 c 128,-1,79
 252 645 252 645 280 602 c 2,80,-1
 410 396 l 1,0,-1
EndSplineSet
EndChar

StartChar: K
Encoding: 75 75 35
Width: 747
Flags: HMW
HStem: -10 23<588.5 659> 0 21G<162 262 162 162> 524 20<28.5 60> 676 20<52.5 262 87 162>
VStem: -27 20<588.5 622.5 588.5 623.5> -27 141<564 623.5> 162 100<0 257 0 289 289 676 676 676>
LayerCount: 2
Fore
SplineSet
618 -10 m 0,0,1
 563 -10 563 -10 529 26 c 128,-1,2
 495 62 495 62 479.5 114.5 c 128,-1,3
 464 167 464 167 451 220.5 c 0,4,5
 419.165048544 351.513069455 419.165048544 351.513069455 351 362 c 1,6,-1
 262 257 l 1,7,-1
 262 0 l 1,8,-1
 162 0 l 1,9,-1
 162 676 l 1,10,-1
 86 676 l 2,11,12
 39 676 39 676 16 655.5 c 128,-1,13
 -7 635 -7 635 -7 607 c 128,-1,14
 -7 579 -7 579 7 561.5 c 128,-1,15
 21 544 21 544 44.5 544 c 128,-1,16
 68 544 68 544 79 555 c 128,-1,17
 90 566 90 566 96 576.5 c 128,-1,18
 102 587 102 587 108 587 c 128,-1,19
 114 587 114 587 114 572 c 128,-1,20
 114 557 114 557 91.5 540.5 c 128,-1,21
 69 524 69 524 39 524 c 128,-1,22
 9 524 9 524 -9 547 c 128,-1,23
 -27 570 -27 570 -27 604.5 c 128,-1,24
 -27 639 -27 639 2.5 667.5 c 128,-1,25
 32 696 32 696 87 696 c 2,26,-1
 262 696 l 1,27,-1
 262 289 l 1,28,-1
 512 581 l 2,29,30
 610 696 610 696 706 696 c 0,31,32
 725 696 725 696 725 687 c 0,33,34
 725 675 725 675 713 675 c 0,35,36
 687 675 687 675 666 670.5 c 128,-1,37
 645 666 645 666 606 640 c 128,-1,38
 567 614 567 614 526 566 c 2,39,-1
 366 379 l 1,40,41
 386 381 386 381 396 381 c 0,42,43
 447 381 447 381 482.5 353.5 c 128,-1,44
 518 326 518 326 533 285.5 c 128,-1,45
 548 245 548 245 560 197 c 128,-1,46
 572 149 572 149 579 108.5 c 0,47,48
 595.50617284 13 595.50617284 13 646 13 c 0,49,50
 667 13 667 13 685 25.5 c 128,-1,51
 703 38 703 38 713 51 c 128,-1,52
 723 64 723 64 727 64 c 128,-1,53
 731 64 731 64 731 59.5 c 128,-1,54
 731 55 731 55 728 49 c 0,55,56
 698 -10 698 -10 618 -10 c 0,0,1
EndSplineSet
EndChar

StartChar: L
Encoding: 76 76 36
Width: 530
Flags: HMW
HStem: -236 20<389.5 456 389.5 476.5> -116 21G<435.5 444> -89 20<472 493> 37 20<119.5 141> 524 20<72.5 104> 676 20<96.5 306 131 207>
VStem: 17 20<589.5 622.5 589.5 623.5> 17 141<564 623.5> 207 99<35 676 676 676> 431 112<-159 -95.5> 523 20<-159 -129.5>
LayerCount: 2
Fore
SplineSet
433 -216 m 0,0,1
 469 -216 469 -216 496 -194.5 c 128,-1,2
 523 -173 523 -173 523 -147 c 0,3,4
 523 -89 523 -89 475 -89 c 0,5,6
 452.181818182 -89 452.181818182 -89 448.5 -102.5 c 128,-1,7
 444.818181818 -116 444.818181818 -116 438 -116 c 128,-1,8
 431 -116 431 -116 431 -103.5 c 128,-1,9
 431 -91 431 -91 448 -80 c 128,-1,10
 465 -69 465 -69 486.5 -69 c 128,-1,11
 508 -69 508 -69 525.5 -89 c 128,-1,12
 543 -109 543 -109 543 -142.5 c 128,-1,13
 543 -176 543 -176 517 -206 c 128,-1,14
 491 -236 491 -236 440.5 -236 c 128,-1,15
 390 -236 390 -236 354.5 -209.5 c 128,-1,16
 319 -183 319 -183 301 -149.5 c 128,-1,17
 283 -116 283 -116 257 -71 c 128,-1,18
 231 -26 231 -26 209 -2 c 128,-1,19
 187 22 187 22 168.5 28.5 c 128,-1,20
 150 35 150 35 127 36.5 c 128,-1,21
 104 38 104 38 104 46 c 0,22,23
 104 57 104 57 133.5 57 c 128,-1,24
 163 57 163 57 207 35 c 1,25,-1
 207 676 l 1,26,-1
 130 676 l 2,27,28
 83 676 83 676 60 655.5 c 128,-1,29
 37 635 37 635 37 607.5 c 128,-1,30
 37 580 37 580 51 562 c 128,-1,31
 65 544 65 544 88.5 544 c 128,-1,32
 112 544 112 544 123 555 c 128,-1,33
 134 566 134 566 140 576.5 c 128,-1,34
 146 587 146 587 152 587 c 128,-1,35
 158 587 158 587 158 572 c 128,-1,36
 158 557 158 557 135.5 540.5 c 128,-1,37
 113 524 113 524 83 524 c 128,-1,38
 53 524 53 524 35 547 c 128,-1,39
 17 570 17 570 17 604.5 c 128,-1,40
 17 639 17 639 46.5 667.5 c 128,-1,41
 76 696 76 696 131 696 c 2,42,-1
 306 696 l 1,43,-1
 306 -25 l 2,44,45
 306 -97 306 -97 339.5 -156.5 c 128,-1,46
 373 -216 373 -216 433 -216 c 0,0,1
EndSplineSet
EndChar

StartChar: M
Encoding: 77 77 37
Width: 890
Flags: HMW
HStem: -108 20<826.5 858.5> -71 21G<885 892> -9 21G<487 493> -6 232<34 159> 206 20<34 54.5 34 63> 524 20<126.5 158> 676 20<150.5 379 185 263>
VStem: -33 124<89 204.5> 71 141<564 623.5> 263 20<198 224 224 659> 696 101<1 663 663 663>
LayerCount: 2
Fore
SplineSet
683 694 m 1,0,-1
 797 694 l 1,1,-1
 797 -40 l 2,2,3
 797 -88 797 -88 847 -88 c 0,4,5
 867 -88 867 -88 877.5 -79.5 c 128,-1,6
 888 -71 888 -71 889 -71 c 0,7,8
 896 -71 896 -71 896 -78.5 c 128,-1,9
 896 -86 896 -86 891 -92 c 0,10,11
 877.666666667 -108 877.666666667 -108 829.333333333 -108 c 128,-1,12
 781 -108 781 -108 738.5 -79.5 c 128,-1,13
 696 -51 696 -51 696 1 c 2,14,-1
 696 663 l 1,15,-1
 501 2 l 1,16,17
 499 -9 499 -9 490.5 -9 c 128,-1,18
 482 -9 482 -9 478 4 c 2,19,-1
 283 659 l 1,20,-1
 283 224 l 2,21,22
 283 111 283 111 234.5 52.5 c 128,-1,23
 186 -6 186 -6 121 -6 c 128,-1,24
 56 -6 56 -6 11.5 32 c 128,-1,25
 -33 70 -33 70 -33 125.5 c 128,-1,26
 -33 181 -33 181 -6.5 203.5 c 128,-1,27
 20 226 20 226 40.5 226 c 128,-1,28
 61 226 61 226 76 217 c 128,-1,29
 91 208 91 208 91 197 c 128,-1,30
 91 186 91 186 86 186 c 128,-1,31
 81 186 81 186 78.5 189 c 128,-1,32
 76 192 76 192 73.5 196 c 0,33,34
 67.25 206 67.25 206 41.625 206 c 128,-1,35
 16 206 16 206 1 184.5 c 128,-1,36
 -14 163 -14 163 -14 130 c 0,37,38
 -14 76 -14 76 25.5 44.5 c 128,-1,39
 65 13 65 13 119 13 c 128,-1,40
 173 13 173 13 218 63 c 128,-1,41
 263 113 263 113 263 198 c 2,42,-1
 263 676 l 1,43,-1
 184 676 l 2,44,45
 137 676 137 676 114 655.5 c 128,-1,46
 91 635 91 635 91 607.5 c 128,-1,47
 91 580 91 580 105 562 c 128,-1,48
 119 544 119 544 142.5 544 c 128,-1,49
 166 544 166 544 177 555 c 128,-1,50
 188 566 188 566 194 576.5 c 128,-1,51
 200 587 200 587 206 587 c 128,-1,52
 212 587 212 587 212 572 c 128,-1,53
 212 557 212 557 189.5 540.5 c 128,-1,54
 167 524 167 524 137 524 c 128,-1,55
 107 524 107 524 89 547 c 128,-1,56
 71 570 71 570 71 604.5 c 128,-1,57
 71 639 71 639 100.5 667.5 c 128,-1,58
 130 696 130 696 185 696 c 2,59,-1
 379 696 l 1,60,-1
 531 177 l 1,61,-1
 683 694 l 1,0,-1
EndSplineSet
EndChar

StartChar: B
Encoding: 66 66 38
Width: 705
Flags: HMW
HStem: -10 20<378 477> 0 21G<162 263 162 162> 210 20<329 359.5 329 361> 389 26<408 500.5> 524 172<18 346>
VStem: -27 20<586 622.5 586 623.5> 162 101<0 123 0 154 154 319 343 678> 162 120<121.5 153.5 121.5 678> 474 100<538 613> 564 101<171.5 273.5>
LayerCount: 2
Fore
SplineSet
314.5 26.5 m 128,-1,1
 273 63 273 63 263 123 c 1,2,-1
 263 0 l 1,3,-1
 162 0 l 1,4,-1
 162 678 l 1,5,-1
 86 678 l 2,6,7
 39 678 39 678 16 656.5 c 128,-1,8
 -7 635 -7 635 -7 606 c 128,-1,9
 -7 577 -7 577 7.5 560 c 128,-1,10
 22 543 22 543 43 543 c 128,-1,11
 64 543 64 543 77 554 c 128,-1,12
 90 565 90 565 97 576 c 128,-1,13
 104 587 104 587 109 587 c 128,-1,14
 114 587 114 587 114 574.5 c 128,-1,15
 114 562 114 562 92.5 543 c 128,-1,16
 71 524 71 524 40 524 c 128,-1,17
 9 524 9 524 -9 547 c 128,-1,18
 -27 570 -27 570 -27 604.5 c 128,-1,19
 -27 639 -27 639 2.5 667.5 c 128,-1,20
 32 696 32 696 87 696 c 2,21,-1
 346 696 l 2,22,23
 473.137931034 696 473.137931034 696 526 659.5 c 0,24,25
 574 626.357142857 574 626.357142857 574 562.678571429 c 128,-1,26
 574 499 574 499 542.5 467 c 128,-1,27
 511 435 511 435 460 415 c 1,28,29
 528.977272727 415 528.977272727 415 592.5 372 c 0,30,31
 625 350 625 350 645 308 c 128,-1,32
 665 266 665 266 665 209 c 128,-1,33
 665 152 665 152 642 107 c 128,-1,34
 619 62 619 62 582.5 37.5 c 0,35,36
 511.734693878 -10 511.734693878 -10 433.867346939 -10 c 128,-1,0
 356 -10 356 -10 314.5 26.5 c 128,-1,1
297 188 m 128,-1,38
 282 166 282 166 282 142 c 128,-1,39
 282 118 282 118 294 89.5 c 128,-1,40
 306 61 306 61 339 35.5 c 128,-1,41
 372 10 372 10 416 10 c 128,-1,42
 460 10 460 10 490.5 30 c 128,-1,43
 521 50 521 50 536 82 c 0,44,45
 564 141.733333333 564 141.733333333 564 219.366666667 c 128,-1,46
 564 297 564 297 520 343 c 128,-1,47
 476 389 476 389 428 389 c 128,-1,48
 380 389 380 389 263 319 c 1,49,-1
 263 154 l 1,50,51
 267 191 267 191 292 210.5 c 128,-1,52
 317 230 317 230 341.5 230 c 128,-1,53
 366 230 366 230 386 221 c 128,-1,54
 406 212 406 212 406 203 c 0,55,56
 406 199 406 199 402.5 195.5 c 128,-1,57
 399 192 399 192 396.5 192 c 128,-1,58
 394 192 394 192 379 201 c 128,-1,59
 364 210 364 210 338 210 c 128,-1,37
 312 210 312 210 297 188 c 128,-1,38
263 343 m 1,60,-1
 386 408 l 2,61,62
 474 455 474 455 474 557 c 0,63,64
 474 637.302325581 474 637.302325581 432.5 659.5 c 0,65,66
 397.913043478 678 397.913043478 678 336 678 c 2,67,-1
 263 678 l 1,68,-1
 263 343 l 1,60,-1
EndSplineSet
EndChar

StartChar: R
Encoding: 82 82 39
Width: 687
Flags: HMW
HStem: -111 20<638.5 667.5> -84 21G<686.5 693> 0 21G<162 262 162 162> 320 224 524 20<28.5 60> 676 20<52.5 349 87 162 262 262 262 349 349 363>
VStem: -27 20<589.5 622.5 589.5 623.5> -27 141<564 623.5> 162 100<0 429 0 447 447 676> 162 119<421 479.5 421 676> 508 101<3 81 81 167> 536 89<444.5 556.5>
LayerCount: 2
Fore
SplineSet
87 696 m 2,0,-1
 349 696 l 2,1,2
 625 696 625 696 625 505 c 0,3,4
 625 422 625 422 578 380 c 128,-1,5
 531 338 531 338 461 326 c 1,6,7
 534 325 534 325 571.5 280 c 128,-1,8
 609 235 609 235 609 167 c 2,9,-1
 609 -43 l 2,10,11
 609 -91 609 -91 658 -91 c 0,12,13
 670 -91 670 -91 679 -87.5 c 128,-1,14
 688 -84 688 -84 690 -84 c 0,15,16
 698 -84 698 -84 698 -93 c 0,17,18
 698 -111 698 -111 645 -111 c 128,-1,19
 592 -111 592 -111 550 -81 c 128,-1,20
 508 -51 508 -51 508 3 c 2,21,-1
 508 81 l 2,22,23
 508 229.555555556 508 229.555555556 485 273 c 0,24,25
 476 290 476 290 469 299 c 128,-1,26
 462 308 462 308 447 313 c 128,-1,27
 431.823529412 318.058823529 431.823529412 318.058823529 393 320 c 0,28,29
 268 325 268 325 262 429 c 1,30,-1
 262 0 l 1,31,-1
 162 0 l 1,32,-1
 162 676 l 1,33,-1
 86 676 l 2,34,35
 39 676 39 676 16 655.5 c 128,-1,36
 -7 635 -7 635 -7 607.5 c 128,-1,37
 -7 580 -7 580 7 562 c 128,-1,38
 21 544 21 544 44.5 544 c 128,-1,39
 68 544 68 544 79 555 c 128,-1,40
 90 566 90 566 96 576.5 c 128,-1,41
 102 587 102 587 108 587 c 128,-1,42
 114 587 114 587 114 572 c 128,-1,43
 114 557 114 557 91.5 540.5 c 128,-1,44
 69 524 69 524 39 524 c 128,-1,45
 9 524 9 524 -9 547 c 128,-1,46
 -27 570 -27 570 -27 604.5 c 128,-1,47
 -27 639 -27 639 2.5 667.5 c 128,-1,48
 32 696 32 696 87 696 c 2,0,-1
291.5 526 m 128,-1,50
 320 550 320 550 347 550 c 128,-1,51
 374 550 374 550 393.5 541 c 128,-1,52
 413 532 413 532 413 523 c 0,53,54
 413 519 413 519 409.5 515.5 c 128,-1,55
 406 512 406 512 403.5 512 c 128,-1,56
 401 512 401 512 386 521 c 128,-1,57
 371 530 371 530 347 530 c 128,-1,58
 323 530 323 530 302 510.5 c 128,-1,59
 281 491 281 491 281 446.5 c 128,-1,60
 281 402 281 402 312 370.5 c 128,-1,61
 343 339 343 339 406 339 c 128,-1,62
 469 339 469 339 502.5 372 c 128,-1,63
 536 405 536 405 536 496.5 c 128,-1,64
 536 588 536 588 494 632 c 128,-1,65
 452 676 452 676 363 676 c 2,66,-1
 262 676 l 1,67,-1
 262 447 l 1,68,49
 263 502 263 502 291.5 526 c 128,-1,50
EndSplineSet
EndChar

StartChar: C
Encoding: 67 67 40
Width: 585
Flags: HMW
HStem: -10 20<288 402 288 405> 430 130<403 476> 684 21<292.5 385.5 245.5 398>
VStem: 48 100<270.5 427 261.5 429> 374 177<497 513> 531 20<503 578.5>
LayerCount: 2
Fore
SplineSet
515 89 m 1,0,-1
 535 90 l 1,1,2
 514 46 514 46 469 18 c 128,-1,3
 424 -10 424 -10 352 -10 c 128,-1,4
 280 -10 280 -10 217 23.5 c 128,-1,5
 154 57 154 57 118.5 111.5 c 0,6,7
 48 219.732394366 48 219.732394366 48 347 c 0,8,9
 48 432 48 432 81 512.5 c 128,-1,10
 114 593 114 593 182 649 c 128,-1,11
 250 705 250 705 338 705 c 0,12,13
 454.1 705 454.1 705 517 631 c 0,14,15
 551 591 551 591 551 537 c 128,-1,16
 551 483 551 483 521.5 456.5 c 128,-1,17
 492 430 492 430 459 430 c 128,-1,18
 426 430 426 430 400 448.5 c 128,-1,19
 374 467 374 467 374 501 c 0,20,21
 374 520 374 520 386 540 c 128,-1,22
 398 560 398 560 410 560 c 128,-1,23
 422 560 422 560 422 552 c 0,24,25
 422 551 422 551 407.5 537 c 128,-1,26
 393 523 393 523 393 501.5 c 128,-1,27
 393 480 393 480 412 464.5 c 128,-1,28
 431 449 431 449 458.5 449 c 128,-1,29
 486 449 486 449 508.5 470.5 c 128,-1,30
 531 492 531 492 531 531 c 0,31,32
 531 598 531 598 476.5 641 c 128,-1,33
 422 684 422 684 359 684 c 128,-1,34
 296 684 296 684 246 631.5 c 128,-1,35
 196 579 196 579 172 504.5 c 128,-1,36
 148 430 148 430 148 355 c 128,-1,37
 148 280 148 280 159.5 221.5 c 128,-1,38
 171 163 171 163 196 114 c 128,-1,39
 221 65 221 65 266.5 37.5 c 128,-1,40
 312 10 312 10 364 10 c 128,-1,41
 416 10 416 10 458 33.5 c 128,-1,42
 500 57 500 57 515 89 c 1,0,-1
EndSplineSet
EndChar

StartChar: at
Encoding: 64 64 41
Width: 770
Flags: HMW
HStem: -37 42<279 416.5> -37 110 -37 167<334 394 334 416.5> 120 50<493 604.5> 407 187<344 391> 546 48<321 490.5 306 496>
VStem: 51 52<205.5 337.5 205.5 352.5> 178 100<230.5 296.5 230.5 324.5> 474 109<184.5 210> 493 90<170 197 197 197 228 367 367 367 392 420 170 420> 679 56<256 358>
LayerCount: 2
Fore
SplineSet
493 120 m 1,0,-1
 493 197 l 1,1,2
 487 156 487 156 450 133 c 128,-1,3
 413 110 413 110 351 110 c 128,-1,4
 289 110 289 110 233.5 151 c 128,-1,5
 178 192 178 192 178 264 c 0,6,7
 178 358.666666667 178 358.666666667 277 404.5 c 0,8,9
 325.6 427 325.6 427 375.3 427 c 128,-1,10
 425 427 425 427 493 392 c 1,11,-1
 493 420 l 1,12,-1
 583 420 l 1,13,-1
 583 170 l 1,14,15
 620 170 620 170 649.5 203.5 c 128,-1,16
 679 237 679 237 679 298 c 0,17,18
 679 395 679 395 605.5 470.5 c 128,-1,19
 532 546 532 546 406 546 c 128,-1,20
 280 546 280 546 191.5 461.5 c 128,-1,21
 103 377 103 377 103 266 c 0,22,23
 103 203 103 203 132 144.5 c 128,-1,24
 161 86 161 86 222 45.5 c 128,-1,25
 283 5 283 5 364 5 c 0,26,27
 416 5 416 5 459.5 22 c 128,-1,28
 503 39 503 39 527 56 c 128,-1,29
 551 73 551 73 558.5 73 c 128,-1,30
 566 73 566 73 570.5 62 c 128,-1,31
 575 51 575 51 575 43 c 0,32,33
 575 17 575 17 507.5 -10 c 128,-1,34
 440 -37 440 -37 362 -37 c 0,35,36
 223 -37 223 -37 137 52.5 c 128,-1,37
 51 142 51 142 51 270 c 128,-1,38
 51 398 51 398 154.5 496 c 128,-1,39
 258 594 258 594 397.5 594 c 128,-1,40
 537 594 537 594 636 510 c 128,-1,41
 735 426 735 426 735 302 c 0,42,43
 735 225 735 225 693 172.5 c 128,-1,44
 651 120 651 120 563 120 c 2,45,-1
 493 120 l 1,0,-1
449 297 m 0,46,47
 485 272 485 272 493 228 c 1,48,-1
 493 367 l 1,49,50
 423 407 423 407 376.5 407 c 128,-1,51
 330 407 330 407 304 363 c 128,-1,52
 278 319 278 319 278 263 c 128,-1,53
 278 207 278 207 299.5 168.5 c 128,-1,54
 321 130 321 130 364.5 130 c 128,-1,55
 408 130 408 130 441 152.5 c 128,-1,56
 474 175 474 175 474 206 c 0,57,58
 474 250 474 250 448 272 c 1,59,-1
 437.5 279 l 2,60,61
 423 288.666666667 423 288.666666667 423 296.833333333 c 128,-1,62
 423 305 423 305 430 305 c 128,-1,63
 437 305 437 305 449 297 c 0,46,47
EndSplineSet
EndChar

StartChar: D
Encoding: 68 68 42
Width: 725
Flags: HMW
HStem: -9 20<391 496 382 510.5> 200 20<327.5 359.5 327.5 360> 524 172<18 361>
VStem: -27 20<588.5 622.5 588.5 623.5> -27 141<564 623.5> 162 100<0 0 0 114 143 676> 162 119<100.5 142.5 100.5 677> 574 100<291.5 402.5>
LayerCount: 2
Fore
SplineSet
262 0 m 1,0,-1
 162 -1 l 1,1,-1
 162 677 l 1,2,-1
 86 677 l 2,3,4
 39 677 39 677 16 656 c 128,-1,5
 -7 635 -7 635 -7 606.5 c 128,-1,6
 -7 578 -7 578 6 560.5 c 128,-1,7
 19 543 19 543 42.5 543 c 128,-1,8
 66 543 66 543 78.5 554 c 128,-1,9
 91 565 91 565 96.5 576 c 128,-1,10
 102 587 102 587 108 587 c 128,-1,11
 114 587 114 587 114 572 c 128,-1,12
 114 557 114 557 91.5 540.5 c 128,-1,13
 69 524 69 524 39 524 c 128,-1,14
 9 524 9 524 -9 547 c 128,-1,15
 -27 570 -27 570 -27 604.5 c 128,-1,16
 -27 639 -27 639 2.5 667.5 c 128,-1,17
 32 696 32 696 87 696 c 2,18,-1
 361 696 l 2,19,20
 457 696 457 696 529.5 644.5 c 128,-1,21
 602 593 602 593 638 510.5 c 128,-1,22
 674 428 674 428 674 328 c 0,23,24
 674 192 674 192 608.5 91.5 c 128,-1,25
 543 -9 543 -9 435 -9 c 0,26,27
 367 -9 367 -9 318 24 c 128,-1,28
 269 57 269 57 262 114 c 1,29,-1
 262 0 l 1,0,-1
572 265.5 m 128,-1,31
 574 295 574 295 574 340 c 128,-1,32
 574 385 574 385 560 445.5 c 128,-1,33
 546 506 546 506 518.5 559 c 128,-1,34
 491 612 491 612 443.5 644 c 128,-1,35
 396 676 396 676 335 676 c 2,36,-1
 262 676 l 1,37,-1
 262 143 l 1,38,39
 266 181 266 181 290.5 200.5 c 128,-1,40
 315 220 315 220 340.5 220 c 128,-1,41
 366 220 366 220 385.5 211 c 128,-1,42
 405 202 405 202 405 193 c 0,43,44
 405 189 405 189 401.5 185.5 c 128,-1,45
 398 182 398 182 395.5 182 c 128,-1,46
 393 182 393 182 378 191 c 128,-1,47
 363 200 363 200 337 200 c 128,-1,48
 311 200 311 200 296 177.5 c 128,-1,49
 281 155 281 155 281 131 c 0,50,51
 281 83 281 83 321.5 47 c 128,-1,52
 362 11 362 11 427 11 c 0,53,54
 466 11 466 11 495 38.5 c 128,-1,55
 524 66 524 66 538.5 102.5 c 128,-1,56
 553 139 553 139 561.5 187.5 c 128,-1,30
 570 236 570 236 572 265.5 c 128,-1,31
EndSplineSet
EndChar

StartChar: E
Encoding: 69 69 43
Width: 566
Flags: HMW
HStem: -10 21G<246.5 369.5> 282 136<369.5 376 362.5 420.5> 388 30<362.5 369> 388 164<353 432.5> 534 172<280.5 439> 686 20<295.5 347 280.5 374.5>
VStem: 44 100<132.5 245> 91 53 91 99<513.5 589 513.5 591> 348 141<577.5 591.5> 469 20<584 627> 517 20<102 198>
LayerCount: 2
Fore
SplineSet
317 414 m 1,0,-1
 370 418 l 1,1,2
 391 418 391 418 391 405 c 0,3,4
 391 388 391 388 366.5 388 c 128,-1,5
 342 388 342 388 318 394 c 1,6,7
 246 372 246 372 195 321.5 c 128,-1,8
 144 271 144 271 144 189 c 128,-1,9
 144 107 144 107 199 58 c 128,-1,10
 254 9 254 9 327 9 c 0,11,12
 391.393939394 9 391.393939394 9 449.5 41.5 c 0,13,14
 479 58 479 58 498 88 c 128,-1,15
 517 118 517 118 517 157 c 0,16,17
 517 215 517 215 478.5 248.5 c 128,-1,18
 440 282 440 282 397.5 282 c 0,19,20
 305 282 305 282 305 219 c 0,21,22
 305 199 305 199 317.5 188.5 c 128,-1,23
 330 178 330 178 330 176 c 0,24,25
 330 170 330 170 317.5 170 c 128,-1,26
 305 170 305 170 295.5 186 c 128,-1,27
 286 202 286 202 286 225.5 c 128,-1,28
 286 249 286 249 313 274.5 c 128,-1,29
 340 300 340 300 391.5 300 c 128,-1,30
 443 300 443 300 490 263.5 c 128,-1,31
 537 227 537 227 537 152 c 128,-1,32
 537 77 537 77 471.5 33.5 c 128,-1,33
 406 -10 406 -10 310 -10 c 0,34,35
 244 -10 244 -10 184.5 12 c 128,-1,36
 125 34 125 34 84.5 80.5 c 128,-1,37
 44 127 44 127 44 188 c 0,38,39
 44 266 44 266 102 316 c 128,-1,40
 160 366 160 366 256 400 c 1,41,42
 188 405 188 405 139.5 443.5 c 128,-1,43
 91 482 91 482 91 535 c 128,-1,44
 91 588 91 588 132 628 c 128,-1,45
 173 668 173 668 225.5 687 c 128,-1,46
 278 706 278 706 312 706 c 128,-1,47
 346 706 346 706 370 702 c 128,-1,48
 394 698 394 698 423 687.5 c 128,-1,49
 452 677 452 677 470.5 655 c 128,-1,50
 489 633 489 633 489 600.5 c 128,-1,51
 489 568 489 568 469.5 551 c 128,-1,52
 450 534 450 534 421 534 c 128,-1,53
 392 534 392 534 370 550.5 c 128,-1,54
 348 567 348 567 348 582 c 128,-1,55
 348 597 348 597 354 597 c 128,-1,56
 360 597 360 597 364.5 590 c 128,-1,57
 369 583 369 583 373 574.5 c 128,-1,58
 377 566 377 566 389 559 c 128,-1,59
 401 552 401 552 421 552 c 128,-1,60
 441 552 441 552 455 564.5 c 128,-1,61
 469 577 469 577 469 600 c 0,62,63
 469 639 469 639 431.5 662.5 c 128,-1,64
 394 686 394 686 334 686 c 128,-1,65
 274 686 274 686 232 647.5 c 128,-1,66
 190 609 190 609 190 554 c 128,-1,67
 190 499 190 499 225.5 464.5 c 128,-1,68
 261 430 261 430 317 414 c 1,0,-1
EndSplineSet
EndChar

StartChar: O
Encoding: 79 79 44
Width: 697
Flags: HMW
HStem: -10 20<302.5 408.5> 274 20<408.5 461 405 462.5> 416 20<390 410.5> 686 20<260 411.5>
VStem: 48 100<212 421.5> 338 20<352.5 375 352.5 382> 542 106<393.5 423 211.5 513>
LayerCount: 2
Fore
SplineSet
68.5 206 m 128,-1,1
 48 268 48 268 48 335.5 c 128,-1,2
 48 403 48 403 68.5 466 c 128,-1,3
 89 529 89 529 126 583 c 128,-1,4
 163 637 163 637 222.5 671.5 c 128,-1,5
 282 706 282 706 361.5 706 c 128,-1,6
 441 706 441 706 510 650 c 128,-1,7
 579 594 579 594 613.5 509.5 c 128,-1,8
 648 425 648 425 648 335.5 c 128,-1,9
 648 246 648 246 618.5 178 c 128,-1,10
 589 110 589 110 543 70.5 c 0,11,12
 449.253164557 -10 449.253164557 -10 347 -10 c 0,13,14
 266 -10 266 -10 192.5 39 c 0,15,16
 152 66 152 66 120.5 105 c 128,-1,0
 89 144 89 144 68.5 206 c 128,-1,1
433 410 m 1,17,-1
 404 416 l 1,18,19
 384 416 384 416 371 399 c 128,-1,20
 358 382 358 382 358 361.5 c 128,-1,21
 358 341 358 341 376.5 317.5 c 128,-1,22
 395 294 395 294 437 294 c 128,-1,23
 479 294 479 294 510.5 332.5 c 128,-1,24
 542 371 542 371 542 461 c 128,-1,25
 542 551 542 551 491 618.5 c 128,-1,26
 440 686 440 686 344 686 c 0,27,28
 295 686 295 686 259 666.5 c 128,-1,29
 223 647 223 647 202 616 c 128,-1,30
 181 585 181 585 168.5 537 c 0,31,32
 148 458.28 148 458.28 148 331 c 0,33,34
 148 10 148 10 340 10 c 0,35,36
 448 10 448 10 498 88 c 128,-1,37
 548 166 548 166 548 318 c 0,38,39
 548 341 548 341 547 352 c 1,40,41
 538 326 538 326 505.5 300 c 128,-1,42
 473 274 473 274 434 274 c 128,-1,43
 395 274 395 274 366.5 300.5 c 128,-1,44
 338 327 338 327 338 360 c 128,-1,45
 338 393 338 393 356 414.5 c 128,-1,46
 374 436 374 436 407.5 436 c 128,-1,47
 441 436 441 436 441 417 c 0,48,49
 441 410 441 410 433 410 c 1,17,-1
EndSplineSet
EndChar

StartChar: H
Encoding: 72 72 45
Width: 735
Flags: HMW
HStem: -110 20<669.5 701.5> -73 21G<728 735> -10 21<104 151.5 104 194> -10 242<72.5 194> 354 20<309 539 309 539> 524 20<75.5 107> 676 20<99.5 309 134 209>
VStem: 20 20<589.5 622.5 589.5 623.5> 20 141<564 623.5> 209 100<134 170 170 354 374 676 676 676> 539 101<-1 354 354 354 374 696>
LayerCount: 2
Fore
SplineSet
539 696 m 1,0,-1
 640 696 l 1,1,-1
 640 -42 l 2,2,3
 640 -90 640 -90 690 -90 c 0,4,5
 710 -90 710 -90 720.5 -81.5 c 128,-1,6
 731 -73 731 -73 732 -73 c 0,7,8
 739 -73 739 -73 739 -80.5 c 128,-1,9
 739 -88 739 -88 734 -94 c 0,10,11
 720.666666667 -110 720.666666667 -110 672.333333333 -110 c 128,-1,12
 624 -110 624 -110 581.5 -81.5 c 128,-1,13
 539 -53 539 -53 539 -1 c 2,14,-1
 539 354 l 1,15,-1
 309 354 l 1,16,-1
 309 170 l 2,17,18
 309 88 309 88 263.5 39 c 128,-1,19
 218 -10 218 -10 147.5 -10 c 128,-1,20
 77 -10 77 -10 41 35.5 c 128,-1,21
 5 81 5 81 5 134 c 128,-1,22
 5 187 5 187 31.5 209.5 c 128,-1,23
 58 232 58 232 78.5 232 c 128,-1,24
 99 232 99 232 114 223 c 128,-1,25
 129 214 129 214 129 203 c 128,-1,26
 129 192 129 192 124 192 c 128,-1,27
 119 192 119 192 116.5 195.5 c 128,-1,28
 114 199 114 199 111.5 203 c 0,29,30
 104.625 214 104.625 214 79.8125 214 c 128,-1,31
 55 214 55 214 39.5 191.5 c 128,-1,32
 24 169 24 169 24 126.5 c 128,-1,33
 24 84 24 84 57 47.5 c 128,-1,34
 90 11 90 11 127 11 c 128,-1,35
 164 11 164 11 186.5 43.5 c 128,-1,36
 209 76 209 76 209 134 c 2,37,-1
 209 676 l 1,38,-1
 133 676 l 2,39,40
 86 676 86 676 63 655.5 c 128,-1,41
 40 635 40 635 40 607.5 c 128,-1,42
 40 580 40 580 54 562 c 128,-1,43
 68 544 68 544 91.5 544 c 128,-1,44
 115 544 115 544 126 555 c 128,-1,45
 137 566 137 566 143 576.5 c 128,-1,46
 149 587 149 587 155 587 c 128,-1,47
 161 587 161 587 161 572 c 128,-1,48
 161 557 161 557 138.5 540.5 c 128,-1,49
 116 524 116 524 86 524 c 128,-1,50
 56 524 56 524 38 547 c 128,-1,51
 20 570 20 570 20 604.5 c 128,-1,52
 20 639 20 639 49.5 667.5 c 128,-1,53
 79 696 79 696 134 696 c 2,54,-1
 309 696 l 1,55,-1
 309 374 l 1,56,-1
 539 374 l 1,57,-1
 539 696 l 1,0,-1
EndSplineSet
EndChar

StartChar: G
Encoding: 71 71 46
Width: 610
Flags: HMW
HStem: -250 246<199.5 358.5> -231 21G<273 318> -44 21G<251.5 259> -24 20<199.5 227 199.5 234> 91 20<269 336 269 336.5> 422 20<433 466.5 431.5 469.5> 686 20<263.5 386.5 224.5 390.5>
VStem: 53 100<309.5 432 309 459> 367 20<480 507> 432 99<-42 -16 -16 155 155 155 184 379> 524 20<495.5 568>
LayerCount: 2
Fore
SplineSet
432 379 m 1,0,-1
 531 379 l 1,1,-1
 531 -16 l 2,2,3
 531 -77 531 -77 510 -124 c 128,-1,4
 489 -171 489 -171 455.5 -197.5 c 0,5,6
 389.132075472 -250 389.132075472 -250 314.566037736 -250 c 128,-1,7
 240 -250 240 -250 189.5 -202 c 128,-1,8
 139 -154 139 -154 139 -95 c 0,9,10
 139 -55 139 -55 163.5 -29.5 c 128,-1,11
 188 -4 188 -4 211 -4 c 128,-1,12
 234 -4 234 -4 248.5 -13 c 128,-1,13
 263 -22 263 -22 263 -33 c 128,-1,14
 263 -44 263 -44 258.5 -44 c 128,-1,15
 254 -44 254 -44 245.5 -34 c 128,-1,16
 237 -24 237 -24 212.5 -24 c 128,-1,17
 188 -24 188 -24 172.5 -45.5 c 128,-1,18
 157 -67 157 -67 157 -97 c 0,19,20
 157 -152 157 -152 206 -191.5 c 128,-1,21
 255 -231 255 -231 296 -231 c 0,22,23
 316 -231 316 -231 328 -230 c 128,-1,24
 340 -229 340 -229 362 -219 c 128,-1,25
 384 -209 384 -209 397.5 -190.5 c 128,-1,26
 411 -172 411 -172 421.5 -134 c 128,-1,27
 432 -96 432 -96 432 -42 c 2,28,-1
 432 155 l 1,29,30
 379 91 379 91 310 91 c 0,31,32
 204 91 204 91 128.5 179.5 c 128,-1,33
 53 268 53 268 53 393 c 0,34,35
 53 502.786885246 53 502.786885246 113.5 598 c 0,36,37
 144 646 144 646 198.5 676 c 128,-1,38
 253 706 253 706 324 706 c 0,39,40
 418 706 418 706 481 655 c 128,-1,41
 544 604 544 604 544 528 c 0,42,43
 544 475 544 475 514.5 448.5 c 128,-1,44
 485 422 485 422 452.5 422 c 128,-1,45
 420 422 420 422 393.5 440.5 c 128,-1,46
 367 459 367 459 367 487 c 128,-1,47
 367 515 367 515 379 533.5 c 128,-1,48
 391 552 391 552 403.5 552 c 128,-1,49
 416 552 416 552 416 546 c 128,-1,50
 416 540 416 540 401.5 525 c 128,-1,51
 387 510 387 510 387 491.5 c 128,-1,52
 387 473 387 473 405 457.5 c 128,-1,53
 423 442 423 442 451 442 c 128,-1,54
 479 442 479 442 501.5 463 c 128,-1,55
 524 484 524 484 524 524 c 0,56,57
 524 589 524 589 469 637.5 c 128,-1,58
 414 686 414 686 351 686 c 128,-1,59
 288 686 288 686 247 653.5 c 128,-1,60
 206 621 206 621 187 569.5 c 0,61,62
 153 477.342105263 153 477.342105263 153 374.171052632 c 128,-1,63
 153 271 153 271 200 191 c 128,-1,64
 247 111 247 111 314.5 111 c 128,-1,65
 382 111 382 111 432 184 c 1,66,-1
 432 379 l 1,0,-1
EndSplineSet
EndChar

StartChar: N
Encoding: 78 78 47
Width: 887
Flags: HMW
HStem: -6 232<34 159> 206 20<34 54.5 34 63> 524 172<116 359> 676 20<150.5 359 185 263> 726 20<754.5 823.5>
VStem: -33 124<89 204.5> 71 141<564 623.5> 262 21<143.5 198> 622 22<235 510 510 512> 811 124<535.5 651> 915 20<589.5 647>
LayerCount: 2
Fore
SplineSet
262 198 m 2,0,-1
 263 676 l 1,1,-1
 184 676 l 2,2,3
 137 676 137 676 114 655.5 c 128,-1,4
 91 635 91 635 91 607.5 c 128,-1,5
 91 580 91 580 105 562 c 128,-1,6
 119 544 119 544 142.5 544 c 128,-1,7
 166 544 166 544 177 555 c 128,-1,8
 188 566 188 566 194 576.5 c 128,-1,9
 200 587 200 587 206 587 c 128,-1,10
 212 587 212 587 212 572 c 128,-1,11
 212 557 212 557 189.5 540.5 c 128,-1,12
 167 524 167 524 137 524 c 128,-1,13
 107 524 107 524 89 547 c 128,-1,14
 71 570 71 570 71 604.5 c 128,-1,15
 71 639 71 639 100.5 667.5 c 128,-1,16
 130 696 130 696 185 696 c 2,17,-1
 359 696 l 1,18,-1
 622 235 l 1,19,-1
 622 510 l 2,20,21
 622 746 622 746 785 746 c 0,22,23
 846 746 846 746 890.5 708 c 128,-1,24
 935 670 935 670 935 614.5 c 128,-1,25
 935 559 935 559 908.5 536.5 c 128,-1,26
 882 514 882 514 861.5 514 c 128,-1,27
 841 514 841 514 826 523 c 128,-1,28
 811 532 811 532 811 543 c 128,-1,29
 811 554 811 554 816 554 c 128,-1,30
 821 554 821 554 823.5 550.5 c 128,-1,31
 826 547 826 547 828.5 543.5 c 0,32,33
 836 533 836 533 860 533 c 128,-1,34
 884 533 884 533 899.5 555 c 128,-1,35
 915 577 915 577 915 610 c 0,36,37
 915 663 915 663 878.5 694.5 c 128,-1,38
 842 726 842 726 791 726 c 0,39,40
 760 726 760 726 737 718.5 c 128,-1,41
 714 711 714 711 691 690.5 c 0,42,43
 644 648.608695652 644 648.608695652 644 512 c 2,44,-1
 644 5 l 2,45,46
 644 -6 644 -6 634 -6 c 0,47,48
 627.5 -6 627.5 -6 621 7 c 2,49,-1
 283 637 l 1,50,-1
 283 224 l 2,51,52
 283 111 283 111 234.5 52.5 c 128,-1,53
 186 -6 186 -6 121 -6 c 128,-1,54
 56 -6 56 -6 11.5 32 c 128,-1,55
 -33 70 -33 70 -33 125.5 c 128,-1,56
 -33 181 -33 181 -6.5 203.5 c 128,-1,57
 20 226 20 226 40.5 226 c 128,-1,58
 61 226 61 226 76 217 c 128,-1,59
 91 208 91 208 91 197 c 128,-1,60
 91 186 91 186 86 186 c 128,-1,61
 81 186 81 186 78.5 189 c 128,-1,62
 76 192 76 192 73.5 196 c 0,63,64
 67.25 206 67.25 206 41.625 206 c 128,-1,65
 16 206 16 206 1 184.5 c 128,-1,66
 -14 163 -14 163 -14 130 c 0,67,68
 -14 76 -14 76 25.5 44.5 c 128,-1,69
 65 13 65 13 119 13 c 128,-1,70
 173 13 173 13 217.5 63 c 128,-1,71
 262 113 262 113 262 198 c 2,0,-1
EndSplineSet
EndChar

StartChar: T
Encoding: 84 84 48
Width: 554
Flags: HMW
HStem: 0 21G<245 344 245 245> 524 20<60.5 92> 676 20<84.5 544 119 245 344 344 344 544>
VStem: 5 20<589.5 622.5 589.5 623.5> 5 141<564 623.5> 245 99<0 676>
LayerCount: 2
Fore
SplineSet
344 0 m 1,0,-1
 245 0 l 1,1,-1
 245 676 l 1,2,-1
 118 676 l 2,3,4
 71 676 71 676 48 655.5 c 128,-1,5
 25 635 25 635 25 607.5 c 0,6,7
 25 580 25 580 39 562 c 128,-1,8
 53 544 53 544 76.5 544 c 0,9,10
 100 544 100 544 111 555 c 128,-1,11
 122 566 122 566 128 576.5 c 128,-1,12
 134 587 134 587 140 587 c 128,-1,13
 146 587 146 587 146 572 c 0,14,15
 146 557 146 557 123.5 540.5 c 128,-1,16
 101 524 101 524 71 524 c 0,17,18
 41 524 41 524 23 547 c 128,-1,19
 5 570 5 570 5 604.5 c 0,20,21
 5 639 5 639 34.5 667.5 c 128,-1,22
 64 696 64 696 119 696 c 2,23,-1
 544 696 l 1,24,-1
 544 676 l 1,25,-1
 344 676 l 1,26,-1
 344 0 l 1,0,-1
EndSplineSet
EndChar

StartChar: F
Encoding: 70 70 49
Width: 672
Flags: HMW
HStem: -10 21<138 185.5 138 228> -10 242<104.5 228> 327 20<343 426 343 426> 485 20<561 585.5 561 585.5> 485 110<521.5 585.5> 537 20<128 174 128 176> 685 20<112.5 145 98 151.5> 703 26<496 551.5>
VStem: 39 20<105 156 99.5 175> 54 20<610.5 647 610.5 649> 54 139<607 669.5> 243 100<134 170 170 327 347 564 564 564> 497 20<532 560.5> 643 20<565.5 629>
LayerCount: 2
Fore
SplineSet
518 703 m 0,0,1
 412 703 412 703 343 632 c 1,2,-1
 343 347 l 1,3,-1
 426 347 l 2,4,5
 491 347 491 347 491 338 c 0,6,7
 491 327 491 327 426 327 c 2,8,-1
 343 327 l 1,9,-1
 343 170 l 2,10,11
 343 88 343 88 297.5 39 c 128,-1,12
 252 -10 252 -10 181.5 -10 c 128,-1,13
 111 -10 111 -10 75 35.5 c 128,-1,14
 39 81 39 81 39 134 c 128,-1,15
 39 187 39 187 64.5 209.5 c 128,-1,16
 90 232 90 232 111.5 232 c 128,-1,17
 133 232 133 232 148 223 c 128,-1,18
 163 214 163 214 163 203 c 128,-1,19
 163 192 163 192 158 192 c 128,-1,20
 153 192 153 192 145 203 c 128,-1,21
 137 214 137 214 113 214 c 128,-1,22
 89 214 89 214 74 191.5 c 128,-1,23
 59 169 59 169 59 126.5 c 128,-1,24
 59 84 59 84 91.5 47.5 c 128,-1,25
 124 11 124 11 161 11 c 128,-1,26
 198 11 198 11 220.5 43.5 c 128,-1,27
 243 76 243 76 243 134 c 2,28,-1
 243 564 l 1,29,30
 193 537 193 537 152 537 c 128,-1,31
 111 537 111 537 82.5 564.5 c 128,-1,32
 54 592 54 592 54 626.5 c 128,-1,33
 54 661 54 661 71.5 683 c 128,-1,34
 89 705 89 705 122 705 c 128,-1,35
 155 705 155 705 174 691 c 128,-1,36
 193 677 193 677 193 662.5 c 128,-1,37
 193 648 193 648 187 648 c 128,-1,38
 181 648 181 648 175.5 657 c 0,39,40
 158.388888889 685 158.388888889 685 131.194444444 685 c 128,-1,41
 104 685 104 685 89 670.5 c 128,-1,42
 74 656 74 656 74 627 c 128,-1,43
 74 598 74 598 95 577.5 c 128,-1,44
 116 557 116 557 161 557 c 128,-1,45
 206 557 206 557 256.5 593 c 128,-1,46
 307 629 307 629 342 656 c 0,47,48
 434 729 434 729 528 729 c 0,49,50
 593 729 593 729 628 690.5 c 128,-1,51
 663 652 663 652 663 598.5 c 128,-1,52
 663 545 663 545 632 515 c 128,-1,53
 601 485 601 485 568 485 c 128,-1,54
 535 485 535 485 516 504 c 128,-1,55
 497 523 497 523 497 545 c 128,-1,56
 497 567 497 567 507 581 c 128,-1,57
 517 595 517 595 529.5 595 c 128,-1,58
 542 595 542 595 542 588 c 0,59,60
 542 584 542 584 536 581 c 0,61,62
 517 571.5 517 571.5 517 548.25 c 128,-1,63
 517 525 517 525 534 515 c 128,-1,64
 551 505 551 505 574 505 c 128,-1,65
 597 505 597 505 620 529 c 128,-1,66
 643 553 643 553 643 598.5 c 128,-1,67
 643 644 643 644 606.5 673.5 c 128,-1,68
 570 703 570 703 518 703 c 0,0,1
EndSplineSet
EndChar

StartChar: P
Encoding: 80 80 50
Width: 660
Flags: HMW
HStem: 0 249<162 461 162 461> 230 240<328.5 487.5> 450 20<328.5 357 328.5 358.5> 524 20<28.5 60> 676 20<52.5 369 87 162 262 262 262 369 369 383>
VStem: -27 20<589.5 622.5 589.5 623.5> -27 141<564 623.5> 162 100<0 345 0 395 395 676> 162 117<348.5 396 348.5 676> 547 86<395.5 497>
LayerCount: 2
Fore
SplineSet
87 696 m 2,0,-1
 369 696 l 2,1,2
 495 696 495 696 564 623.5 c 128,-1,3
 633 551 633 551 633 456 c 128,-1,4
 633 361 633 361 575.5 295.5 c 128,-1,5
 518 230 518 230 417 230 c 0,6,7
 366 230 366 230 318.5 260.5 c 128,-1,8
 271 291 271 291 262 345 c 1,9,-1
 262 0 l 1,10,-1
 162 0 l 1,11,-1
 162 676 l 1,12,-1
 86 676 l 2,13,14
 39 676 39 676 16 655.5 c 128,-1,15
 -7 635 -7 635 -7 607.5 c 128,-1,16
 -7 580 -7 580 7 562 c 128,-1,17
 21 544 21 544 44.5 544 c 128,-1,18
 68 544 68 544 79 555 c 128,-1,19
 90 566 90 566 96 576.5 c 128,-1,20
 102 587 102 587 108 587 c 128,-1,21
 114 587 114 587 114 572 c 128,-1,22
 114 557 114 557 91.5 540.5 c 128,-1,23
 69 524 69 524 39 524 c 128,-1,24
 9 524 9 524 -9 547 c 128,-1,25
 -27 570 -27 570 -27 604.5 c 128,-1,26
 -27 639 -27 639 2.5 667.5 c 128,-1,27
 32 696 32 696 87 696 c 2,0,-1
293 451.5 m 128,-1,29
 317 470 317 470 340.5 470 c 128,-1,30
 364 470 364 470 383.5 461 c 128,-1,31
 403 452 403 452 403 443 c 0,32,33
 403 439 403 439 399.5 435.5 c 128,-1,34
 396 432 396 432 393.5 432 c 128,-1,35
 391 432 391 432 376 441 c 128,-1,36
 361 450 361 450 336 450 c 128,-1,37
 311 450 311 450 295 429 c 128,-1,38
 279 408 279 408 279 378 c 0,39,40
 279 330 279 330 317.5 289.5 c 128,-1,41
 356 249 356 249 418 249 c 128,-1,42
 480 249 480 249 513.5 304.5 c 128,-1,43
 547 360 547 360 547 446.5 c 128,-1,44
 547 533 547 533 503 604.5 c 128,-1,45
 459 676 459 676 383 676 c 2,46,-1
 262 676 l 1,47,-1
 262 395 l 1,48,28
 269 433 269 433 293 451.5 c 128,-1,29
EndSplineSet
EndChar

StartChar: Q
Encoding: 81 81 51
Width: 698
Flags: HMW
HStem: -237 21<499 542 499 553> -44 21G<555 562.5> -24 20<587.5 617> -24 44 274 20<408.5 461 405 462.5> 416 20<390 410.5> 686 20G<255.5 445.5>
VStem: 48 100<229 419> 283 99<-6 2 -101.5 8 -101.5 8> 338 20<352.5 375 352.5 382> 542 106<393 421.5 219.5 512> 655 20<-130.5 -78.5>
LayerCount: 2
Fore
SplineSet
48 339 m 0,0,1
 48 421 48 421 83 506.5 c 128,-1,2
 118 592 118 592 189 649 c 128,-1,3
 260 706 260 706 350.5 706 c 128,-1,4
 441 706 441 706 510.5 649.5 c 128,-1,5
 580 593 580 593 614 508.5 c 128,-1,6
 648 424 648 424 648 337.5 c 128,-1,7
 648 251 648 251 623 188.5 c 128,-1,8
 598 126 598 126 557 88.5 c 0,9,10
 475.803921569 14.2352941176 475.803921569 14.2352941176 382 2 c 1,11,-1
 382 -32 l 2,12,13
 382 -81 382 -81 397 -119 c 128,-1,14
 412 -157 412 -157 435 -177 c 0,15,16
 479.85 -216 479.85 -216 520.925 -216 c 128,-1,17
 562 -216 562 -216 608.5 -184 c 128,-1,18
 655 -152 655 -152 655 -97 c 0,19,20
 655 -66 655 -66 640 -45 c 128,-1,21
 625 -24 625 -24 601 -24 c 128,-1,22
 577 -24 577 -24 568.5 -34 c 128,-1,23
 560 -44 560 -44 555.5 -44 c 128,-1,24
 551 -44 551 -44 551 -33 c 128,-1,25
 551 -22 551 -22 566 -13 c 128,-1,26
 581 -4 581 -4 598 -4 c 0,27,28
 632 -4 632 -4 653.5 -28.5 c 128,-1,29
 675 -53 675 -53 675 -94 c 0,30,31
 675 -151 675 -151 625.5 -194 c 128,-1,32
 576 -237 576 -237 503 -237 c 0,33,34
 424.211538462 -237 424.211538462 -237 358.5 -186 c 0,35,36
 325 -160 325 -160 304 -113.5 c 128,-1,37
 283 -67 283 -67 283 -6 c 2,38,-1
 283 8 l 1,39,40
 193.173913043 30.4565217391 193.173913043 30.4565217391 125 103.5 c 0,41,42
 48 186 48 186 48 339 c 0,0,1
433 410 m 1,43,-1
 404 416 l 1,44,45
 384 416 384 416 371 399 c 128,-1,46
 358 382 358 382 358 361.5 c 128,-1,47
 358 341 358 341 376.5 317.5 c 128,-1,48
 395 294 395 294 437 294 c 128,-1,49
 479 294 479 294 510.5 332 c 128,-1,50
 542 370 542 370 542 460 c 128,-1,51
 542 550 542 550 491 618.5 c 128,-1,52
 440 687 440 687 345 687 c 0,53,54
 298 687 298 687 262 668.5 c 128,-1,55
 226 650 226 650 205 619.5 c 128,-1,56
 184 589 184 589 170.5 543.5 c 0,57,58
 148 467.666666667 148 467.666666667 148 349 c 0,59,60
 148 168 148 168 196 94 c 128,-1,61
 244 20 244 20 347 20 c 128,-1,62
 450 20 450 20 499 93.5 c 128,-1,63
 548 167 548 167 548 318 c 0,64,65
 548 341 548 341 547 352 c 1,66,67
 538 326 538 326 505.5 300 c 128,-1,68
 473 274 473 274 434 274 c 128,-1,69
 395 274 395 274 366.5 300.5 c 128,-1,70
 338 327 338 327 338 360 c 128,-1,71
 338 393 338 393 356 414.5 c 128,-1,72
 374 436 374 436 407.5 436 c 128,-1,73
 441 436 441 436 441 417 c 0,74,75
 441 410 441 410 433 410 c 1,43,-1
EndSplineSet
EndChar

StartChar: U
Encoding: 85 85 52
Width: 747
Flags: HMW
HStem: -9 21G<333.5 432.5> 524 20<27 59> 544 20<665.5 686> 544 43<27 108> 676 20<51.5 261 86 160> 746 20<602.5 668.5>
VStem: -28 20<589.5 622.5 589.5 623.5> -28 141<564 623.5> 160 101<211 220 220 676 676 676> 488 20<512 627.5 508.5 631> 545 20<137.5 288.5 129.5 291> 629 126<565.5 681.5> 735 20<619.5 673.5>
LayerCount: 2
Fore
SplineSet
86 696 m 2,0,-1
 261 696 l 1,1,-1
 261 220 l 2,2,3
 261 119 261 119 291 64.5 c 128,-1,4
 321 10 321 10 398 10 c 0,5,6
 545 10 545 10 545 221 c 0,7,8
 545 295 545 295 516.5 405.5 c 128,-1,9
 488 516 488 516 488 565 c 0,10,11
 488 660 488 660 529.5 713 c 128,-1,12
 571 766 571 766 631.5 766 c 128,-1,13
 692 766 692 766 723.5 734 c 128,-1,14
 755 702 755 702 755 646 c 128,-1,15
 755 590 755 590 727.5 567 c 128,-1,16
 700 544 700 544 679.5 544 c 128,-1,17
 659 544 659 544 644 553 c 128,-1,18
 629 562 629 562 629 573 c 128,-1,19
 629 584 629 584 634 584 c 128,-1,20
 639 584 639 584 641.5 581 c 128,-1,21
 644 578 644 578 646.5 574 c 0,22,23
 652.75 564 652.75 564 678.375 564 c 128,-1,24
 704 564 704 564 719.5 585.5 c 128,-1,25
 735 607 735 607 735 640 c 0,26,27
 735 746 735 746 635 746 c 0,28,29
 582 746 582 746 545 700 c 128,-1,30
 508 654 508 654 508 564 c 0,31,32
 508 513 508 513 536.5 403 c 128,-1,33
 565 293 565 293 565 216 c 0,34,35
 565 -9 565 -9 380 -9 c 0,36,37
 299 -9 299 -9 236 31.5 c 0,38,39
 201 54 201 54 180.5 100 c 128,-1,40
 160 146 160 146 160 211 c 2,41,-1
 160 676 l 1,42,-1
 85 676 l 2,43,44
 38 676 38 676 15 655.5 c 128,-1,45
 -8 635 -8 635 -8 607 c 128,-1,46
 -8 579 -8 579 5.5 561.5 c 128,-1,47
 19 544 19 544 43 544 c 128,-1,48
 67 544 67 544 78 555 c 128,-1,49
 89 566 89 566 95 576.5 c 128,-1,50
 101 587 101 587 107 587 c 128,-1,51
 113 587 113 587 113 572 c 128,-1,52
 113 557 113 557 90.5 540.5 c 128,-1,53
 68 524 68 524 38 524 c 128,-1,54
 8 524 8 524 -10 547 c 128,-1,55
 -28 570 -28 570 -28 604.5 c 128,-1,56
 -28 639 -28 639 1.5 667.5 c 128,-1,57
 31 696 31 696 86 696 c 2,0,-1
EndSplineSet
EndChar

StartChar: S
Encoding: 83 83 53
Width: 535
Flags: HMW
HStem: -9 20<221.5 291 215.5 301.5> 246 20<115 134.5 115 143> 516 20<372 403 366 411> 686 21<245.5 322.5>
VStem: 47 66 69 44<496.5 570> 329 136<562 571.5> 443 44<133.5 240.5>
LayerCount: 2
Fore
SplineSet
179 343 m 0,0,1
 123 362 123 362 96 400 c 128,-1,2
 69 438 69 438 69 504 c 0,3,4
 69 596 69 596 139 651.5 c 128,-1,5
 209 707 209 707 281.5 707 c 128,-1,6
 354 707 354 707 409.5 674.5 c 128,-1,7
 465 642 465 642 465 586 c 0,8,9
 465 552 465 552 444 534 c 128,-1,10
 423 516 423 516 393.5 516 c 128,-1,11
 364 516 364 516 346.5 532.5 c 128,-1,12
 329 549 329 549 329 563.5 c 128,-1,13
 329 578 329 578 334.5 578 c 128,-1,14
 340 578 340 578 344 571.5 c 128,-1,15
 348 565 348 565 351 557 c 0,16,17
 358.875 536 358.875 536 385.4375 536 c 128,-1,18
 412 536 412 536 427.5 549 c 128,-1,19
 443 562 443 562 443 586 c 0,20,21
 443 630 443 630 394 658 c 128,-1,22
 345 686 345 686 283 686 c 128,-1,23
 221 686 221 686 167 648 c 128,-1,24
 113 610 113 610 113 552 c 0,25,26
 113 513 113 513 140.5 487.5 c 128,-1,27
 168 462 168 462 202.5 451 c 128,-1,28
 237 440 237 440 292.5 425 c 128,-1,29
 348 410 348 410 379 396 c 0,30,31
 487 348 487 348 487 223 c 0,32,33
 487 160 487 160 463.5 112 c 128,-1,34
 440 64 440 64 403.5 39 c 0,35,36
 333.42 -9 333.42 -9 261 -9 c 0,37,38
 194.7 -9 194.7 -9 125 32 c 0,39,40
 91 52 91 52 69 88 c 128,-1,41
 47 124 47 124 47 172.5 c 128,-1,42
 47 221 47 221 73.5 243.5 c 128,-1,43
 100 266 100 266 120.5 266 c 128,-1,44
 141 266 141 266 156 257 c 128,-1,45
 171 248 171 248 171 237 c 128,-1,46
 171 226 171 226 166 226 c 128,-1,47
 161 226 161 226 158.5 229 c 128,-1,48
 156 232 156 232 153.5 236 c 0,49,50
 147.25 246 147.25 246 121.625 246 c 128,-1,51
 96 246 96 246 80.5 224.5 c 128,-1,52
 65 203 65 203 65 170 c 0,53,54
 65 98 65 98 126 54.5 c 128,-1,55
 187 11 187 11 257 11 c 0,56,57
 352.506493506 11 352.506493506 11 409.5 76.5 c 0,58,59
 443 115 443 115 443 175.789473684 c 128,-1,60
 443 236.578947368 443 236.578947368 401.413580247 267.22157245 c 128,-1,61
 359.827160494 297.864197531 359.827160494 297.864197531 285.026483473 315.46435683 c 128,-1,62
 210.225806452 333.064516129 210.225806452 333.064516129 179 343 c 0,0,1
EndSplineSet
EndChar

StartChar: W
Encoding: 87 87 54
Width: 918
Flags: HMW
HStem: -10 20<312 365.5 633 720> 433 20<54.5 79.5> 447 20G<117.5 123> 487 20<618.5 639> 650 46<148.5 153.5> 686 20G<673.5 750>
VStem: 1 20<510 544.5 510 564.5> 188 83<129 144.5 85 203.5> 231 40 231 99<396.5 518.5> 508 76 564 20<554 602.5 554 617> 845 20<379.5 513.5>
LayerCount: 2
Fore
SplineSet
508 300 m 1,0,-1
 601 298 l 1,1,-1
 598 294 l 1,2,3
 598 278 598 278 593 233 c 128,-1,4
 588 188 588 188 588 140 c 128,-1,5
 588 92 588 92 605 51 c 128,-1,6
 622 10 622 10 662 10 c 128,-1,7
 702 10 702 10 739 58 c 128,-1,8
 776 106 776 106 798 177 c 0,9,10
 845 328.681818182 845 328.681818182 845 438.340909091 c 128,-1,11
 845 548 845 548 807 617 c 128,-1,12
 769 686 769 686 709 686 c 128,-1,13
 649 686 649 686 616.5 653.5 c 128,-1,14
 584 621 584 621 584 568 c 0,15,16
 584 545 584 545 598 526 c 128,-1,17
 612 507 612 507 635 507 c 0,18,19
 644 507 644 507 657.5 511 c 128,-1,20
 671 515 671 515 673 515 c 0,21,22
 681 515 681 515 681 506 c 0,23,24
 681 489 681 489 649.5 487.5 c 2,25,-1
 639 487 l 1,26,27
 603 487 603 487 583.5 512 c 128,-1,28
 564 537 564 537 564 574 c 0,29,30
 564 636 564 636 607 671 c 128,-1,31
 650 706 650 706 714 706 c 128,-1,32
 778 706 778 706 821.5 635 c 128,-1,33
 865 564 865 564 865 451 c 0,34,35
 865 317.92 865 317.92 813 164 c 0,36,37
 788 90 788 90 745 40 c 128,-1,38
 702 -10 702 -10 648 -10 c 128,-1,39
 594 -10 594 -10 552 40 c 128,-1,40
 510 90 510 90 503 157 c 1,41,42
 472 82 472 82 426.5 36 c 128,-1,43
 381 -10 381 -10 324 -10 c 128,-1,44
 267 -10 267 -10 227.5 46.5 c 128,-1,45
 188 103 188 103 188 168 c 0,46,47
 188 197 188 197 209.5 291.5 c 128,-1,48
 231 386 231 386 231 466 c 128,-1,49
 231 546 231 546 200.5 598 c 128,-1,50
 170 650 170 650 131.5 650 c 128,-1,51
 93 650 93 650 57 604 c 128,-1,52
 21 558 21 558 21 520 c 0,53,54
 21 497 21 497 34 475 c 128,-1,55
 47 453 47 453 79 453 c 0,56,57
 94 453 94 453 107 460 c 128,-1,58
 120 467 120 467 121 467 c 0,59,60
 128 467 128 467 128 455.5 c 128,-1,61
 128 444 128 444 108.5 438.5 c 128,-1,62
 89 433 89 433 72 433 c 0,63,64
 41 433 41 433 21 460.5 c 128,-1,65
 1 488 1 488 1 522 c 0,66,67
 1 584 1 584 64 640 c 128,-1,68
 127 696 127 696 188.5 696 c 128,-1,69
 250 696 250 696 290 630 c 128,-1,70
 330 564 330 564 330 477 c 128,-1,71
 330 390 330 390 300.5 264 c 128,-1,72
 271 138 271 138 271 103.5 c 128,-1,73
 271 69 271 69 287 39.5 c 128,-1,74
 303 10 303 10 335 10 c 0,75,76
 382 10 382 10 423 61.5 c 128,-1,77
 464 113 464 113 485 179 c 128,-1,78
 506 245 506 245 508 300 c 1,0,-1
EndSplineSet
EndChar

StartChar: Y
Encoding: 89 89 55
Width: 661
Flags: HMW
HStem: -10 21<321 385.5 308.5 426> 230 20<321 371.5> 487 20<373.5 394> 511 20<47.5 75> 676 21<416 483.5> 686 20G<76.5 135.5>
VStem: -6 20<588.5 615.5 588.5 631.5> 174 22 174 95 319 20<554 599 554 611> 478 103<171 173 173 280 280 280> 554 27<460.5 472>
LayerCount: 2
Fore
SplineSet
346 230 m 0,0,1
 247.954545455 230 247.954545455 230 206 301 c 0,2,3
 183.459227468 339.145922747 183.459227468 339.145922747 179.229613734 371.572961373 c 0,4,5
 174 411.666666667 174 411.666666667 174 446.333333333 c 128,-1,6
 174 481 174 481 173.5 503.5 c 128,-1,7
 173 526 173 526 170.5 559.5 c 128,-1,8
 168 593 168 593 162.5 610.5 c 128,-1,9
 157 628 157 628 147.5 646.5 c 0,10,11
 130.297297297 680 130.297297297 680 90.1486486486 680 c 128,-1,12
 50 680 50 680 32 654.5 c 128,-1,13
 14 629 14 629 14 602 c 128,-1,14
 14 575 14 575 27 553 c 128,-1,15
 40 531 40 531 72 531 c 0,16,17
 87 531 87 531 100 538 c 128,-1,18
 113 545 113 545 114 545 c 0,19,20
 121 545 121 545 121 534 c 128,-1,21
 121 523 121 523 102.5 517 c 128,-1,22
 84 511 84 511 67 511 c 0,23,24
 35 511 35 511 14.5 536.5 c 128,-1,25
 -6 562 -6 562 -6 594 c 0,26,27
 -6 647 -6 647 26.5 676.5 c 128,-1,28
 59 706 59 706 105.5 706 c 128,-1,29
 152 706 152 706 195.5 672.5 c 128,-1,30
 239 639 239 639 252 588 c 0,31,32
 269 524.857142857 269 524.857142857 269 378 c 1,33,34
 271 308 271 308 288.5 279 c 128,-1,35
 306 250 306 250 353 250 c 0,36,37
 442 250 442 250 498 334.5 c 128,-1,38
 554 419 554 419 554 533 c 0,39,40
 554 595 554 595 526.5 635.5 c 128,-1,41
 499 676 499 676 449.5 676 c 128,-1,42
 400 676 400 676 369.5 645.5 c 128,-1,43
 339 615 339 615 339 568 c 0,44,45
 339 545 339 545 353 526 c 128,-1,46
 367 507 367 507 390 507 c 0,47,48
 399 507 399 507 412.5 511 c 128,-1,49
 426 515 426 515 428 515 c 0,50,51
 436 515 436 515 436 506 c 0,52,53
 436 489 436 489 404.5 487.5 c 2,54,-1
 394 487 l 1,55,56
 358 487 358 487 338.5 512 c 128,-1,57
 319 537 319 537 319 574 c 0,58,59
 319 629 319 629 354.5 663 c 128,-1,60
 390 697 390 697 443 697 c 0,61,62
 520 697 520 697 550.5 637 c 128,-1,63
 581 577 581 577 581 472 c 2,64,-1
 581 173 l 2,65,66
 581 91 581 91 519 40.5 c 128,-1,67
 457 -10 457 -10 374.5 -10 c 128,-1,68
 292 -10 292 -10 234 35 c 128,-1,69
 176 80 176 80 176 150 c 0,70,71
 176 174 176 174 183 190 c 128,-1,72
 190 206 190 206 200 206 c 0,73,74
 208 206 208 206 208 198 c 128,-1,75
 208 190 208 190 202 174.5 c 128,-1,76
 196 159 196 159 196 145 c 0,77,78
 196 91 196 91 242.5 51 c 128,-1,79
 289 11 289 11 346 11 c 128,-1,80
 403 11 403 11 440.5 60.5 c 128,-1,81
 478 110 478 110 478 171 c 2,82,-1
 478 280 l 1,83,84
 413 230 413 230 346 230 c 0,0,1
EndSplineSet
EndChar

StartChar: Z
Encoding: 90 90 56
Width: 643
Flags: HMW
HStem: 0 20 197 124<398 514> 523 20<100 135> 674 22<128.5 569 163 433>
VStem: 49 20<588.5 621.5 588.5 622.5> 49 141<580.5 582 563.5 622.5> 376 20<233.5 254> 587 21<132 204.5>
LayerCount: 2
Fore
SplineSet
165 21 m 1,0,-1
 414 20 l 2,1,2
 498 20 498 20 542.5 64 c 128,-1,3
 587 108 587 108 587 166.5 c 128,-1,4
 587 225 587 225 556.5 264 c 128,-1,5
 526 303 526 303 474 303 c 0,6,7
 440 303 440 303 418 287.5 c 128,-1,8
 396 272 396 272 396 243 c 0,9,10
 396 216 396 216 411 210 c 0,11,12
 416 208 416 208 416 206 c 0,13,14
 416 197 416 197 409 197 c 0,15,16
 394 197 394 197 385 211.5 c 128,-1,17
 376 226 376 226 376 247 c 128,-1,18
 376 268 376 268 398.5 294.5 c 128,-1,19
 421 321 421 321 477 321 c 128,-1,20
 533 321 533 321 570.5 277.5 c 128,-1,21
 608 234 608 234 608 166.5 c 128,-1,22
 608 99 608 99 556 49.5 c 128,-1,23
 504 0 504 0 388 0 c 2,24,-1
 29 0 l 2,25,26
 22 0 22 0 22 7 c 128,-1,27
 22 14 22 14 31 23 c 1,28,-1
 433 674 l 1,29,-1
 162 674 l 2,30,31
 115 674 115 674 92 653.5 c 128,-1,32
 69 633 69 633 69 606 c 128,-1,33
 69 579 69 579 81.5 561 c 128,-1,34
 94 543 94 543 118 543 c 128,-1,35
 142 543 142 543 155.5 553.5 c 128,-1,36
 169 564 169 564 173 575 c 128,-1,37
 177 586 177 586 181 586 c 0,38,39
 190 586 190 586 190 580 c 0,40,41
 190 556 190 556 167.5 539.5 c 128,-1,42
 145 523 145 523 114.5 523 c 128,-1,43
 84 523 84 523 66.5 546 c 128,-1,44
 49 569 49 569 49 603.5 c 128,-1,45
 49 638 49 638 78.5 667 c 128,-1,46
 108 696 108 696 163 696 c 2,47,-1
 569 696 l 2,48,49
 577 696 577 696 577 692 c 128,-1,50
 577 688 577 688 567 673 c 2,51,-1
 165 21 l 1,0,-1
EndSplineSet
EndChar

StartChar: seven
Encoding: 55 55 57
Width: 443
Flags: HMW
HStem: 0 21G<120 233 120 120> 512 194<98 106.5> 599 77<273 370> 626 50
VStem: 21 116<548 631.5> 119 112<22 186> 413 20<653 660 660 660>
LayerCount: 2
Fore
SplineSet
233 0 m 1,0,-1
 120 0 l 1,1,2
 119 6 119 6 119 21 c 0,3,4
 119 113 119 113 149.5 197.5 c 128,-1,5
 180 282 180 282 223 343 c 128,-1,6
 266 404 266 404 309 457.5 c 128,-1,7
 352 511 352 511 382.5 561.5 c 128,-1,8
 413 612 413 612 413 653 c 2,9,-1
 413 660 l 1,10,11
 388 629 388 629 354.5 614 c 128,-1,12
 321 599 321 599 298.5 599 c 0,13,14
 276 599 276 599 212 612.5 c 128,-1,15
 148 626 148 626 112 626 c 0,16,17
 39 626 39 626 39 575 c 0,18,19
 39 548 39 548 54.5 536.5 c 128,-1,20
 70 525 70 525 86.5 525 c 0,21,22
 103 525 103 525 114 532.5 c 128,-1,23
 125 540 125 540 125 551 c 0,24,25
 125 562 125 562 120.5 566.5 c 128,-1,26
 116 571 116 571 116 572 c 0,27,28
 116 578 116 578 121 578 c 0,29,30
 126 578 126 578 131.5 571 c 128,-1,31
 137 564 137 564 137 552 c 0,32,33
 137 540 137 540 125 526 c 128,-1,34
 113 512 113 512 86 512 c 0,35,36
 21 512 21 512 21 594 c 0,37,38
 21 649 21 649 50.5 677.5 c 128,-1,39
 80 706 80 706 130 706 c 0,40,41
 157 706 157 706 234.5 691 c 128,-1,42
 312 676 312 676 345 676 c 0,43,44
 378 676 378 676 393.5 682 c 128,-1,45
 409 688 409 688 429 706 c 1,46,47
 433 684 433 684 433 673 c 0,48,49
 433 617 433 617 412 568.5 c 128,-1,50
 391 520 391 520 361.5 476 c 128,-1,51
 332 432 332 432 302.5 378 c 128,-1,52
 273 324 273 324 252 232.5 c 128,-1,53
 231 141 231 141 231 23 c 0,54,55
 231 15 231 15 233 0 c 1,0,-1
EndSplineSet
EndChar

StartChar: one
Encoding: 49 49 58
Width: 373
Flags: HMW
HStem: 0 22<57 153 256 359 57 153> 692 20G<256 256>
VStem: 153 103<22 545 545 545>
LayerCount: 2
Fore
SplineSet
52 424 m 1,0,-1
 17 424 l 1,1,-1
 256 712 l 1,2,-1
 256 22 l 1,3,-1
 359 22 l 1,4,-1
 359 0 l 1,5,-1
 57 0 l 1,6,-1
 57 22 l 1,7,-1
 153 22 l 1,8,-1
 153 545 l 1,9,-1
 52 424 l 1,0,-1
EndSplineSet
EndChar

StartChar: two
Encoding: 50 50 59
Width: 544
Flags: HMW
HStem: -10 78<337 381> -10 241<306 444.5> 24 44 24 80<145.5 161.5> 686 20<209 295.5>
VStem: 36 45 62 181<490.5 500.5 469.5 576.5> 222 21<472.5 500.5 469.5 501.5> 346 132 381 97<428.5 567.5> 381 118
LayerCount: 2
Fore
SplineSet
55 48 m 1,0,1
 98 104 98 104 165 104 c 0,2,3
 197 104 197 104 266.5 86 c 128,-1,4
 336 68 336 68 379 68 c 128,-1,5
 422 68 422 68 451.5 89.5 c 128,-1,6
 481 111 481 111 481 144.5 c 128,-1,7
 481 178 481 178 463.5 195.5 c 128,-1,8
 446 213 446 213 419.5 213 c 128,-1,9
 393 213 393 213 378.5 200.5 c 128,-1,10
 364 188 364 188 364 172.5 c 128,-1,11
 364 157 364 157 368.5 150 c 128,-1,12
 373 143 373 143 373 142 c 0,13,14
 373 136 373 136 366 136 c 128,-1,15
 359 136 359 136 352.5 145.5 c 128,-1,16
 346 155 346 155 346 174.5 c 128,-1,17
 346 194 346 194 366.5 212.5 c 128,-1,18
 387 231 387 231 422 231 c 128,-1,19
 457 231 457 231 478 208 c 128,-1,20
 499 185 499 185 499 146 c 0,21,22
 499 83 499 83 451 36.5 c 128,-1,23
 403 -10 403 -10 334 -10 c 0,24,25
 308 -10 308 -10 235.5 7 c 128,-1,26
 163 24 163 24 118 24 c 128,-1,27
 73 24 73 24 40 -1 c 1,28,29
 36 18 36 18 36 45 c 128,-1,30
 36 72 36 72 55 107 c 128,-1,31
 74 142 74 142 104.5 171.5 c 128,-1,32
 135 201 135 201 171.5 231.5 c 128,-1,33
 208 262 208 262 245 294.5 c 128,-1,34
 282 327 282 327 312.5 361.5 c 0,35,36
 381 438.983606557 381 438.983606557 381 533 c 0,37,38
 381 594 381 594 348 640 c 128,-1,39
 315 686 315 686 243.5 686 c 128,-1,40
 172 686 172 686 126.5 638 c 128,-1,41
 81 590 81 590 81 525 c 0,42,43
 81 482 81 482 102.5 456.5 c 128,-1,44
 124 431 124 431 157 431 c 128,-1,45
 190 431 190 431 206 447.5 c 128,-1,46
 222 464 222 464 222 484 c 128,-1,47
 222 504 222 504 208 519.5 c 128,-1,48
 194 535 194 535 194 538 c 0,49,50
 194 545 194 545 205.5 545 c 128,-1,51
 217 545 217 545 230 526.5 c 128,-1,52
 243 508 243 508 243 483.5 c 128,-1,53
 243 459 243 459 220.5 437 c 128,-1,54
 198 415 198 415 157.5 415 c 128,-1,55
 117 415 117 415 89.5 444.5 c 128,-1,56
 62 474 62 474 62 526 c 0,57,58
 62 603 62 603 120.5 654.5 c 128,-1,59
 179 706 179 706 270.5 706 c 128,-1,60
 362 706 362 706 420 657 c 128,-1,61
 478 608 478 608 478 537 c 0,62,63
 478 486 478 486 446.5 434.5 c 128,-1,64
 415 383 415 383 368 342.5 c 128,-1,65
 321 302 321 302 266.5 260 c 128,-1,66
 212 218 212 218 165 184.5 c 128,-1,67
 118 151 118 151 86.5 114.5 c 128,-1,68
 55 78 55 78 55 48 c 1,0,1
EndSplineSet
EndChar

StartChar: three
Encoding: 51 51 60
Width: 505
Flags: HMW
HStem: -10 21<170.5 255.5 161 302.5> -10 248<108.5 302.5> 219 166 372 158<121 248> 514 192<113.5 269> 686 20<181.5 235.5>
VStem: 40 190<149.5 164.5> 65 21<570.5 615.5 570.5 625> 65 137<542 625> 210 20<149.5 178> 325 93<513.5 600 513.5 605.5> 356 103<146 230.5>
LayerCount: 2
Fore
SplineSet
281.5 434 m 128,-1,1
 325 476 325 476 325 550.5 c 128,-1,2
 325 625 325 625 291 655.5 c 128,-1,3
 257 686 257 686 208.5 686 c 128,-1,4
 160 686 160 686 123 657 c 128,-1,5
 86 628 86 628 86 588 c 0,6,7
 86 562 86 562 99.5 546 c 128,-1,8
 113 530 113 530 134 530 c 128,-1,9
 155 530 155 530 168.5 538 c 128,-1,10
 182 546 182 546 188 554.5 c 128,-1,11
 194 563 194 563 196 563 c 0,12,13
 202 563 202 563 202 555 c 0,14,15
 202 537 202 537 178.5 525.5 c 128,-1,16
 155 514 155 514 129.5 514 c 128,-1,17
 104 514 104 514 84.5 535 c 128,-1,18
 65 556 65 556 65 587 c 0,19,20
 65 642 65 642 111.5 674 c 128,-1,21
 158 706 158 706 228.5 706 c 128,-1,22
 299 706 299 706 358.5 663.5 c 128,-1,23
 418 621 418 621 418 549 c 0,24,25
 418 496 418 496 374.5 451.5 c 128,-1,26
 331 407 331 407 255 385 c 1,27,28
 353 379 353 379 406 325 c 128,-1,29
 459 271 459 271 459 192.5 c 128,-1,30
 459 114 459 114 396.5 52 c 128,-1,31
 334 -10 334 -10 227 -10 c 0,32,33
 142 -10 142 -10 91 29 c 128,-1,34
 40 68 40 68 40 133 c 0,35,36
 40 180 40 180 67 209 c 128,-1,37
 94 238 94 238 136 238 c 128,-1,38
 178 238 178 238 204 217 c 128,-1,39
 230 196 230 196 230 169 c 128,-1,40
 230 142 230 142 219.5 126 c 128,-1,41
 209 110 209 110 197 110 c 128,-1,42
 185 110 185 110 185 117 c 0,43,44
 185 119 185 119 197.5 129 c 128,-1,45
 210 139 210 139 210 163 c 128,-1,46
 210 187 210 187 191 203 c 128,-1,47
 172 219 172 219 137.5 219 c 128,-1,48
 103 219 103 219 81 195.5 c 128,-1,49
 59 172 59 172 59 124.5 c 128,-1,50
 59 77 59 77 99 44 c 128,-1,51
 139 11 139 11 208 11 c 128,-1,52
 277 11 277 11 316.5 61 c 128,-1,53
 356 111 356 111 356 185.5 c 128,-1,54
 356 260 356 260 313 316 c 128,-1,55
 270 372 270 372 194 372 c 1,56,57
 194 369.75 194 369.75 175 367.375 c 128,-1,58
 156 365 156 365 146 365 c 0,59,60
 122 365 122 365 122 380.5 c 128,-1,61
 122 396 122 396 147 396 c 0,62,63
 160.25 396 160.25 396 175.125 392.5 c 128,-1,64
 190 389 190 389 192 389 c 0,65,0
 238 392 238 392 281.5 434 c 128,-1,1
EndSplineSet
EndChar

StartChar: eight
Encoding: 56 56 61
Width: 584
Flags: HMW
HStem: -10 21<245 350 245 350> 239 184<202.5 334> 400 23<247.5 334 247.5 342.5> 686 20<252 323.5>
VStem: 49 96<130 182.5 110.5 262.5> 87 94<522 591.5 522 595.5> 294 20<171 202> 401 94<520.5 590.5> 441 54 441 95<156 257.5>
LayerCount: 2
Fore
SplineSet
536 220 m 0,0,1
 536 115 536 115 462 52.5 c 128,-1,2
 388 -10 388 -10 287 -10 c 128,-1,3
 186 -10 186 -10 117.5 45 c 128,-1,4
 49 100 49 100 49 205 c 0,5,6
 49 287 49 287 92 339 c 128,-1,7
 135 391 135 391 206 411 c 1,8,9
 152 426 152 426 119.5 461 c 128,-1,10
 87 496 87 496 87 550 c 0,11,12
 87 620 87 620 142 663 c 128,-1,13
 197 706 197 706 290.5 706 c 128,-1,14
 384 706 384 706 439.5 664.5 c 128,-1,15
 495 623 495 623 495 552 c 0,16,17
 495 499 495 499 463.5 464 c 128,-1,18
 432 429 432 429 380 413 c 1,19,20
 450 395 450 395 493 347 c 128,-1,21
 536 299 536 299 536 220 c 0,0,1
291 11 m 0,22,23
 374.894736842 11 374.894736842 11 410.5 72.5 c 0,24,25
 441 125.181818182 441 125.181818182 441 207.590909091 c 128,-1,26
 441 290 441 290 403 345 c 128,-1,27
 365 400 365 400 292 400 c 0,28,29
 156 400 156 400 144 217 c 1,30,31
 171 258 171 258 223 258 c 0,32,33
 261 258 261 258 287.5 237 c 128,-1,34
 314 216 314 216 314 189.5 c 128,-1,35
 314 163 314 163 304 146.5 c 128,-1,36
 294 130 294 130 281.5 130 c 128,-1,37
 269 130 269 130 269 137 c 0,38,39
 269 139 269 139 281.5 149 c 128,-1,40
 294 159 294 159 294 184.5 c 128,-1,41
 294 210 294 210 273 224.5 c 128,-1,42
 252 239 252 239 220.5 239 c 128,-1,43
 189 239 189 239 167 217.5 c 128,-1,44
 145 196 145 196 145 142.5 c 128,-1,45
 145 89 145 89 184.5 50 c 128,-1,46
 224 11 224 11 291 11 c 0,22,23
375.5 460 m 128,-1,48
 401 497 401 497 401 554.5 c 128,-1,49
 401 612 401 612 371 649 c 128,-1,50
 341 686 341 686 288.5 686 c 128,-1,51
 236 686 236 686 208.5 649.5 c 128,-1,52
 181 613 181 613 181 555.5 c 128,-1,53
 181 498 181 498 206 460.5 c 128,-1,54
 231 423 231 423 290.5 423 c 128,-1,47
 350 423 350 423 375.5 460 c 128,-1,48
EndSplineSet
EndChar

StartChar: six
Encoding: 54 54 62
Width: 554
Flags: HMW
HStem: -10 21<234 318.5 234 351> 405 25<302.5 349.5> 405 149<287 415> 536 170<237 421.5> 686 20<279 380.5 237 388.5>
VStem: 50 108 418 58 418 92<161 290.5> 453 23<589 629.5>
LayerCount: 2
Fore
SplineSet
158 308 m 1,0,1
 164 150 164 150 189 80.5 c 128,-1,2
 214 11 214 11 283 11 c 0,3,4
 342 11 342 11 380 63 c 128,-1,5
 418 115 418 115 418 217.5 c 128,-1,6
 418 320 418 320 392.5 362.5 c 128,-1,7
 367 405 367 405 314 405 c 0,8,9
 229 405 229 405 158 308 c 1,0,1
438.5 567.5 m 128,-1,11
 453 581 453 581 453 611.5 c 128,-1,12
 453 642 453 642 428 664 c 128,-1,13
 403 686 403 686 352 686 c 128,-1,14
 301 686 301 686 260.5 653.5 c 128,-1,15
 220 621 220 621 199 567 c 0,16,17
 157 459 157 459 157 336 c 1,18,19
 191 380 191 380 238.5 405 c 128,-1,20
 286 430 286 430 334 430 c 0,21,22
 415 430 415 430 462.5 378.5 c 128,-1,23
 510 327 510 327 510 226.5 c 128,-1,24
 510 126 510 126 447 58 c 128,-1,25
 384 -10 384 -10 287 -10 c 0,26,27
 233 -10 233 -10 190 14 c 128,-1,28
 147 38 147 38 121.5 74 c 128,-1,29
 96 110 96 110 79 156.5 c 0,30,31
 50 235.823529412 50 235.823529412 50 310.911764706 c 128,-1,32
 50 386 50 386 67 450.5 c 128,-1,33
 84 515 84 515 117.5 573.5 c 128,-1,34
 151 632 151 632 208.5 669 c 128,-1,35
 266 706 266 706 334 706 c 128,-1,36
 402 706 402 706 439 679.5 c 128,-1,37
 476 653 476 653 476 613 c 128,-1,38
 476 573 476 573 454.5 554.5 c 128,-1,39
 433 536 433 536 408.5 536 c 128,-1,40
 384 536 384 536 364.5 546.5 c 128,-1,41
 345 557 345 557 345 567.5 c 128,-1,42
 345 578 345 578 354 578 c 0,43,44
 356 578 356 578 368.5 566 c 128,-1,45
 381 554 381 554 402.5 554 c 128,-1,10
 424 554 424 554 438.5 567.5 c 128,-1,11
EndSplineSet
EndChar

StartChar: nine
Encoding: 57 57 63
Width: 554
Flags: HMW
HStem: -10 21<173.5 273.5 165 317> -10 170<132.5 317> 142 153<139.5 267> 269 26<204 251.5> 686 20<233.5 312.5>
VStem: 44 92<410 538> 78 23<67.5 108 67.5 113.5> 78 58 396 108
LayerCount: 2
Fore
SplineSet
396 391 m 1,0,1
 391 542 391 542 361.5 614 c 128,-1,2
 332 686 332 686 271 686 c 0,3,4
 136 686 136 686 136 471 c 0,5,6
 136 380 136 380 161 337.5 c 128,-1,7
 186 295 186 295 240 295 c 0,8,9
 326 295 326 295 396 391 c 1,0,1
116 128.5 m 128,-1,11
 101 115 101 115 101 84.5 c 128,-1,12
 101 54 101 54 125.5 32.5 c 128,-1,13
 150 11 150 11 201 11 c 128,-1,14
 252 11 252 11 292 43 c 128,-1,15
 332 75 332 75 354 128.5 c 0,16,17
 397 233.068181818 397 233.068181818 397 363 c 1,18,19
 365 319 365 319 316.5 294 c 128,-1,20
 268 269 268 269 220 269 c 0,21,22
 138 269 138 269 91 320.5 c 128,-1,23
 44 372 44 372 44 472.5 c 128,-1,24
 44 573 44 573 107.5 639.5 c 128,-1,25
 171 706 171 706 271 706 c 0,26,27
 336 706 336 706 384.5 672 c 128,-1,28
 433 638 433 638 457.5 584 c 0,29,30
 504 481.510204082 504 481.510204082 504 372 c 0,31,32
 504 267.347826087 504 267.347826087 461 172 c 0,33,34
 438 121 438 121 405.5 80.5 c 128,-1,35
 373 40 373 40 323.5 15 c 128,-1,36
 274 -10 274 -10 213 -10 c 128,-1,37
 152 -10 152 -10 115 16.5 c 128,-1,38
 78 43 78 43 78 83 c 128,-1,39
 78 123 78 123 99.5 141.5 c 128,-1,40
 121 160 121 160 145.5 160 c 128,-1,41
 170 160 170 160 189.5 149.5 c 128,-1,42
 209 139 209 139 209 128.5 c 128,-1,43
 209 118 209 118 200 118 c 0,44,45
 198 118 198 118 185 130 c 128,-1,46
 172 142 172 142 151.5 142 c 128,-1,10
 131 142 131 142 116 128.5 c 128,-1,11
EndSplineSet
EndChar

StartChar: zero
Encoding: 48 48 64
Width: 611
Flags: HMW
HStem: -10 21<264.5 346 264.5 365> 381 20<334.5 375> 686 20<248.5 344>
VStem: 52 100<232.5 389.5 232.5 423.5> 52 232<214 483> 427 131<208.5 558.5> 457 101<235 341.5>
LayerCount: 2
Fore
SplineSet
112 587.5 m 0,0,1
 142 642 142 642 194 674 c 128,-1,2
 246 706 246 706 313.5 706 c 128,-1,3
 381 706 381 706 430 675 c 128,-1,4
 479 644 479 644 506 590.5 c 0,5,6
 558 487.462962963 558 487.462962963 558 343 c 0,7,8
 558 247 558 247 535.5 175.5 c 128,-1,9
 513 104 513 104 475.5 65 c 0,10,11
 403.384615385 -10 403.384615385 -10 301.192307692 -10 c 128,-1,12
 199 -10 199 -10 125.5 77.5 c 128,-1,13
 52 165 52 165 52 321.75 c 128,-1,14
 52 478.5 52 478.5 112 587.5 c 0,0,1
197.5 100.5 m 128,-1,16
 243 11 243 11 305 11 c 128,-1,17
 367 11 367 11 412 101.5 c 128,-1,18
 457 192 457 192 457 323 c 0,19,20
 457 415 457 415 445 470 c 1,21,22
 441 430 441 430 414 405.5 c 128,-1,23
 387 381 387 381 353 381 c 128,-1,24
 319 381 319 381 292 403.5 c 128,-1,25
 265 426 265 426 265 457.5 c 128,-1,26
 265 489 265 489 279.5 505.5 c 128,-1,27
 294 522 294 522 304 522 c 128,-1,28
 314 522 314 522 314 516 c 0,29,30
 314 513 314 513 299 499.5 c 128,-1,31
 284 486 284 486 284 462.5 c 128,-1,32
 284 439 284 439 304.5 420 c 128,-1,33
 325 401 325 401 357.5 401 c 128,-1,34
 390 401 390 401 408.5 434.5 c 128,-1,35
 427 468 427 468 427 525.5 c 128,-1,36
 427 583 427 583 393.5 634.5 c 128,-1,37
 360 686 360 686 313 686 c 128,-1,38
 266 686 266 686 234 648.5 c 128,-1,39
 202 611 202 611 185 553 c 0,40,41
 152 440.411764706 152 440.411764706 152 315.205882353 c 128,-1,15
 152 190 152 190 197.5 100.5 c 128,-1,16
EndSplineSet
EndChar

StartChar: four
Encoding: 52 52 65
Width: 506
Flags: HMW
HStem: 0 22<179 275 379 481 179 275> 220 20<31 275 3 3 379 379 379 470> 693 20G<378 378>
VStem: 275 103<22 713 220 713 240 546 546 546>
LayerCount: 2
Fore
SplineSet
379 22 m 1,0,-1
 481 22 l 1,1,-1
 481 0 l 1,2,-1
 179 0 l 1,3,-1
 179 22 l 1,4,-1
 275 22 l 1,5,-1
 275 220 l 1,6,-1
 3 220 l 1,7,-1
 3 240 l 1,8,-1
 378 713 l 1,9,-1
 378 240 l 1,10,-1
 470 240 l 1,11,-1
 470 220 l 1,12,-1
 379 220 l 1,13,-1
 379 22 l 1,0,-1
275 240 m 1,14,-1
 275 546 l 1,15,-1
 31 240 l 1,16,-1
 275 240 l 1,14,-1
EndSplineSet
EndChar

StartChar: five
Encoding: 53 53 66
Width: 534
Flags: HMW
HStem: -10 21<193 282.5 188.5 319.5> 120 129<124.5 208.5> 229 20<128.5 165.5> 424 20<239.5 301> 424 130<224 398> 538 168<375 384 318 405.5> 600 65<171 189 146 216.5> 641 65<348.5 384 318 398>
VStem: 44 189<161 170> 85 20<371 650 371 697> 213 20<161 189> 339 114<565 633> 401 94<187 285.5>
LayerCount: 2
Fore
SplineSet
96 342 m 1,0,-1
 85 350 l 1,1,-1
 85 697 l 1,2,3
 114 665 114 665 151.5 665 c 128,-1,4
 189 665 189 665 253.5 685.5 c 128,-1,5
 318 706 318 706 349 706 c 0,6,7
 398 706 398 706 425.5 677 c 128,-1,8
 453 648 453 648 453 615 c 128,-1,9
 453 582 453 582 433 560 c 128,-1,10
 413 538 413 538 390.5 538 c 128,-1,11
 368 538 368 538 353.5 549 c 128,-1,12
 339 560 339 560 339 571 c 128,-1,13
 339 582 339 582 344 582 c 128,-1,14
 349 582 349 582 351 575 c 0,15,16
 357 554 357 554 387 554 c 0,17,18
 404 554 404 554 420 567.5 c 128,-1,19
 436 581 436 581 436 598 c 0,20,21
 436 641 436 641 382 641 c 0,22,23
 348 641 348 641 282 620.5 c 128,-1,24
 216 600 216 600 187 600 c 0,25,26
 134 600 134 600 105 650 c 1,27,-1
 105 371 l 1,28,29
 168 444 168 444 274 444 c 128,-1,30
 380 444 380 444 437.5 385 c 128,-1,31
 495 326 495 326 495 241 c 0,32,33
 495 150.111111111 495 150.111111111 428.5 72 c 0,34,35
 397 35 397 35 346.5 12.5 c 128,-1,36
 296 -10 296 -10 242 -10 c 128,-1,37
 188 -10 188 -10 147.5 2 c 128,-1,38
 107 14 107 14 75.5 47 c 128,-1,39
 44 80 44 80 44 133 c 128,-1,40
 44 186 44 186 76 217.5 c 128,-1,41
 108 249 108 249 146 249 c 128,-1,42
 184 249 184 249 208.5 228.5 c 128,-1,43
 233 208 233 208 233 181 c 128,-1,44
 233 154 233 154 223 137 c 128,-1,45
 213 120 213 120 200.5 120 c 128,-1,46
 188 120 188 120 188 129 c 0,47,48
 188 131 188 131 200.5 139.5 c 128,-1,49
 213 148 213 148 213 172.5 c 128,-1,50
 213 197 213 197 194 213 c 128,-1,51
 175 229 175 229 145.5 229 c 128,-1,52
 116 229 116 229 89 201.5 c 128,-1,53
 62 174 62 174 62 130.5 c 128,-1,54
 62 87 62 87 90 58.5 c 0,55,56
 136.666666667 11 136.666666667 11 221.833333333 11 c 128,-1,57
 307 11 307 11 354 81 c 128,-1,58
 401 151 401 151 401 233 c 128,-1,59
 401 315 401 315 361.5 369.5 c 128,-1,60
 322 424 322 424 251 424 c 0,61,62
 163 424 163 424 96 342 c 1,0,-1
EndSplineSet
EndChar

StartChar: exclam
Encoding: 33 33 67
Width: 243
Flags: HMW
HStem: 0 132<103 139> 730 20G<72 172 172 172>
VStem: 55 132<48 84> 72 100<200 750 200 750>
LayerCount: 2
Fore
SplineSet
172 750 m 1,0,-1
 172 200 l 1,1,-1
 72 200 l 1,2,-1
 72 750 l 1,3,-1
 172 750 l 1,0,-1
55 66 m 128,-1,5
 55 93 55 93 74.5 112.5 c 128,-1,6
 94 132 94 132 121 132 c 128,-1,7
 148 132 148 132 167.5 112.5 c 128,-1,8
 187 93 187 93 187 66 c 128,-1,9
 187 39 187 39 167.5 19.5 c 128,-1,10
 148 0 148 0 121 0 c 128,-1,11
 94 0 94 0 74.5 19.5 c 128,-1,4
 55 39 55 39 55 66 c 128,-1,5
EndSplineSet
EndChar

StartChar: exclamdown
Encoding: 161 161 68
Width: 218
Flags: HMW
HStem: -288 21G<59 159 59 59> 330 132<90 126>
VStem: 42 132<378 414> 59 100<-288 262 -288 262>
LayerCount: 2
Fore
SplineSet
159 262 m 1,0,-1
 159 -288 l 1,1,-1
 59 -288 l 1,2,-1
 59 262 l 1,3,-1
 159 262 l 1,0,-1
42 396 m 128,-1,5
 42 423 42 423 61.5 442.5 c 128,-1,6
 81 462 81 462 108 462 c 128,-1,7
 135 462 135 462 154.5 442.5 c 128,-1,8
 174 423 174 423 174 396 c 128,-1,9
 174 369 174 369 154.5 349.5 c 128,-1,10
 135 330 135 330 108 330 c 128,-1,11
 81 330 81 330 61.5 349.5 c 128,-1,4
 42 369 42 369 42 396 c 128,-1,5
EndSplineSet
EndChar

StartChar: period
Encoding: 46 46 69
Width: 206
Flags: HMW
HStem: -2 132<85 121>
VStem: 37 132<46 82>
LayerCount: 2
Fore
SplineSet
37 64 m 128,-1,1
 37 91 37 91 56.5 110.5 c 128,-1,2
 76 130 76 130 103 130 c 128,-1,3
 130 130 130 130 149.5 110.5 c 128,-1,4
 169 91 169 91 169 64 c 128,-1,5
 169 37 169 37 149.5 17.5 c 128,-1,6
 130 -2 130 -2 103 -2 c 128,-1,7
 76 -2 76 -2 56.5 17.5 c 128,-1,0
 37 37 37 37 37 64 c 128,-1,1
EndSplineSet
EndChar

StartChar: comma
Encoding: 44 44 70
Width: 213
Flags: HMW
HStem: -67 199<84 110> -1 133<84 102.5>
VStem: 36 141<48 61 16.5 84>
LayerCount: 2
Fore
SplineSet
36 66 m 128,-1,1
 36 93 36 93 55.5 112.5 c 128,-1,2
 75 132 75 132 107 132 c 0,3,4
 139 132 139 132 158 104 c 128,-1,5
 177 76 177 76 177 39.5 c 0,6,7
 177 3 177 3 149 -32 c 128,-1,8
 121 -67 121 -67 84 -67 c 0,9,10
 67 -67 67 -67 67 -56 c 0,11,12
 67 -48 67 -48 76 -46 c 0,13,14
 124 -31 124 -31 124 7 c 1,15,16
 111 -1 111 -1 92.5 -1 c 0,17,18
 74 -1 74 -1 55 19 c 128,-1,0
 36 39 36 39 36 66 c 128,-1,1
EndSplineSet
EndChar

StartChar: semicolon
Encoding: 59 59 71
Width: 243
Flags: HMW
HStem: -67 199<100 126> -1 133<100 118.5> 329 132<100 136>
VStem: 52 141<48 61 16.5 84>
LayerCount: 2
Fore
SplineSet
52 66 m 128,-1,1
 52 93 52 93 71.5 112.5 c 128,-1,2
 91 132 91 132 123 132 c 0,3,4
 155 132 155 132 174 104 c 128,-1,5
 193 76 193 76 193 39.5 c 0,6,7
 193 3 193 3 165 -32 c 128,-1,8
 137 -67 137 -67 100 -67 c 0,9,10
 83 -67 83 -67 83 -56 c 0,11,12
 83 -48 83 -48 92 -46 c 0,13,14
 140 -31 140 -31 140 7 c 1,15,16
 127 -1 127 -1 108.5 -1 c 0,17,18
 90 -1 90 -1 71 19 c 128,-1,0
 52 39 52 39 52 66 c 128,-1,1
52 395 m 128,-1,20
 52 422 52 422 71.5 441.5 c 128,-1,21
 91 461 91 461 118 461 c 128,-1,22
 145 461 145 461 164.5 441.5 c 128,-1,23
 184 422 184 422 184 395 c 128,-1,24
 184 368 184 368 164.5 348.5 c 128,-1,25
 145 329 145 329 118 329 c 128,-1,26
 91 329 91 329 71.5 348.5 c 128,-1,19
 52 368 52 368 52 395 c 128,-1,20
EndSplineSet
EndChar

StartChar: colon
Encoding: 58 58 72
Width: 234
Flags: HMW
HStem: 1 132<99 135> 329 132<99 135>
VStem: 51 132<49 85 377 413>
LayerCount: 2
Fore
SplineSet
51 395 m 128,-1,1
 51 422 51 422 70.5 441.5 c 128,-1,2
 90 461 90 461 117 461 c 128,-1,3
 144 461 144 461 163.5 441.5 c 128,-1,4
 183 422 183 422 183 395 c 128,-1,5
 183 368 183 368 163.5 348.5 c 128,-1,6
 144 329 144 329 117 329 c 128,-1,7
 90 329 90 329 70.5 348.5 c 128,-1,0
 51 368 51 368 51 395 c 128,-1,1
51 67 m 128,-1,9
 51 94 51 94 70.5 113.5 c 128,-1,10
 90 133 90 133 117 133 c 128,-1,11
 144 133 144 133 163.5 113.5 c 128,-1,12
 183 94 183 94 183 67 c 128,-1,13
 183 40 183 40 163.5 20.5 c 128,-1,14
 144 1 144 1 117 1 c 128,-1,15
 90 1 90 1 70.5 20.5 c 128,-1,8
 51 40 51 40 51 67 c 128,-1,9
EndSplineSet
EndChar

StartChar: bar
Encoding: 124 124 73
Width: 194
Flags: HMW
HStem: -200 21G<67 127 67 67> 710 20G<67 127 127 127>
VStem: 67 60<-200 730 -200 730>
LayerCount: 2
Fore
SplineSet
127 730 m 1,0,-1
 127 -200 l 1,1,-1
 67 -200 l 1,2,-1
 67 730 l 1,3,-1
 127 730 l 1,0,-1
EndSplineSet
EndChar

StartChar: equal
Encoding: 61 61 74
Width: 550
Flags: HMW
HStem: 184 60<69 481 69 481> 350 60<69 481 69 481>
LayerCount: 2
Fore
SplineSet
69 410 m 1,0,-1
 481 410 l 1,1,-1
 481 350 l 1,2,-1
 69 350 l 1,3,-1
 69 410 l 1,0,-1
69 244 m 1,4,-1
 481 244 l 1,5,-1
 481 184 l 1,6,-1
 69 184 l 1,7,-1
 69 244 l 1,4,-1
EndSplineSet
EndChar

StartChar: plus
Encoding: 43 43 75
Width: 480
Flags: HMW
HStem: 103 21G<211 271 211 211> 279 60<34 211 34 211 271 446> 495 20G<211 271 271 271>
VStem: 211 60<103 279 103 279 339 515>
LayerCount: 2
Fore
SplineSet
211 339 m 1,0,-1
 211 515 l 1,1,-1
 271 515 l 1,2,-1
 271 339 l 1,3,-1
 446 339 l 1,4,-1
 446 279 l 1,5,-1
 271 279 l 1,6,-1
 271 103 l 1,7,-1
 211 103 l 1,8,-1
 211 279 l 1,9,-1
 34 279 l 1,10,-1
 34 339 l 1,11,-1
 211 339 l 1,0,-1
EndSplineSet
EndChar

StartChar: hyphen
Encoding: 45 45 76
Width: 404
Flags: HMW
HStem: 240 60<51 353 51 353>
LayerCount: 2
Fore
SplineSet
51 300 m 1,0,-1
 353 300 l 1,1,-1
 353 240 l 1,2,-1
 51 240 l 1,3,-1
 51 300 l 1,0,-1
EndSplineSet
EndChar

StartChar: underscore
Encoding: 95 95 77
Width: 814
Flags: HMW
HStem: -200 60<128 686 128 686>
LayerCount: 2
Fore
SplineSet
128 -140 m 1,0,-1
 686 -140 l 1,1,-1
 686 -200 l 1,2,-1
 128 -200 l 1,3,-1
 128 -140 l 1,0,-1
EndSplineSet
EndChar

StartChar: endash
Encoding: 8211 8211 78
Width: 500
Flags: HMW
HStem: 240 60<51 449 51 449>
LayerCount: 2
Fore
SplineSet
51 300 m 1,0,-1
 449 300 l 1,1,-1
 449 240 l 1,2,-1
 51 240 l 1,3,-1
 51 300 l 1,0,-1
EndSplineSet
EndChar

StartChar: emdash
Encoding: 8212 8212 79
Width: 619
Flags: HMW
HStem: 240 60<28 586 28 586>
LayerCount: 2
Fore
SplineSet
28 300 m 1,0,-1
 586 300 l 1,1,-1
 586 240 l 1,2,-1
 28 240 l 1,3,-1
 28 300 l 1,0,-1
EndSplineSet
EndChar

StartChar: uni00AD
Encoding: 173 173 80
Width: 404
Flags: HMW
HStem: 240 60<51 353 51 353>
LayerCount: 2
Fore
SplineSet
51 300 m 1,0,-1
 353 300 l 1,1,-1
 353 240 l 1,2,-1
 51 240 l 1,3,-1
 51 300 l 1,0,-1
EndSplineSet
EndChar

StartChar: logicalnot
Encoding: 172 172 81
Width: 616
Flags: HMW
HStem: 402 60<55 483 55 543>
VStem: 483 60<277 402 402 402>
LayerCount: 2
Fore
SplineSet
55 462 m 1,0,-1
 543 462 l 1,1,-1
 543 277 l 1,2,-1
 483 277 l 1,3,-1
 483 402 l 1,4,-1
 55 402 l 1,5,-1
 55 462 l 1,0,-1
EndSplineSet
EndChar

StartChar: brokenbar
Encoding: 166 166 82
Width: 198
Flags: HMW
HStem: -200 21G<69 129 69 69> 710 20G<69 129 129 129>
VStem: 69 60<-200 190 -200 190 340 730>
LayerCount: 2
Fore
SplineSet
129 730 m 1,0,-1
 129 340 l 1,1,-1
 69 340 l 1,2,-1
 69 730 l 1,3,-1
 129 730 l 1,0,-1
129 190 m 1,4,-1
 129 -200 l 1,5,-1
 69 -200 l 1,6,-1
 69 190 l 1,7,-1
 129 190 l 1,4,-1
EndSplineSet
EndChar

StartChar: backslash
Encoding: 92 92 83
Width: 503
Flags: HMW
HStem: -49 21G<414 482 414 414> 710 20G<21 89 89 89>
LayerCount: 2
Fore
SplineSet
89 730 m 1,0,-1
 482 -49 l 1,1,-1
 414 -49 l 1,2,-1
 21 730 l 1,3,-1
 89 730 l 1,0,-1
EndSplineSet
EndChar

StartChar: slash
Encoding: 47 47 84
Width: 503
Flags: HMW
HStem: -49 21G<21 21 21 89> 710 20G<414 482 482 482>
LayerCount: 2
Fore
SplineSet
21 -49 m 1,0,-1
 414 730 l 1,1,-1
 482 730 l 1,2,-1
 89 -49 l 1,3,-1
 21 -49 l 1,0,-1
EndSplineSet
EndChar

StartChar: bracketleft
Encoding: 91 91 85
Width: 264
Flags: HMW
HStem: -147 60<128 253 128 253> 663 60<128 253 128 128>
VStem: 68 60<-87 663 -87 723> 68 185<-147 -87 663 723>
LayerCount: 2
Fore
SplineSet
68 -147 m 1,0,-1
 68 723 l 1,1,-1
 253 723 l 1,2,-1
 253 663 l 1,3,-1
 128 663 l 1,4,-1
 128 -87 l 1,5,-1
 253 -87 l 1,6,-1
 253 -147 l 1,7,-1
 68 -147 l 1,0,-1
EndSplineSet
EndChar

StartChar: bracketright
Encoding: 93 93 86
Width: 264
Flags: HMW
HStem: -147 60<11 136 11 196 11 136> 663 60<11 136 11 196>
VStem: 11 185<-147 -87 -87 -87 663 723> 136 60<-87 663 663 663>
LayerCount: 2
Fore
SplineSet
196 -147 m 1,0,-1
 11 -147 l 1,1,-1
 11 -87 l 1,2,-1
 136 -87 l 1,3,-1
 136 663 l 1,4,-1
 11 663 l 1,5,-1
 11 723 l 1,6,-1
 196 723 l 1,7,-1
 196 -147 l 1,0,-1
EndSplineSet
EndChar

StartChar: numbersign
Encoding: 35 35 87
Width: 625
Flags: HMW
HStem: 0 21G<37 105 37 37 253 253 253 321> 201 60<35 113 35 136 204 329 35 181 420 516> 428 60<109 200 109 223 290 416 109 267 506 590> 680 20G<304 371 371 371 520 587 587 587>
LayerCount: 2
Fore
SplineSet
181 201 m 1,0,-1
 105 0 l 1,1,-1
 37 0 l 1,2,-1
 113 201 l 1,3,-1
 35 201 l 1,4,-1
 35 261 l 1,5,-1
 136 261 l 1,6,-1
 200 428 l 1,7,-1
 109 428 l 1,8,-1
 109 488 l 1,9,-1
 223 488 l 1,10,-1
 304 700 l 1,11,-1
 371 700 l 1,12,-1
 290 488 l 1,13,-1
 439 488 l 1,14,-1
 520 700 l 1,15,-1
 587 700 l 1,16,-1
 506 488 l 1,17,-1
 590 488 l 1,18,-1
 590 428 l 1,19,-1
 483 428 l 1,20,-1
 420 261 l 1,21,-1
 516 261 l 1,22,-1
 516 201 l 1,23,-1
 397 201 l 1,24,-1
 321 0 l 1,25,-1
 253 0 l 1,26,-1
 329 201 l 1,27,-1
 181 201 l 1,0,-1
267 428 m 1,28,-1
 204 261 l 1,29,-1
 352 261 l 1,30,-1
 416 428 l 1,31,-1
 267 428 l 1,28,-1
EndSplineSet
EndChar

StartChar: quotedbl
Encoding: 34 34 88
Width: 410
Flags: HMW
HStem: 467 233<72.5 100 292.5 320>
VStem: 25 135<625 636.5 579.5 646.5> 245 135<625 636.5 579.5 646.5>
LayerCount: 2
Fore
SplineSet
88 467 m 0,0,1
 75 467 75 467 73.5 486 c 128,-1,2
 72 505 72 505 70 533.5 c 128,-1,3
 68 562 68 562 55.5 576.5 c 128,-1,4
 43 591 43 591 38 597.5 c 0,5,6
 25 614.4 25 614.4 25 634.7 c 128,-1,7
 25 655 25 655 42.5 677.5 c 128,-1,8
 60 700 60 700 88 700 c 0,9,10
 160 700 160 700 160 613 c 0,11,12
 160 566 160 566 133.5 516.5 c 128,-1,13
 107 467 107 467 88 467 c 0,0,1
308 467 m 0,14,15
 295 467 295 467 293.5 486 c 128,-1,16
 292 505 292 505 290 533.5 c 128,-1,17
 288 562 288 562 275.5 576.5 c 128,-1,18
 263 591 263 591 258 597.5 c 0,19,20
 245 614.4 245 614.4 245 634.7 c 128,-1,21
 245 655 245 655 262.5 677.5 c 128,-1,22
 280 700 280 700 308 700 c 0,23,24
 380 700 380 700 380 613 c 0,25,26
 380 566 380 566 353.5 516.5 c 128,-1,27
 327 467 327 467 308 467 c 0,14,15
EndSplineSet
EndChar

StartChar: quotesingle
Encoding: 39 39 89
Width: 190
Flags: HMW
HStem: 467 233<72.5 100>
VStem: 25 135<625 636.5 579.5 646.5>
LayerCount: 2
Fore
SplineSet
88 467 m 0,0,1
 75 467 75 467 73.5 486 c 128,-1,2
 72 505 72 505 70 533.5 c 128,-1,3
 68 562 68 562 55.5 576.5 c 128,-1,4
 43 591 43 591 38 597.5 c 0,5,6
 25 614.4 25 614.4 25 634.7 c 128,-1,7
 25 655 25 655 42.5 677.5 c 128,-1,8
 60 700 60 700 88 700 c 0,9,10
 160 700 160 700 160 613 c 0,11,12
 160 566 160 566 133.5 516.5 c 128,-1,13
 107 467 107 467 88 467 c 0,0,1
EndSplineSet
EndChar

StartChar: quoteright
Encoding: 8217 8217 90
Width: 189
Flags: HMW
HStem: 551 199<72 98> 617 133<72 90.5>
VStem: 24 141<666 679 634.5 702>
LayerCount: 2
Fore
SplineSet
24 684 m 128,-1,1
 24 711 24 711 43.5 730.5 c 128,-1,2
 63 750 63 750 95 750 c 0,3,4
 127 750 127 750 146 722 c 128,-1,5
 165 694 165 694 165 657.5 c 0,6,7
 165 621 165 621 137 586 c 128,-1,8
 109 551 109 551 72 551 c 0,9,10
 55 551 55 551 55 562 c 0,11,12
 55 570 55 570 64 572 c 0,13,14
 112 587 112 587 112 625 c 1,15,16
 99 617 99 617 80.5 617 c 0,17,18
 62 617 62 617 43 637 c 128,-1,0
 24 657 24 657 24 684 c 128,-1,1
EndSplineSet
EndChar

StartChar: quoteleft
Encoding: 8216 8216 91
Width: 197
Flags: HMW
HStem: 551 133<103.5 122> 551 199<96 122>
VStem: 29 141<622 635 599 666.5>
LayerCount: 2
Fore
SplineSet
170 617 m 128,-1,1
 170 590 170 590 150.5 570.5 c 128,-1,2
 131 551 131 551 99 551 c 0,3,4
 67 551 67 551 48 579 c 128,-1,5
 29 607 29 607 29 643.5 c 0,6,7
 29 680 29 680 57 715 c 128,-1,8
 85 750 85 750 122 750 c 0,9,10
 139 750 139 750 139 739 c 0,11,12
 139 731 139 731 130 729 c 0,13,14
 82 714 82 714 82 676 c 1,15,16
 95 684 95 684 113.5 684 c 0,17,18
 132 684 132 684 151 664 c 128,-1,0
 170 644 170 644 170 617 c 128,-1,1
EndSplineSet
EndChar

StartChar: quotedblleft
Encoding: 8220 8220 92
Width: 426
Flags: HMW
HStem: 551 133<103.5 122 332.5 351> 551 199<96 122 325 351>
VStem: 29 141<622 635 599 666.5> 258 141<622 635 599 666.5>
LayerCount: 2
Fore
SplineSet
170 617 m 128,-1,1
 170 590 170 590 150.5 570.5 c 128,-1,2
 131 551 131 551 99 551 c 0,3,4
 67 551 67 551 48 579 c 128,-1,5
 29 607 29 607 29 643.5 c 0,6,7
 29 680 29 680 57 715 c 128,-1,8
 85 750 85 750 122 750 c 0,9,10
 139 750 139 750 139 739 c 0,11,12
 139 731 139 731 130 729 c 0,13,14
 82 714 82 714 82 676 c 1,15,16
 95 684 95 684 113.5 684 c 0,17,18
 132 684 132 684 151 664 c 128,-1,0
 170 644 170 644 170 617 c 128,-1,1
399 617 m 128,-1,20
 399 590 399 590 379.5 570.5 c 128,-1,21
 360 551 360 551 328 551 c 0,22,23
 296 551 296 551 277 579 c 128,-1,24
 258 607 258 607 258 643.5 c 0,25,26
 258 680 258 680 286 715 c 128,-1,27
 314 750 314 750 351 750 c 0,28,29
 368 750 368 750 368 739 c 0,30,31
 368 731 368 731 359 729 c 0,32,33
 311 714 311 714 311 676 c 1,34,35
 324 684 324 684 342.5 684 c 0,36,37
 361 684 361 684 380 664 c 128,-1,19
 399 644 399 644 399 617 c 128,-1,20
EndSplineSet
EndChar

StartChar: quotedblright
Encoding: 8221 8221 93
Width: 418
Flags: HMW
HStem: 551 199<72 98 301 327> 617 133<72 90.5 301 319.5>
VStem: 24 141<666 679 634.5 702> 253 141<666 679 634.5 702>
LayerCount: 2
Fore
SplineSet
253 684 m 128,-1,1
 253 711 253 711 272.5 730.5 c 128,-1,2
 292 750 292 750 324 750 c 0,3,4
 356 750 356 750 375 722 c 128,-1,5
 394 694 394 694 394 657.5 c 0,6,7
 394 621 394 621 366 586 c 128,-1,8
 338 551 338 551 301 551 c 0,9,10
 284 551 284 551 284 562 c 0,11,12
 284 570 284 570 293 572 c 0,13,14
 341 587 341 587 341 625 c 1,15,16
 328 617 328 617 309.5 617 c 0,17,18
 291 617 291 617 272 637 c 128,-1,0
 253 657 253 657 253 684 c 128,-1,1
24 684 m 128,-1,20
 24 711 24 711 43.5 730.5 c 128,-1,21
 63 750 63 750 95 750 c 0,22,23
 127 750 127 750 146 722 c 128,-1,24
 165 694 165 694 165 657.5 c 0,25,26
 165 621 165 621 137 586 c 128,-1,27
 109 551 109 551 72 551 c 0,28,29
 55 551 55 551 55 562 c 0,30,31
 55 570 55 570 64 572 c 0,32,33
 112 587 112 587 112 625 c 1,34,35
 99 617 99 617 80.5 617 c 0,36,37
 62 617 62 617 43 637 c 128,-1,19
 24 657 24 657 24 684 c 128,-1,20
EndSplineSet
EndChar

StartChar: parenleft
Encoding: 40 40 94
Width: 347
Flags: HMW
HStem: -90 24<237.5 301> 673 24<237.5 301 198 310.5>
VStem: 36 60<220 390 220 416>
LayerCount: 2
Fore
SplineSet
96 305 m 128,-1,1
 96 217 96 217 119.5 133.5 c 128,-1,2
 143 50 143 50 192 -8 c 128,-1,3
 241 -66 241 -66 304 -66 c 0,4,5
 318 -66 318 -66 346 -60 c 1,6,-1
 346 -84 l 1,7,8
 320 -90 320 -90 291 -90 c 0,9,10
 202 -90 202 -90 143 -33.5 c 128,-1,11
 84 23 84 23 60 109.5 c 128,-1,12
 36 196 36 196 36 294 c 0,13,14
 36 392 36 392 50 460.5 c 128,-1,15
 64 529 64 529 93.5 583 c 128,-1,16
 123 637 123 637 173 667 c 128,-1,17
 223 697 223 697 291 697 c 0,18,19
 320 697 320 697 346 691 c 1,20,-1
 346 667 l 1,21,22
 318 673 318 673 304 673 c 0,23,24
 241 673 241 673 192 615.5 c 128,-1,25
 143 558 143 558 119.5 475.5 c 128,-1,0
 96 393 96 393 96 305 c 128,-1,1
EndSplineSet
EndChar

StartChar: parenright
Encoding: 41 41 95
Width: 347
Flags: HMW
HStem: -90 24<46 109.5 36.5 149> 673 24<46 109.5>
VStem: 251 60<220 390>
LayerCount: 2
Fore
SplineSet
251 305 m 128,-1,1
 251 393 251 393 227.5 475.5 c 128,-1,2
 204 558 204 558 155 615.5 c 128,-1,3
 106 673 106 673 43 673 c 0,4,5
 30 673 30 673 1 667 c 1,6,-1
 1 691 l 1,7,8
 27 697 27 697 56 697 c 0,9,10
 124 697 124 697 174 667 c 128,-1,11
 224 637 224 637 253.5 583 c 0,12,13
 311 477.745762712 311 477.745762712 311 309 c 0,14,15
 311 196 311 196 287 109.5 c 128,-1,16
 263 23 263 23 204 -33.5 c 128,-1,17
 145 -90 145 -90 56 -90 c 0,18,19
 26 -90 26 -90 1 -84 c 1,20,-1
 1 -60 l 1,21,22
 29 -66 29 -66 43 -66 c 0,23,24
 106 -66 106 -66 155 -8 c 128,-1,25
 204 50 204 50 227.5 133.5 c 128,-1,0
 251 217 251 217 251 305 c 128,-1,1
EndSplineSet
EndChar

StartChar: question
Encoding: 63 63 96
Width: 412
Flags: HMW
HStem: 0 132<144 180> 469 20<118.5 150.5> 674 20<157 233.5>
VStem: 40 20<541 605 541 610.5> 96 132<48 84> 137 29<258 294 209.5 374.5> 197 31 324 54<496 566.5 423 596.5>
LayerCount: 2
Fore
SplineSet
96 66 m 128,-1,1
 96 93 96 93 115.5 112.5 c 128,-1,2
 135 132 135 132 162 132 c 128,-1,3
 189 132 189 132 208.5 112.5 c 128,-1,4
 228 93 228 93 228 66 c 128,-1,5
 228 39 228 39 208.5 19.5 c 128,-1,6
 189 0 189 0 162 0 c 128,-1,7
 135 0 135 0 115.5 19.5 c 128,-1,0
 96 39 96 39 96 66 c 128,-1,1
168 187 m 1,8,-1
 145 187 l 1,9,10
 137 228 137 228 137 273 c 128,-1,11
 137 318 137 318 151 354.5 c 128,-1,12
 165 391 165 391 185.5 409.5 c 128,-1,13
 206 428 206 428 230.5 445 c 128,-1,14
 255 462 255 462 275.5 474.5 c 0,15,16
 324 504.073170732 324 504.073170732 324 559.036585366 c 128,-1,17
 324 614 324 614 289 644 c 128,-1,18
 254 674 254 674 195 674 c 128,-1,19
 136 674 136 674 98 647 c 128,-1,20
 60 620 60 620 60 575 c 128,-1,21
 60 530 60 530 83 509.5 c 128,-1,22
 106 489 106 489 133 489 c 128,-1,23
 160 489 160 489 178.5 505 c 128,-1,24
 197 521 197 521 197 541.5 c 0,25,26
 197 566.666666667 197 566.666666667 174 582 c 0,27,28
 168 586 168 586 168 591 c 0,29,30
 168 599 168 599 178 599 c 0,31,32
 191.935483871 599 191.935483871 599 204.467741935 580.5 c 128,-1,33
 217 562 217 562 217 534 c 128,-1,34
 217 506 217 506 190.5 487.5 c 128,-1,35
 164 469 164 469 130.5 469 c 128,-1,36
 97 469 97 469 68.5 496.5 c 128,-1,37
 40 524 40 524 40 576.5 c 128,-1,38
 40 629 40 629 84.5 661.5 c 128,-1,39
 129 694 129 694 206 694 c 128,-1,40
 283 694 283 694 330.5 644 c 128,-1,41
 378 594 378 594 378 516 c 0,42,43
 378 465 378 465 356 429.5 c 128,-1,44
 334 394 334 394 303 374.5 c 128,-1,45
 272 355 272 355 241 336.5 c 0,46,47
 166 291.741935484 166 291.741935484 166 215 c 0,48,49
 166 195 166 195 168 187 c 1,8,-1
EndSplineSet
EndChar

StartChar: questiondown
Encoding: 191 191 97
Width: 403
Flags: HMW
HStem: -232 20<175.5 252 175.5 255.5> -137 21G<230 234> -27 20<258.5 290.5> 330 132<229 265>
VStem: 31 54<-104.5 -34 -134.5 39> 181 31 181 132<378 414> 243 29<168 204 87.5 252.5> 349 20<-143 -79>
LayerCount: 2
Fore
SplineSet
313 396 m 128,-1,1
 313 369 313 369 293.5 349.5 c 128,-1,2
 274 330 274 330 247 330 c 128,-1,3
 220 330 220 330 200.5 349.5 c 128,-1,4
 181 369 181 369 181 396 c 128,-1,5
 181 423 181 423 200.5 442.5 c 128,-1,6
 220 462 220 462 247 462 c 128,-1,7
 274 462 274 462 293.5 442.5 c 128,-1,0
 313 423 313 423 313 396 c 128,-1,1
240 275 m 1,8,-1
 264 275 l 1,9,10
 272 234 272 234 272 189 c 128,-1,11
 272 144 272 144 258 107.5 c 128,-1,12
 244 71 244 71 223.5 52.5 c 128,-1,13
 203 34 203 34 178.5 17 c 128,-1,14
 154 0 154 0 133.5 -12.5 c 0,15,16
 85 -42.0731707317 85 -42.0731707317 85 -97.0365853659 c 128,-1,17
 85 -152 85 -152 120 -182 c 128,-1,18
 155 -212 155 -212 214 -212 c 128,-1,19
 273 -212 273 -212 311 -185 c 128,-1,20
 349 -158 349 -158 349 -113 c 128,-1,21
 349 -68 349 -68 326 -47.5 c 128,-1,22
 303 -27 303 -27 276 -27 c 128,-1,23
 249 -27 249 -27 230.5 -43 c 128,-1,24
 212 -59 212 -59 212 -79.5 c 0,25,26
 212 -104.666666667 212 -104.666666667 235 -120 c 0,27,28
 241 -124 241 -124 241 -129 c 0,29,30
 241 -137 241 -137 231 -137 c 0,31,32
 217.064516129 -137 217.064516129 -137 204.532258065 -118.5 c 128,-1,33
 192 -100 192 -100 192 -72 c 128,-1,34
 192 -44 192 -44 218.5 -25.5 c 128,-1,35
 245 -7 245 -7 278.5 -7 c 128,-1,36
 312 -7 312 -7 340.5 -34.5 c 128,-1,37
 369 -62 369 -62 369 -114.5 c 128,-1,38
 369 -167 369 -167 324.5 -199.5 c 128,-1,39
 280 -232 280 -232 203 -232 c 128,-1,40
 126 -232 126 -232 78.5 -182 c 128,-1,41
 31 -132 31 -132 31 -54 c 0,42,43
 31 -3 31 -3 53 32.5 c 128,-1,44
 75 68 75 68 106 87.5 c 128,-1,45
 137 107 137 107 168 125.5 c 0,46,47
 243 170.258064516 243 170.258064516 243 247 c 0,48,49
 243 248 243 248 240 275 c 1,8,-1
EndSplineSet
EndChar

StartChar: asciitilde
Encoding: 126 126 98
Width: 639
Flags: HMW
HStem: 132 29 132 46<421.5 501.5> 333 46<140.5 218> 350 29
VStem: 33 21<219 270.5 219 276> 33 171<184 276> 437 170<236 326> 587 20<243 292>
LayerCount: 2
Fore
SplineSet
223 312.5 m 128,-1,1
 193 333 193 333 158 333 c 128,-1,2
 123 333 123 333 88.5 307.5 c 128,-1,3
 54 282 54 282 54 245 c 128,-1,4
 54 208 54 208 76.5 184.5 c 128,-1,5
 99 161 99 161 128 161 c 128,-1,6
 157 161 157 161 170 174.5 c 128,-1,7
 183 188 183 188 186.5 201 c 128,-1,8
 190 214 190 214 193 214 c 0,9,10
 204 214 204 214 204 195.5 c 128,-1,11
 204 177 204 177 181 159.5 c 128,-1,12
 158 142 158 142 126 142 c 128,-1,13
 94 142 94 142 63.5 171 c 128,-1,14
 33 200 33 200 33 247 c 128,-1,15
 33 294 33 294 77.5 336.5 c 128,-1,16
 122 379 122 379 180 379 c 0,17,18
 241.681818182 379 241.681818182 379 292.5 327 c 0,19,20
 314.244318182 304.75 314.244318182 304.75 380.5 230 c 0,21,22
 400 208 400 208 426.5 193 c 128,-1,23
 453 178 453 178 486.5 178 c 128,-1,24
 520 178 520 178 553.5 204.5 c 128,-1,25
 587 231 587 231 587 267 c 128,-1,26
 587 303 587 303 564.5 326.5 c 128,-1,27
 542 350 542 350 504.5 350 c 128,-1,28
 467 350 467 350 455 310 c 0,29,30
 451 299 451 299 448 299 c 0,31,32
 437 299 437 299 437 316 c 128,-1,33
 437 333 437 333 459 351 c 128,-1,34
 481 369 481 369 514 369 c 128,-1,35
 547 369 547 369 577 339.5 c 128,-1,36
 607 310 607 310 607 264 c 128,-1,37
 607 218 607 218 563.5 175 c 128,-1,38
 520 132 520 132 462 132 c 0,39,40
 393.830508475 132 393.830508475 132 330.5 202.5 c 0,41,42
 304 232 304 232 278.5 262 c 128,-1,0
 253 292 253 292 223 312.5 c 128,-1,1
EndSplineSet
EndChar

StartChar: tilde
Encoding: 732 732 99
Width: 396
Flags: HMW
HStem: 521 20<71 91 71 92.5> 521 38<271 306.5 271 311> 636 38<86.5 122> 654 20<302 322>
VStem: 25 20<571.5 597 571.5 603> 348 20<598 623.5>
LayerCount: 2
Fore
SplineSet
199 621 m 0,0,1
 218 599 218 599 227.5 589 c 128,-1,2
 237 579 237 579 254.5 569 c 128,-1,3
 272 559 272 559 293.5 559 c 128,-1,4
 315 559 315 559 331.5 574.5 c 128,-1,5
 348 590 348 590 348 610 c 128,-1,6
 348 630 348 630 337.5 642 c 128,-1,7
 327 654 327 654 305.5 654 c 128,-1,8
 284 654 284 654 277 629 c 0,9,10
 275 623 275 623 273 623 c 0,11,12
 266 623 266 623 266 638 c 128,-1,13
 266 653 266 653 280.5 663.5 c 128,-1,14
 295 674 295 674 314 674 c 128,-1,15
 333 674 333 674 350.5 656 c 128,-1,16
 368 638 368 638 368 608 c 128,-1,17
 368 578 368 578 345 549.5 c 128,-1,18
 322 521 322 521 280 521 c 128,-1,19
 238 521 238 521 197 570 c 0,20,21
 177 594 177 594 166.5 605 c 0,22,23
 136.909090909 636 136.909090909 636 107.454545455 636 c 128,-1,24
 78 636 78 636 61.5 620.5 c 128,-1,25
 45 605 45 605 45 585 c 128,-1,26
 45 565 45 565 55.5 553 c 128,-1,27
 66 541 66 541 87.5 541 c 128,-1,28
 109 541 109 541 116 566 c 0,29,30
 118 572 118 572 120 572 c 0,31,32
 127 572 127 572 127 557 c 128,-1,33
 127 542 127 542 112.5 531.5 c 128,-1,34
 98 521 98 521 79 521 c 128,-1,35
 60 521 60 521 42.5 539 c 128,-1,36
 25 557 25 557 25 587 c 128,-1,37
 25 617 25 617 48 645.5 c 128,-1,38
 71 674 71 674 112.5 674 c 128,-1,39
 154 674 154 674 199 621 c 0,0,1
EndSplineSet
EndChar

StartChar: quotesinglbase
Encoding: 8218 8218 100
Width: 213
Flags: HMW
HStem: -67 199<84 110> -1 133<84 102.5>
VStem: 36 141<48 61 16.5 84>
LayerCount: 2
Fore
SplineSet
36 66 m 128,-1,1
 36 93 36 93 55.5 112.5 c 128,-1,2
 75 132 75 132 107 132 c 0,3,4
 139 132 139 132 158 104 c 128,-1,5
 177 76 177 76 177 39.5 c 0,6,7
 177 3 177 3 149 -32 c 128,-1,8
 121 -67 121 -67 84 -67 c 0,9,10
 67 -67 67 -67 67 -56 c 0,11,12
 67 -48 67 -48 76 -46 c 0,13,14
 124 -31 124 -31 124 7 c 1,15,16
 111 -1 111 -1 92.5 -1 c 0,17,18
 74 -1 74 -1 55 19 c 128,-1,0
 36 39 36 39 36 66 c 128,-1,1
EndSplineSet
EndChar

StartChar: quotedblbase
Encoding: 8222 8222 101
Width: 433
Flags: HMW
HStem: -67 199<84.5 108.5 304.5 328.5> -1 133<84.5 102.5 304.5 322.5>
VStem: 36 141<48 62 15 84> 256 141<48 62 15 84>
LayerCount: 2
Fore
SplineSet
36 66 m 128,-1,1
 36 93 36 93 55.5 112.5 c 128,-1,2
 75 132 75 132 107 132 c 0,3,4
 139 132 139 132 158 104 c 128,-1,5
 177 76 177 76 177 39 c 0,6,7
 177 2 177 2 148.5 -32.5 c 128,-1,8
 120 -67 120 -67 87 -67 c 0,9,10
 67 -67 67 -67 67 -56 c 0,11,12
 67 -49 67 -49 79 -45 c 0,13,14
 91 -41 91 -41 99 -36.5 c 128,-1,15
 107 -32 107 -32 115.5 -20.5 c 128,-1,16
 124 -9 124 -9 124 7 c 1,17,18
 111 -1 111 -1 92.5 -1 c 0,19,20
 74 -1 74 -1 55 19 c 128,-1,0
 36 39 36 39 36 66 c 128,-1,1
256 66 m 128,-1,22
 256 93 256 93 275.5 112.5 c 128,-1,23
 295 132 295 132 327 132 c 0,24,25
 359 132 359 132 378 104 c 128,-1,26
 397 76 397 76 397 39 c 0,27,28
 397 2 397 2 368.5 -32.5 c 128,-1,29
 340 -67 340 -67 307 -67 c 0,30,31
 287 -67 287 -67 287 -56 c 0,32,33
 287 -49 287 -49 299 -45 c 0,34,35
 311 -41 311 -41 319 -36.5 c 128,-1,36
 327 -32 327 -32 335.5 -20.5 c 128,-1,37
 344 -9 344 -9 344 7 c 1,38,39
 331 -1 331 -1 312.5 -1 c 0,40,41
 294 -1 294 -1 275 19 c 128,-1,21
 256 39 256 39 256 66 c 128,-1,22
EndSplineSet
EndChar

StartChar: ellipsis
Encoding: 8230 8230 102
Width: 544
Flags: HMW
HStem: -2 132<85 121 254 290 423 459>
VStem: 37 132<46 82> 206 132<46 82> 375 132<46 82>
CounterMasks: 1 70
LayerCount: 2
Fore
SplineSet
37 64 m 128,-1,1
 37 91 37 91 56.5 110.5 c 128,-1,2
 76 130 76 130 103 130 c 128,-1,3
 130 130 130 130 149.5 110.5 c 128,-1,4
 169 91 169 91 169 64 c 128,-1,5
 169 37 169 37 149.5 17.5 c 128,-1,6
 130 -2 130 -2 103 -2 c 128,-1,7
 76 -2 76 -2 56.5 17.5 c 128,-1,0
 37 37 37 37 37 64 c 128,-1,1
206 64 m 128,-1,9
 206 91 206 91 225.5 110.5 c 128,-1,10
 245 130 245 130 272 130 c 128,-1,11
 299 130 299 130 318.5 110.5 c 128,-1,12
 338 91 338 91 338 64 c 128,-1,13
 338 37 338 37 318.5 17.5 c 128,-1,14
 299 -2 299 -2 272 -2 c 128,-1,15
 245 -2 245 -2 225.5 17.5 c 128,-1,8
 206 37 206 37 206 64 c 128,-1,9
375 64 m 128,-1,17
 375 91 375 91 394.5 110.5 c 128,-1,18
 414 130 414 130 441 130 c 128,-1,19
 468 130 468 130 487.5 110.5 c 128,-1,20
 507 91 507 91 507 64 c 128,-1,21
 507 37 507 37 487.5 17.5 c 128,-1,22
 468 -2 468 -2 441 -2 c 128,-1,23
 414 -2 414 -2 394.5 17.5 c 128,-1,16
 375 37 375 37 375 64 c 128,-1,17
EndSplineSet
EndChar

StartChar: less
Encoding: 60 60 103
Width: 560
Flags: HMW
HStem: 83 21G<496 496> 499 20G<496 496>
LayerCount: 2
Fore
SplineSet
496 83 m 1,0,-1
 29 300 l 1,1,-1
 496 519 l 1,2,-1
 496 455 l 1,3,-1
 149 300 l 1,4,-1
 496 147 l 1,5,-1
 496 83 l 1,0,-1
EndSplineSet
EndChar

StartChar: greater
Encoding: 62 62 104
Width: 560
Flags: HMW
HStem: 83 21G<64 64> 499 20G<64 64>
LayerCount: 2
Fore
SplineSet
531 300 m 1,0,-1
 64 83 l 1,1,-1
 64 147 l 1,2,-1
 411 300 l 1,3,-1
 64 455 l 1,4,-1
 64 519 l 1,5,-1
 531 300 l 1,0,-1
EndSplineSet
EndChar

StartChar: braceright
Encoding: 125 125 105
Width: 286
Flags: HMW
HStem: -90 24<45 73 36.5 107> 800 24<45 73>
VStem: 115 57<19 59 675 715>
LayerCount: 2
Fore
SplineSet
115 35 m 1,0,-1
 107 196 l 1,1,2
 107 330 107 330 189 367 c 1,3,4
 107 404 107 404 107 538 c 1,5,-1
 115 699 l 1,6,7
 115 749 115 749 100 774.5 c 128,-1,8
 85 800 85 800 43 800 c 0,9,10
 30 800 30 800 1 794 c 1,11,-1
 1 818 l 1,12,13
 27 824 27 824 59.5 824 c 128,-1,14
 92 824 92 824 116.5 813 c 128,-1,15
 141 802 141 802 152.5 779.5 c 0,16,17
 172 741.347826087 172 741.347826087 172 672 c 2,18,-1
 171 592 l 1,19,20
 171 442 171 442 289 367 c 1,21,22
 171 292 171 292 171 142 c 1,23,-1
 172 62 l 2,24,25
 172 -7.34782608696 172 -7.34782608696 152.5 -45.5 c 0,26,27
 129.755555556 -90 129.755555556 -90 54 -90 c 0,28,29
 26 -90 26 -90 1 -84 c 1,30,-1
 1 -60 l 1,31,32
 29 -66 29 -66 43 -66 c 0,33,34
 85 -66 85 -66 100 -40.5 c 128,-1,35
 115 -15 115 -15 115 35 c 1,0,-1
EndSplineSet
EndChar

StartChar: braceleft
Encoding: 123 123 106
Width: 286
Flags: HMW
HStem: -90 24<213 241> 800 24<213 241 179 249.5>
VStem: 114 65
LayerCount: 2
Fore
SplineSet
171 699 m 1,0,-1
 179 538 l 1,1,2
 179 404 179 404 97 367 c 1,3,4
 179 330 179 330 179 196 c 1,5,-1
 171 35 l 1,6,7
 171 -15 171 -15 186 -40.5 c 128,-1,8
 201 -66 201 -66 243 -66 c 0,9,10
 256 -66 256 -66 285 -60 c 1,11,-1
 285 -84 l 1,12,13
 260 -90 260 -90 227 -90 c 128,-1,14
 194 -90 194 -90 169.5 -79 c 128,-1,15
 145 -68 145 -68 133.5 -45.5 c 0,16,17
 114 -7.34782608696 114 -7.34782608696 114 62 c 2,18,-1
 115 142 l 1,19,20
 115 292 115 292 -3 367 c 1,21,22
 115 442 115 442 115 592 c 1,23,24
 114 672 l 2,25,26
 114 741.347826087 114 741.347826087 133.5 779.5 c 0,27,28
 156.244444444 824 156.244444444 824 232 824 c 0,29,30
 260 824 260 824 285 818 c 1,31,-1
 285 794 l 1,32,33
 256 800 256 800 243 800 c 0,34,35
 201 800 201 800 186 774.5 c 128,-1,36
 171 749 171 749 171 699 c 1,0,-1
EndSplineSet
EndChar

StartChar: dieresis
Encoding: 168 168 107
Width: 501
Flags: HMW
HStem: 546 106<123.5 153 342.5 372>
VStem: 85 107<584.5 613.5> 304 107<584.5 613.5>
LayerCount: 2
Fore
SplineSet
85 599 m 128,-1,1
 85 621 85 621 100.5 636.5 c 128,-1,2
 116 652 116 652 138 652 c 128,-1,3
 160 652 160 652 176 636.5 c 128,-1,4
 192 621 192 621 192 599 c 128,-1,5
 192 577 192 577 176 561.5 c 128,-1,6
 160 546 160 546 138 546 c 128,-1,7
 116 546 116 546 100.5 561.5 c 128,-1,0
 85 577 85 577 85 599 c 128,-1,1
304 599 m 128,-1,9
 304 621 304 621 319.5 636.5 c 128,-1,10
 335 652 335 652 357 652 c 128,-1,11
 379 652 379 652 395 636.5 c 128,-1,12
 411 621 411 621 411 599 c 128,-1,13
 411 577 411 577 395 561.5 c 128,-1,14
 379 546 379 546 357 546 c 128,-1,15
 335 546 335 546 319.5 561.5 c 128,-1,8
 304 577 304 577 304 599 c 128,-1,9
EndSplineSet
EndChar

StartChar: grave
Encoding: 96 96 108
Width: 192
Flags: HMW
HStem: 594 21G<125 125 125 174> 694 20G<11 111 111 111>
LayerCount: 2
Fore
SplineSet
125 594 m 1,0,-1
 11 714 l 1,1,-1
 111 714 l 1,2,-1
 174 594 l 1,3,-1
 125 594 l 1,0,-1
EndSplineSet
EndChar

StartChar: agrave
Encoding: 224 224 109
Width: 496
Flags: HMW
HStem: -10 20<179 238> 0 21G<338 438 338 338> 273 201<189 235> 455 220<188 240 140 257.5>
VStem: 23 62 23 100<110.5 176 110.5 202> 64 21<374 403 374 404.5> 319 119<64.5 90> 338 100<0 79 79 79 108 244 244 244>
LayerCount: 2
Fore
SplineSet
206 -10 m 0,0,1
 134 -10 134 -10 78.5 30.5 c 128,-1,2
 23 71 23 71 23 143 c 0,3,4
 23 185 23 185 43.5 216 c 128,-1,5
 64 247 64 247 95.5 262.5 c 0,6,7
 155.451612903 292 155.451612903 292 211.225806452 292 c 128,-1,8
 267 292 267 292 338 262 c 1,9,10
 337 378 337 378 309.5 416.5 c 128,-1,11
 282 455 282 455 225 455 c 128,-1,12
 168 455 168 455 126.5 434 c 128,-1,13
 85 413 85 413 85 378 c 0,14,15
 85 366 85 366 74.5 366 c 128,-1,16
 64 366 64 366 64 377 c 0,17,18
 64 419 64 419 110.5 446.5 c 128,-1,19
 157 474 157 474 248 474 c 0,20,21
 438 474 438 474 438 250 c 2,22,-1
 438 0 l 1,23,-1
 338 0 l 1,24,-1
 338 79 l 1,25,26
 331 40 331 40 293 15 c 128,-1,27
 255 -10 255 -10 206 -10 c 0,0,1
294 177 m 0,28,29
 330 152 330 152 338 108 c 1,30,-1
 338 244 l 1,31,32
 266 273 266 273 220.5 273 c 128,-1,33
 175 273 175 273 149 235 c 128,-1,34
 123 197 123 197 123 142 c 128,-1,35
 123 87 123 87 144.5 48.5 c 128,-1,36
 166 10 166 10 209.5 10 c 128,-1,37
 253 10 253 10 286 32.5 c 128,-1,38
 319 55 319 55 319 86 c 0,39,40
 319 140.25 319 140.25 283 160.5 c 0,41,42
 268 168.9375 268 168.9375 268 177 c 128,-1,43
 268 185 268 185 275 185 c 128,-1,44
 282 185 282 185 294 177 c 0,28,29
254 555 m 1,45,-1
 140 675 l 1,46,-1
 240 675 l 1,47,-1
 303 555 l 1,48,-1
 254 555 l 1,45,-1
EndSplineSet
EndChar

StartChar: acute
Encoding: 180 180 110
Width: 209
Flags: HMW
HStem: 594 21G<21 70 21 21> 694 20G<84 184 184 184>
LayerCount: 2
Fore
SplineSet
184 714 m 1,0,-1
 70 594 l 1,1,-1
 21 594 l 1,2,-1
 84 714 l 1,3,-1
 184 714 l 1,0,-1
EndSplineSet
EndChar

StartChar: guilsinglright
Encoding: 8250 8250 111
Width: 353
Flags: HMW
HStem: 23 21G<57 57> 549 20G<57 57>
LayerCount: 2
Fore
SplineSet
334 300 m 1,0,-1
 57 23 l 1,1,-1
 57 108 l 1,2,-1
 234 300 l 1,3,-1
 57 484 l 1,4,-1
 57 569 l 1,5,-1
 334 300 l 1,0,-1
EndSplineSet
EndChar

StartChar: guilsinglleft
Encoding: 8249 8249 112
Width: 353
Flags: HMW
HStem: 23 21G<296 296> 549 20G<296 296>
LayerCount: 2
Fore
SplineSet
296 23 m 1,0,-1
 19 300 l 1,1,-1
 296 569 l 1,2,-1
 296 484 l 1,3,-1
 119 300 l 1,4,-1
 296 108 l 1,5,-1
 296 23 l 1,0,-1
EndSplineSet
EndChar

StartChar: guillemotright
Encoding: 187 187 113
Width: 583
Flags: HMW
HStem: 23 21G<57 57 287 287> 549 20G<57 57 287 287>
LayerCount: 2
Fore
SplineSet
334 300 m 1,0,-1
 57 23 l 1,1,-1
 57 108 l 1,2,-1
 234 300 l 1,3,-1
 57 484 l 1,4,-1
 57 569 l 1,5,-1
 334 300 l 1,0,-1
564 300 m 1,6,-1
 287 23 l 1,7,-1
 287 108 l 1,8,-1
 464 300 l 1,9,-1
 287 484 l 1,10,-1
 287 569 l 1,11,-1
 564 300 l 1,6,-1
EndSplineSet
EndChar

StartChar: guillemotleft
Encoding: 171 171 114
Width: 583
Flags: HMW
HStem: 23 21G<296 296 526 526> 549 20G<296 296 526 526>
LayerCount: 2
Fore
SplineSet
526 23 m 1,0,-1
 249 300 l 1,1,-1
 526 569 l 1,2,-1
 526 484 l 1,3,-1
 349 300 l 1,4,-1
 526 108 l 1,5,-1
 526 23 l 1,0,-1
296 23 m 1,6,-1
 19 300 l 1,7,-1
 296 569 l 1,8,-1
 296 484 l 1,9,-1
 119 300 l 1,10,-1
 296 108 l 1,11,-1
 296 23 l 1,6,-1
EndSplineSet
EndChar

StartChar: asciicircum
Encoding: 94 94 115
Width: 603
Flags: HMW
HStem: 417 21G<487 572 487 487> 418 21G<26 111 26 26> 674 20G<295 295>
LayerCount: 2
Fore
SplineSet
295 694 m 1,0,-1
 572 417 l 1,1,-1
 487 417 l 1,2,-1
 295 594 l 1,3,-1
 111 418 l 1,4,-1
 26 418 l 1,5,-1
 295 694 l 1,0,-1
EndSplineSet
EndChar

StartChar: circumflex
Encoding: 710 710 116
Width: 384
Flags: HMW
HStem: 520 21G<301 356 301 301> 521 21G<30 85 30 30> 674 20G<189 189>
LayerCount: 2
Fore
SplineSet
189 694 m 1,0,-1
 356 520 l 1,1,-1
 301 520 l 1,2,-1
 189 634 l 1,3,-1
 85 521 l 1,4,-1
 30 521 l 1,5,-1
 189 694 l 1,0,-1
EndSplineSet
EndChar

StartChar: bullet
Encoding: 8226 8226 117
Width: 334
Flags: HMW
HStem: 217 166<144.5 189.5>
VStem: 84 166<277.5 322.5>
LayerCount: 2
Fore
SplineSet
84 300 m 128,-1,1
 84 334 84 334 108.5 358.5 c 128,-1,2
 133 383 133 383 167 383 c 128,-1,3
 201 383 201 383 225.5 358.5 c 128,-1,4
 250 334 250 334 250 300 c 128,-1,5
 250 266 250 266 225.5 241.5 c 128,-1,6
 201 217 201 217 167 217 c 128,-1,7
 133 217 133 217 108.5 241.5 c 128,-1,0
 84 266 84 266 84 300 c 128,-1,1
EndSplineSet
EndChar

StartChar: degree
Encoding: 176 176 118
Width: 308
Flags: HMW
HStem: 375 42<131.5 176.5 131.5 187.5> 583 41<131.5 176.5>
VStem: 29 42<477.5 522.5 477.5 533.5> 237 41<477.5 522.5>
LayerCount: 2
Fore
SplineSet
71 500 m 128,-1,1
 71 466 71 466 95.5 441.5 c 128,-1,2
 120 417 120 417 154 417 c 128,-1,3
 188 417 188 417 212.5 441.5 c 128,-1,4
 237 466 237 466 237 500 c 128,-1,5
 237 534 237 534 212.5 558.5 c 128,-1,6
 188 583 188 583 154 583 c 128,-1,7
 120 583 120 583 95.5 558.5 c 128,-1,0
 71 534 71 534 71 500 c 128,-1,1
66 412 m 128,-1,9
 29 449 29 449 29 499.5 c 128,-1,10
 29 550 29 550 66 587 c 128,-1,11
 103 624 103 624 153.5 624 c 128,-1,12
 204 624 204 624 241 587 c 128,-1,13
 278 550 278 550 278 499.5 c 128,-1,14
 278 449 278 449 241 412 c 128,-1,15
 204 375 204 375 153.5 375 c 128,-1,8
 103 375 103 375 66 412 c 128,-1,9
EndSplineSet
EndChar

StartChar: plusminus
Encoding: 177 177 119
Width: 530
Flags: HMW
HStem: -1 60<59 471 59 471> 309 60<59 236 59 236 296 471> 525 20G<236 296 296 296>
VStem: 236 60<133 309 133 309 369 545>
LayerCount: 2
Fore
SplineSet
236 369 m 1,0,-1
 236 545 l 1,1,-1
 296 545 l 1,2,-1
 296 369 l 1,3,-1
 471 369 l 1,4,-1
 471 309 l 1,5,-1
 296 309 l 1,6,-1
 296 133 l 1,7,-1
 236 133 l 1,8,-1
 236 309 l 1,9,-1
 59 309 l 1,10,-1
 59 369 l 1,11,-1
 236 369 l 1,0,-1
59 59 m 1,12,-1
 471 59 l 1,13,-1
 471 -1 l 1,14,-1
 59 -1 l 1,15,-1
 59 59 l 1,12,-1
EndSplineSet
EndChar

StartChar: dollar
Encoding: 36 36 120
Width: 520
Flags: HMW
HStem: -120 21G<207 267 207 207> 1 20<267 267> 246 20<113 132.5 113 141> 506 20<350 381 344 389> 676 21<267 267> 790 20G<207 267 267 267>
VStem: 47 44<522 556.5> 207 60<-120 1 -120 6 -120 6 26 319 446 669 669 669 697 810> 307 136<552 561.5> 421 22<559 606.5> 441 44<136.5 222.5>
LayerCount: 2
Fore
SplineSet
267 1 m 1,0,-1
 267 -120 l 1,1,-1
 207 -120 l 1,2,-1
 207 6 l 1,3,4
 142 20 142 20 93.5 60 c 128,-1,5
 45 100 45 100 45 169 c 0,6,7
 45 221 45 221 71.5 243.5 c 128,-1,8
 98 266 98 266 118.5 266 c 128,-1,9
 139 266 139 266 154 257 c 128,-1,10
 169 248 169 248 169 237 c 128,-1,11
 169 226 169 226 164 226 c 128,-1,12
 159 226 159 226 156.5 229 c 128,-1,13
 154 232 154 232 151.5 236 c 0,14,15
 145.25 246 145.25 246 119.625 246 c 128,-1,16
 94 246 94 246 78.5 224.5 c 128,-1,17
 63 203 63 203 63 170 c 0,18,19
 63 113 63 113 105.5 76 c 128,-1,20
 148 39 148 39 207 26 c 1,21,-1
 207 334 l 1,22,23
 204 335 204 335 197.5 336.5 c 0,24,25
 183.571428571 339.714285714 183.571428571 339.714285714 177 343 c 0,26,27
 47 388 47 388 47 504 c 0,28,29
 47 577 47 577 93.5 624.5 c 128,-1,30
 140 672 140 672 207 689 c 1,31,-1
 207 810 l 1,32,-1
 267 810 l 1,33,-1
 267 697 l 1,34,35
 362.325 694.675 362.325 694.675 414.5 642.5 c 0,36,37
 443 614 443 614 443 578 c 128,-1,38
 443 542 443 542 422 524 c 128,-1,39
 401 506 401 506 371.5 506 c 128,-1,40
 342 506 342 506 324.5 522.5 c 128,-1,41
 307 539 307 539 307 553.5 c 128,-1,42
 307 568 307 568 312.5 568 c 128,-1,43
 318 568 318 568 322 561.5 c 128,-1,44
 326 555 326 555 329 547 c 0,45,46
 336.875 526 336.875 526 363.4375 526 c 128,-1,47
 390 526 390 526 405.5 539 c 128,-1,48
 421 552 421 552 421 576 c 0,49,50
 421 619 421 619 374 646.5 c 128,-1,51
 327 674 327 674 267 676 c 1,52,-1
 267 430 l 1,53,54
 335 414 335 414 377 396 c 0,55,56
 485 348 485 348 485 223 c 0,57,58
 485 162 485 162 462 116.5 c 128,-1,59
 439 71 439 71 403 47.5 c 0,60,61
 335.022346369 3.12569832402 335.022346369 3.12569832402 267 1 c 1,0,-1
423 100.5 m 128,-1,63
 441 131 441 131 441 169.5 c 128,-1,64
 441 208 441 208 427.5 234 c 128,-1,65
 414 260 414 260 385.5 276 c 0,66,67
 341.098382749 300.92722372 341.098382749 300.92722372 267 319 c 1,68,-1
 267 21 l 1,69,70
 325.428 25.328 325.428 25.328 376.5 54 c 0,71,62
 405 70 405 70 423 100.5 c 128,-1,63
124 626.5 m 128,-1,73
 91 596 91 596 91 553 c 128,-1,74
 91 510 91 510 121 486 c 128,-1,75
 151 462 151 462 207 446 c 1,76,-1
 207 669 l 1,77,72
 157 657 157 657 124 626.5 c 128,-1,73
EndSplineSet
EndChar

StartChar: ordmasculine
Encoding: 186 186 121
Width: 331
Flags: HMW
HStem: 363 46<141.5 191 141.5 203> 591 45<141.5 191>
VStem: 29 46<475.5 525 475.5 537> 257 45<475.5 525>
LayerCount: 2
Fore
SplineSet
75 500 m 128,-1,1
 75 463 75 463 102 436 c 128,-1,2
 129 409 129 409 166 409 c 128,-1,3
 203 409 203 409 230 436 c 128,-1,4
 257 463 257 463 257 500.5 c 0,5,6
 257 538 257 538 230.5 564.5 c 128,-1,7
 204 591 204 591 166.5 591 c 0,8,9
 129 591 129 591 102 564 c 128,-1,0
 75 537 75 537 75 500 c 128,-1,1
29 500 m 128,-1,11
 29 556 29 556 69.5 596 c 128,-1,12
 110 636 110 636 166 636 c 128,-1,13
 222 636 222 636 262 596 c 128,-1,14
 302 556 302 556 302 500 c 128,-1,15
 302 444 302 444 262 403.5 c 128,-1,16
 222 363 222 363 166 363 c 128,-1,17
 110 363 110 363 69.5 403.5 c 128,-1,10
 29 444 29 444 29 500 c 128,-1,11
EndSplineSet
EndChar

StartChar: dagger
Encoding: 8224 8224 122
Width: 380
Flags: HMW
HStem: -200 21G<160 220 160 160> 240 60<39 160 39 160 220 341> 710 20G<160 220 220 220>
VStem: 160 60<-200 240 -200 240 300 730>
LayerCount: 2
Fore
SplineSet
220 300 m 1,0,-1
 341 300 l 1,1,-1
 341 240 l 1,2,-1
 220 240 l 1,3,-1
 220 -200 l 1,4,-1
 160 -200 l 1,5,-1
 160 240 l 1,6,-1
 39 240 l 1,7,-1
 39 300 l 1,8,-1
 160 300 l 1,9,-1
 160 730 l 1,10,-1
 220 730 l 1,11,-1
 220 300 l 1,0,-1
EndSplineSet
EndChar

StartChar: daggerdbl
Encoding: 8225 8225 123
Width: 478
Flags: HMW
HStem: -200 21G<209 269 209 209> 184 60<33 209 33 209 269 445> 350 60<33 209 33 209 269 445> 710 20G<209 269 269 269>
VStem: 209 60<-200 184 -200 184 244 350 410 730>
LayerCount: 2
Fore
SplineSet
269 410 m 1,0,-1
 445 410 l 1,1,-1
 445 350 l 1,2,-1
 269 350 l 1,3,-1
 269 244 l 1,4,-1
 445 244 l 1,5,-1
 445 184 l 1,6,-1
 269 184 l 1,7,-1
 269 -200 l 1,8,-1
 209 -200 l 1,9,-1
 209 184 l 1,10,-1
 33 184 l 1,11,-1
 33 244 l 1,12,-1
 209 244 l 1,13,-1
 209 350 l 1,14,-1
 33 350 l 1,15,-1
 33 410 l 1,16,-1
 209 410 l 1,17,-1
 209 730 l 1,18,-1
 269 730 l 1,19,-1
 269 410 l 1,0,-1
EndSplineSet
EndChar

StartChar: periodcentered
Encoding: 183 183 124
Width: 218
Flags: HMW
HStem: 233 132<91 127>
VStem: 43 132<281 317>
LayerCount: 2
Fore
SplineSet
43 299 m 128,-1,1
 43 326 43 326 62.5 345.5 c 128,-1,2
 82 365 82 365 109 365 c 128,-1,3
 136 365 136 365 155.5 345.5 c 128,-1,4
 175 326 175 326 175 299 c 128,-1,5
 175 272 175 272 155.5 252.5 c 128,-1,6
 136 233 136 233 109 233 c 128,-1,7
 82 233 82 233 62.5 252.5 c 128,-1,0
 43 272 43 272 43 299 c 128,-1,1
EndSplineSet
EndChar

StartChar: Scaron
Encoding: 352 352 125
Width: 535
Flags: HMW
HStem: -9 20<221.5 291 215.5 301.5> 246 20<115 134.5 115 143> 516 20<372 403 366 411> 686 21<245.5 322.5> 686 114<295 322.5>
VStem: 47 66 69 44<496.5 570> 329 136<562 571.5> 443 44<133.5 240.5>
LayerCount: 2
Fore
SplineSet
295 800 m 1,0,-1
 347 800 l 1,1,-1
 261 710 l 1,2,-1
 178 800 l 1,3,-1
 229 800 l 1,4,-1
 261 750 l 1,5,-1
 295 800 l 1,0,-1
179 343 m 0,6,7
 123 362 123 362 96 400 c 128,-1,8
 69 438 69 438 69 504 c 0,9,10
 69 596 69 596 139 651.5 c 128,-1,11
 209 707 209 707 281.5 707 c 128,-1,12
 354 707 354 707 409.5 674.5 c 128,-1,13
 465 642 465 642 465 586 c 0,14,15
 465 552 465 552 444 534 c 128,-1,16
 423 516 423 516 393.5 516 c 128,-1,17
 364 516 364 516 346.5 532.5 c 128,-1,18
 329 549 329 549 329 563.5 c 128,-1,19
 329 578 329 578 334.5 578 c 128,-1,20
 340 578 340 578 344 571.5 c 128,-1,21
 348 565 348 565 351 557 c 0,22,23
 358.875 536 358.875 536 385.4375 536 c 128,-1,24
 412 536 412 536 427.5 549 c 128,-1,25
 443 562 443 562 443 586 c 0,26,27
 443 630 443 630 394 658 c 128,-1,28
 345 686 345 686 283 686 c 128,-1,29
 221 686 221 686 167 648 c 128,-1,30
 113 610 113 610 113 552 c 0,31,32
 113 513 113 513 140.5 487.5 c 128,-1,33
 168 462 168 462 202.5 451 c 128,-1,34
 237 440 237 440 292.5 425 c 128,-1,35
 348 410 348 410 379 396 c 0,36,37
 487 348 487 348 487 223 c 0,38,39
 487 160 487 160 463.5 112 c 128,-1,40
 440 64 440 64 403.5 39 c 0,41,42
 333.42 -9 333.42 -9 261 -9 c 0,43,44
 194.7 -9 194.7 -9 125 32 c 0,45,46
 91 52 91 52 69 88 c 128,-1,47
 47 124 47 124 47 172.5 c 128,-1,48
 47 221 47 221 73.5 243.5 c 128,-1,49
 100 266 100 266 120.5 266 c 128,-1,50
 141 266 141 266 156 257 c 128,-1,51
 171 248 171 248 171 237 c 128,-1,52
 171 226 171 226 166 226 c 128,-1,53
 161 226 161 226 158.5 229 c 128,-1,54
 156 232 156 232 153.5 236 c 0,55,56
 147.25 246 147.25 246 121.625 246 c 128,-1,57
 96 246 96 246 80.5 224.5 c 128,-1,58
 65 203 65 203 65 170 c 0,59,60
 65 98 65 98 126 54.5 c 128,-1,61
 187 11 187 11 257 11 c 0,62,63
 352.506493506 11 352.506493506 11 409.5 76.5 c 0,64,65
 443 115 443 115 443 175.789473684 c 128,-1,66
 443 236.578947368 443 236.578947368 401.413580247 267.22157245 c 128,-1,67
 359.827160494 297.864197531 359.827160494 297.864197531 285.026483473 315.46435683 c 128,-1,68
 210.225806452 333.064516129 210.225806452 333.064516129 179 343 c 0,6,7
EndSplineSet
EndChar

StartChar: Zcaron
Encoding: 381 381 126
Width: 643
Flags: HMW
HStem: 0 20 197 124<398 514> 523 20<100 135> 674 22<128.5 569 163 433> 674 126<128.5 305 254 305 371 423 254 433>
VStem: 49 20<588.5 621.5 588.5 622.5> 49 141<580.5 582 563.5 622.5> 376 20<233.5 254> 587 21<132 204.5>
LayerCount: 2
Fore
SplineSet
371 800 m 1,0,-1
 423 800 l 1,1,-1
 337 710 l 1,2,-1
 254 800 l 1,3,-1
 305 800 l 1,4,-1
 337 750 l 1,5,-1
 371 800 l 1,0,-1
165 21 m 1,6,-1
 414 20 l 2,7,8
 498 20 498 20 542.5 64 c 128,-1,9
 587 108 587 108 587 166.5 c 128,-1,10
 587 225 587 225 556.5 264 c 128,-1,11
 526 303 526 303 474 303 c 0,12,13
 440 303 440 303 418 287.5 c 128,-1,14
 396 272 396 272 396 243 c 0,15,16
 396 216 396 216 411 210 c 0,17,18
 416 208 416 208 416 206 c 0,19,20
 416 197 416 197 409 197 c 0,21,22
 394 197 394 197 385 211.5 c 128,-1,23
 376 226 376 226 376 247 c 128,-1,24
 376 268 376 268 398.5 294.5 c 128,-1,25
 421 321 421 321 477 321 c 128,-1,26
 533 321 533 321 570.5 277.5 c 128,-1,27
 608 234 608 234 608 166.5 c 128,-1,28
 608 99 608 99 556 49.5 c 128,-1,29
 504 0 504 0 388 0 c 2,30,-1
 29 0 l 2,31,32
 22 0 22 0 22 7 c 128,-1,33
 22 14 22 14 31 23 c 1,34,-1
 433 674 l 1,35,-1
 162 674 l 2,36,37
 115 674 115 674 92 653.5 c 128,-1,38
 69 633 69 633 69 606 c 128,-1,39
 69 579 69 579 81.5 561 c 128,-1,40
 94 543 94 543 118 543 c 128,-1,41
 142 543 142 543 155.5 553.5 c 128,-1,42
 169 564 169 564 173 575 c 128,-1,43
 177 586 177 586 181 586 c 0,44,45
 190 586 190 586 190 580 c 0,46,47
 190 556 190 556 167.5 539.5 c 128,-1,48
 145 523 145 523 114.5 523 c 128,-1,49
 84 523 84 523 66.5 546 c 128,-1,50
 49 569 49 569 49 603.5 c 128,-1,51
 49 638 49 638 78.5 667 c 128,-1,52
 108 696 108 696 163 696 c 2,53,-1
 569 696 l 2,54,55
 577 696 577 696 577 692 c 128,-1,56
 577 688 577 688 567 673 c 2,57,-1
 165 21 l 1,6,-1
EndSplineSet
EndChar

StartChar: scaron
Encoding: 353 353 127
Width: 438
Flags: HMW
HStem: -10 20<191 250 191 260.5> 357 118<195.5 374.5> 455 20<195.5 247.5> 455 239<193.5 369> 673 20G<43 98 98 98>
VStem: 40 28 40 46<315.5 394 315.5 395> 362 44<96.5 154.5>
LayerCount: 2
Fore
SplineSet
93 23.5 m 128,-1,1
 33 57 33 57 33 117 c 0,2,3
 33 133 33 133 41 147 c 128,-1,4
 49 161 49 161 61.5 161 c 128,-1,5
 74 161 74 161 81 153 c 128,-1,6
 88 145 88 145 88 137 c 128,-1,7
 88 129 88 129 78 114.5 c 128,-1,8
 68 100 68 100 68 91 c 0,9,10
 68 60 68 60 121 35 c 128,-1,11
 174 10 174 10 222.5 10 c 128,-1,12
 271 10 271 10 316.5 42 c 128,-1,13
 362 74 362 74 362 123 c 0,14,15
 362 168.058823529 362 168.058823529 312.5 186.5 c 0,16,17
 279.61281337 198.752089136 279.61281337 198.752089136 202.806406685 211.376044568 c 128,-1,18
 126 224 126 224 83 253 c 128,-1,19
 40 282 40 282 40 343 c 0,20,21
 40 380 40 380 59 407 c 128,-1,22
 78 434 78 434 108.5 448 c 0,23,24
 167.321428571 475 167.321428571 475 224.660714286 475 c 128,-1,25
 282 475 282 475 326.5 455 c 128,-1,26
 371 435 371 435 385 405 c 0,27,28
 391 391 391 391 391 381 c 0,29,30
 391 357 391 357 366 357 c 0,31,32
 338.769230769 357 338.769230769 357 337.5 390 c 0,33,34
 336.094240838 426.54973822 336.094240838 426.54973822 309 441 c 1,35,36
 275 455 275 455 223.5 455 c 128,-1,37
 172 455 172 455 129 430.5 c 128,-1,38
 86 406 86 406 86 368 c 0,39,40
 86 322.263888889 86 322.263888889 169 316.5 c 0,41,42
 251.736842105 310.754385965 251.736842105 310.754385965 323 287 c 0,43,44
 359 275 359 275 382.5 241.5 c 128,-1,45
 406 208 406 208 406 160.5 c 128,-1,46
 406 113 406 113 389 80 c 128,-1,47
 372 47 372 47 344 28 c 0,48,49
 288 -10 288 -10 220.5 -10 c 128,-1,0
 153 -10 153 -10 93 23.5 c 128,-1,1
369 694 m 1,50,-1
 202 560 l 1,51,-1
 43 693 l 1,52,-1
 98 693 l 1,53,-1
 202 600 l 1,54,-1
 314 694 l 1,55,-1
 369 694 l 1,50,-1
EndSplineSet
EndChar

StartChar: zcaron
Encoding: 382 382 128
Width: 484
Flags: HMW
HStem: 0 22<142 346> 153 20<373 404.5> 290 20<90.5 122> 441 22<114.5 438 149 307> 673 20G<163 218 218 218> 674 20G<434 489 489 489>
VStem: 35 22<355.5 388.5 355.5 389.5> 35 141<330 389.5> 319 141<73.5 133> 438 22<74.5 107.5>
LayerCount: 2
Fore
SplineSet
27 0 m 2,0,1
 20 0 20 0 20 7 c 0,2,3
 20 14 20 14 29 23 c 1,4,-1
 307 441 l 1,5,-1
 148 441 l 2,6,7
 101 441 101 441 79 421 c 128,-1,8
 57 401 57 401 57 373 c 0,9,10
 57 345 57 345 70 327.5 c 128,-1,11
 83 310 83 310 106.5 310 c 0,12,13
 130 310 130 310 141 321 c 128,-1,14
 152 332 152 332 158 342.5 c 128,-1,15
 164 353 164 353 170 353 c 128,-1,16
 176 353 176 353 176 338 c 0,17,18
 176 323 176 323 153.5 306.5 c 128,-1,19
 131 290 131 290 101 290 c 0,20,21
 71 290 71 290 53 313 c 128,-1,22
 35 336 35 336 35 370.5 c 0,23,24
 35 405 35 405 64.5 434 c 128,-1,25
 94 463 94 463 149 463 c 2,26,-1
 438 463 l 2,27,28
 446 463 446 463 446 459 c 0,29,30
 446 455 446 455 436 440 c 2,31,-1
 142 22 l 1,32,-1
 347 22 l 2,33,34
 394 22 394 22 416 42 c 128,-1,35
 438 62 438 62 438 90 c 0,36,37
 438 118 438 118 425 135.5 c 128,-1,38
 412 153 412 153 388.5 153 c 0,39,40
 365 153 365 153 354 142.5 c 128,-1,41
 343 132 343 132 337 121 c 128,-1,42
 331 110 331 110 325 110 c 128,-1,43
 319 110 319 110 319 125 c 0,44,45
 319 140 319 140 341.5 156.5 c 128,-1,46
 364 173 364 173 394 173 c 0,47,48
 424 173 424 173 442 150 c 128,-1,49
 460 127 460 127 460 92.5 c 0,50,51
 460 58 460 58 430.5 29 c 128,-1,52
 401 0 401 0 346 0 c 2,53,-1
 27 0 l 2,0,1
489 694 m 1,54,-1
 322 560 l 1,55,-1
 163 693 l 1,56,-1
 218 693 l 1,57,-1
 322 600 l 1,58,-1
 434 694 l 1,59,-1
 489 694 l 1,54,-1
EndSplineSet
EndChar

StartChar: asterisk
Encoding: 42 42 129
Width: 477
Flags: HMW
HStem: 280 21G<143 180.5> 445 131<289.5 385> 459 92<74 183> 459 212<164.5 241.5>
VStem: 37 242<460.5 610> 107 107<330 335.5 318.5 363.5> 166 113<605 610 567 622.5>
LayerCount: 2
Fore
SplineSet
220 458 m 1,0,-1
 180 459 l 2,1,2
 163 459 163 459 131 446 c 128,-1,3
 99 433 99 433 95 433 c 128,-1,4
 91 433 91 433 87 433.5 c 128,-1,5
 83 434 83 434 73.5 436.5 c 128,-1,6
 64 439 64 439 56.5 444.5 c 0,7,8
 37 458.8 37 458.8 37 487.4 c 128,-1,9
 37 516 37 516 51.5 533.5 c 128,-1,10
 66 551 66 551 92 551 c 128,-1,11
 118 551 118 551 158 527 c 128,-1,12
 198 503 198 503 226 475 c 1,13,14
 224 501 224 501 212.5 529.5 c 128,-1,15
 201 558 201 558 196 564 c 128,-1,16
 191 570 191 570 185.5 576.5 c 128,-1,17
 180 583 180 583 176.5 588 c 0,18,19
 166 603 166 603 166 617.5 c 128,-1,20
 166 632 166 632 179.5 651.5 c 128,-1,21
 193 671 193 671 221.5 671 c 128,-1,22
 250 671 250 671 264.5 647.5 c 128,-1,23
 279 624 279 624 279 577.5 c 128,-1,24
 279 531 279 531 254 471 c 1,25,26
 310 503 310 503 328 539.5 c 128,-1,27
 346 576 346 576 370.5 576 c 128,-1,28
 395 576 395 576 414 562 c 128,-1,29
 433 548 433 548 433 522 c 0,30,31
 433 484 433 484 390.5 464.5 c 128,-1,32
 348 445 348 445 311 445 c 128,-1,33
 274 445 274 445 259 449 c 1,34,35
 302 410 302 410 339 404 c 0,36,37
 357 401 357 401 367 398 c 128,-1,38
 377 395 377 395 386.5 384 c 128,-1,39
 396 373 396 373 396 349 c 128,-1,40
 396 325 396 325 379.5 310.5 c 128,-1,41
 363 296 363 296 345 296 c 0,42,43
 313 296 313 296 279.5 344.5 c 128,-1,44
 246 393 246 393 238 440 c 1,45,46
 230 426 230 426 221.5 397.5 c 128,-1,47
 213 369 213 369 213 356 c 2,48,-1
 214 332 l 2,49,50
 214 310 214 310 201 295 c 128,-1,51
 188 280 188 280 162 280 c 128,-1,52
 136 280 136 280 121.5 300 c 128,-1,53
 107 320 107 320 107 346.5 c 128,-1,54
 107 373 107 373 144 409 c 128,-1,55
 181 445 181 445 220 458 c 1,0,-1
EndSplineSet
EndChar

StartChar: percent
Encoding: 37 37 130
Width: 678
Flags: HMW
HStem: -5 21G<103 171 103 103> 1 21<467.5 532.5 467.5 539> 268 20<467.5 532.5> 301 21<147.5 212.5 147.5 219> 568 20<147.5 212.5> 575 20G<498 566 566 566>
VStem: 36 61<422.5 467.5 422.5 484> 263 60<422.5 467.5> 356 61<122.5 167.5 122.5 184> 583 60<122.5 167.5>
LayerCount: 2
Fore
SplineSet
97 445 m 128,-1,1
 97 401 97 401 117 361.5 c 128,-1,2
 137 322 137 322 180 322 c 128,-1,3
 223 322 223 322 243 361.5 c 128,-1,4
 263 401 263 401 263 445 c 128,-1,5
 263 489 263 489 243 528.5 c 128,-1,6
 223 568 223 568 180 568 c 128,-1,7
 137 568 137 568 117 528.5 c 128,-1,0
 97 489 97 489 97 445 c 128,-1,1
36 445 m 128,-1,9
 36 504 36 504 78.5 546 c 128,-1,10
 121 588 121 588 179.5 588 c 0,11,12
 238 588 238 588 280.5 546 c 128,-1,13
 323 504 323 504 323 445 c 128,-1,14
 323 386 323 386 281 343.5 c 128,-1,15
 239 301 239 301 180 301 c 128,-1,16
 121 301 121 301 78.5 343.5 c 128,-1,8
 36 386 36 386 36 445 c 128,-1,9
356 145 m 128,-1,18
 356 204 356 204 398.5 246 c 128,-1,19
 441 288 441 288 499.5 288 c 0,20,21
 558 288 558 288 600.5 246 c 128,-1,22
 643 204 643 204 643 145 c 128,-1,23
 643 86 643 86 601 43.5 c 128,-1,24
 559 1 559 1 500 1 c 128,-1,25
 441 1 441 1 398.5 43.5 c 128,-1,17
 356 86 356 86 356 145 c 128,-1,18
498 595 m 1,26,-1
 566 595 l 1,27,-1
 171 -5 l 1,28,-1
 103 -5 l 1,29,-1
 498 595 l 1,26,-1
417 145 m 128,-1,31
 417 101 417 101 437 61.5 c 128,-1,32
 457 22 457 22 500 22 c 128,-1,33
 543 22 543 22 563 61.5 c 128,-1,34
 583 101 583 101 583 145 c 128,-1,35
 583 189 583 189 563 228.5 c 128,-1,36
 543 268 543 268 500 268 c 128,-1,37
 457 268 457 268 437 228.5 c 128,-1,30
 417 189 417 189 417 145 c 128,-1,31
EndSplineSet
EndChar

StartChar: perthousand
Encoding: 8240 8240 131
Width: 1019
Flags: HMW
HStem: -5 21G<107 175 107 107> 1 21<471.5 536.5 471.5 543 811.5 876.5> 268 20<471.5 536.5 811.5 876.5> 301 21<151.5 216.5 151.5 223> 568 20<151.5 216.5> 575 20G<502 570 570 570>
VStem: 40 61<422.5 467.5 422.5 484> 267 60<422.5 467.5> 360 61<122.5 167.5 122.5 184> 587 60<122.5 167.5> 700 61<122.5 167.5 122.5 184> 927 60<122.5 167.5>
LayerCount: 2
Fore
SplineSet
101 445 m 128,-1,1
 101 401 101 401 121 361.5 c 128,-1,2
 141 322 141 322 184 322 c 128,-1,3
 227 322 227 322 247 361.5 c 128,-1,4
 267 401 267 401 267 445 c 128,-1,5
 267 489 267 489 247 528.5 c 128,-1,6
 227 568 227 568 184 568 c 128,-1,7
 141 568 141 568 121 528.5 c 128,-1,0
 101 489 101 489 101 445 c 128,-1,1
40 445 m 128,-1,9
 40 504 40 504 82.5 546 c 128,-1,10
 125 588 125 588 183.5 588 c 0,11,12
 242 588 242 588 284.5 546 c 128,-1,13
 327 504 327 504 327 445 c 128,-1,14
 327 386 327 386 285 343.5 c 128,-1,15
 243 301 243 301 184 301 c 128,-1,16
 125 301 125 301 82.5 343.5 c 128,-1,8
 40 386 40 386 40 445 c 128,-1,9
360 145 m 128,-1,18
 360 204 360 204 402.5 246 c 128,-1,19
 445 288 445 288 503.5 288 c 0,20,21
 562 288 562 288 604.5 246 c 128,-1,22
 647 204 647 204 647 145 c 128,-1,23
 647 86 647 86 605 43.5 c 128,-1,24
 563 1 563 1 504 1 c 128,-1,25
 445 1 445 1 402.5 43.5 c 128,-1,17
 360 86 360 86 360 145 c 128,-1,18
502 595 m 1,26,-1
 570 595 l 1,27,-1
 175 -5 l 1,28,-1
 107 -5 l 1,29,-1
 502 595 l 1,26,-1
421 145 m 128,-1,31
 421 101 421 101 441 61.5 c 128,-1,32
 461 22 461 22 504 22 c 128,-1,33
 547 22 547 22 567 61.5 c 128,-1,34
 587 101 587 101 587 145 c 128,-1,35
 587 189 587 189 567 228.5 c 128,-1,36
 547 268 547 268 504 268 c 128,-1,37
 461 268 461 268 441 228.5 c 128,-1,30
 421 189 421 189 421 145 c 128,-1,31
700 145 m 128,-1,39
 700 204 700 204 742.5 246 c 128,-1,40
 785 288 785 288 843.5 288 c 0,41,42
 902 288 902 288 944.5 246 c 128,-1,43
 987 204 987 204 987 145 c 128,-1,44
 987 86 987 86 945 43.5 c 128,-1,45
 903 1 903 1 844 1 c 128,-1,46
 785 1 785 1 742.5 43.5 c 128,-1,38
 700 86 700 86 700 145 c 128,-1,39
761 145 m 128,-1,48
 761 101 761 101 781 61.5 c 128,-1,49
 801 22 801 22 844 22 c 128,-1,50
 887 22 887 22 907 61.5 c 128,-1,51
 927 101 927 101 927 145 c 128,-1,52
 927 189 927 189 907 228.5 c 128,-1,53
 887 268 887 268 844 268 c 128,-1,54
 801 268 801 268 781 228.5 c 128,-1,47
 761 189 761 189 761 145 c 128,-1,48
EndSplineSet
EndChar

StartChar: divide
Encoding: 247 247 132
Width: 510
Flags: HMW
HStem: 1 132<235 271> 200 60<49 461 49 461> 329 132<235 271>
VStem: 187 132<49 85 377 413>
LayerCount: 2
Fore
SplineSet
49 260 m 1,0,-1
 461 260 l 1,1,-1
 461 200 l 1,2,-1
 49 200 l 1,3,-1
 49 260 l 1,0,-1
187 395 m 128,-1,5
 187 422 187 422 206.5 441.5 c 128,-1,6
 226 461 226 461 253 461 c 128,-1,7
 280 461 280 461 299.5 441.5 c 128,-1,8
 319 422 319 422 319 395 c 128,-1,9
 319 368 319 368 299.5 348.5 c 128,-1,10
 280 329 280 329 253 329 c 128,-1,11
 226 329 226 329 206.5 348.5 c 128,-1,4
 187 368 187 368 187 395 c 128,-1,5
187 67 m 128,-1,13
 187 94 187 94 206.5 113.5 c 128,-1,14
 226 133 226 133 253 133 c 128,-1,15
 280 133 280 133 299.5 113.5 c 128,-1,16
 319 94 319 94 319 67 c 128,-1,17
 319 40 319 40 299.5 20.5 c 128,-1,18
 280 1 280 1 253 1 c 128,-1,19
 226 1 226 1 206.5 20.5 c 128,-1,12
 187 40 187 40 187 67 c 128,-1,13
EndSplineSet
EndChar

StartChar: ampersand
Encoding: 38 38 133
Width: 634
Flags: HMW
HStem: -2 21G<195 300.5> 0 21G<492 636 492 492> 671 20<304.5 344>
VStem: 34 99<164 243 164 248> 169 74<597 600> 427 82<536.5 598.5> 538 22<194 247.5>
LayerCount: 2
Fore
SplineSet
336 421 m 1,0,-1
 394 335 l 1,1,2
 418 349 418 349 444 349 c 0,3,4
 489 349 489 349 524.5 312.5 c 128,-1,5
 560 276 560 276 560 210 c 0,6,7
 560 168 560 168 542 130 c 1,8,9
 584 73 584 73 636 0 c 1,10,-1
 492 0 l 1,11,-1
 461 47 l 1,12,13
 379 -2 379 -2 270 -2 c 128,-1,14
 161 -2 161 -2 97.5 51.5 c 128,-1,15
 34 105 34 105 34 187 c 128,-1,16
 34 269 34 269 94 325.5 c 128,-1,17
 154 382 154 382 232 409 c 1,18,-1
 203 456 l 2,19,20
 169 511 169 511 169 556 c 0,21,22
 169 618 169 618 223 654.5 c 128,-1,23
 277 691 277 691 345.5 691 c 128,-1,24
 414 691 414 691 461.5 658.5 c 128,-1,25
 509 626 509 626 509 573.5 c 128,-1,26
 509 521 509 521 467.5 486 c 128,-1,27
 426 451 426 451 336 421 c 1,0,-1
162 315 m 128,-1,29
 133 263 133 263 133 199.5 c 128,-1,30
 133 136 133 136 177 76.5 c 128,-1,31
 221 17 221 17 295 17 c 0,32,33
 331 17 331 17 378 30 c 128,-1,34
 425 43 425 43 452 64 c 1,35,-1
 242 393 l 1,36,28
 191 367 191 367 162 315 c 128,-1,29
404.5 486 m 128,-1,38
 427 516 427 516 427 565.5 c 128,-1,39
 427 615 427 615 394.5 643 c 128,-1,40
 362 671 362 671 323.5 671 c 128,-1,41
 285 671 285 671 264 656.5 c 128,-1,42
 243 642 243 642 243 616 c 0,43,44
 243 569 243 569 327 435 c 1,45,37
 382 456 382 456 404.5 486 c 128,-1,38
442 332 m 0,46,47
 422 332 422 332 404 321 c 1,48,49
 507 176 507 176 528 147 c 1,50,51
 538 174 538 174 538 204 c 0,52,53
 538 265 538 265 509.5 298.5 c 128,-1,54
 481 332 481 332 442 332 c 0,46,47
EndSplineSet
EndChar

StartChar: OE
Encoding: 338 338 134
Width: 815
Flags: HMW
HStem: -1 21G<531 612> 0 20<259 333.5 259 334.5> 291 137<619 625 619 666.5> 524 20<647.5 679.5 637.5 685> 676 20G<550 593 550 620.5> 677 20<251 337.5>
VStem: 54 100<255.5 389.5> 290 100<154.5 243> 337 53 337 99<499.5 561.5> 531 20<218.5 246> 594 141<567.5 581.5> 715 20<574 617> 763 20<112 207>
LayerCount: 2
Fore
SplineSet
677.5 652.5 m 128,-1,1
 640 676 640 676 580 676 c 128,-1,2
 520 676 520 676 478 642.5 c 128,-1,3
 436 609 436 609 436 548 c 0,4,5
 436 490.857142857 436 490.857142857 471.5 465.5 c 0,6,7
 508.5 439.071428571 508.5 439.071428571 540.25 434.535714286 c 0,8,9
 586 428 586 428 619 428 c 0,10,11
 641 428 641 428 641 408.5 c 128,-1,12
 641 389 641 389 622 386 c 0,13,14
 517.312396694 374.783471074 517.312396694 374.783471074 473.5 347 c 0,15,16
 416.562695925 310.893416928 416.562695925 310.893416928 400.5 265 c 0,17,18
 390 235 390 235 390 197 c 0,19,20
 390 109 390 109 443.5 64.5 c 128,-1,21
 497 20 497 20 570.5 20 c 128,-1,22
 644 20 644 20 703.5 56.5 c 128,-1,23
 763 93 763 93 763 166 c 0,24,25
 763 224 763 224 724.5 257.5 c 128,-1,26
 686 291 686 291 643.5 291 c 0,27,28
 551 291 551 291 551 228 c 0,29,30
 551 208 551 208 563.5 197.5 c 128,-1,31
 576 187 576 187 576 185 c 0,32,33
 576 179 576 179 563.5 179 c 128,-1,34
 551 179 551 179 541 195.5 c 128,-1,35
 531 212 531 212 531 235 c 128,-1,36
 531 258 531 258 558.5 283.5 c 128,-1,37
 586 309 586 309 637.5 309 c 128,-1,38
 689 309 689 309 736 272.5 c 128,-1,39
 783 236 783 236 783 161 c 128,-1,40
 783 86 783 86 717.5 42.5 c 128,-1,41
 652 -1 652 -1 564 -1 c 128,-1,42
 476 -1 476 -1 410 27 c 1,43,44
 368 0 368 0 311 0 c 128,-1,45
 254 0 254 0 208 19.5 c 128,-1,46
 162 39 162 39 133.5 71 c 128,-1,47
 105 103 105 103 86.5 148 c 0,48,49
 54 227.054054054 54 227.054054054 54 339 c 0,50,51
 54 378 54 378 57.5 415.5 c 128,-1,52
 61 453 61 453 77 507.5 c 128,-1,53
 93 562 93 562 120 601 c 128,-1,54
 147 640 147 640 199 668.5 c 128,-1,55
 251 697 251 697 318 697 c 128,-1,56
 385 697 385 697 433 663 c 1,57,58
 500 696 500 696 570 696 c 0,59,60
 617.904761905 696 617.904761905 696 657.952380952 681.5 c 0,61,62
 735 653.603448276 735 653.603448276 735 591 c 0,63,64
 735 558 735 558 715.5 541 c 128,-1,65
 696 524 696 524 667 524 c 128,-1,66
 638 524 638 524 616 540.5 c 128,-1,67
 594 557 594 557 594 572 c 128,-1,68
 594 587 594 587 600.5 587 c 128,-1,69
 607 587 607 587 612 576.5 c 0,70,71
 627.476190476 544 627.476190476 544 664 544 c 0,72,73
 715 544 715 544 715 590 c 0,74,0
 715 629 715 629 677.5 652.5 c 128,-1,1
323 20 m 0,75,76
 360 20 360 20 381 42 c 1,77,78
 290 94 290 94 290 188 c 0,79,80
 290 325 290 325 502 400 c 1,81,82
 434 405 434 405 385.5 443.5 c 128,-1,83
 337 482 337 482 337 542.5 c 128,-1,84
 337 603 337 603 406 648 c 1,85,86
 383 677 383 677 332.5 677 c 128,-1,87
 282 677 282 677 250.5 652.5 c 128,-1,88
 219 628 219 628 201 591.5 c 128,-1,89
 183 555 183 555 172 504.5 c 0,90,91
 154 421.863636364 154 421.863636364 154 325 c 0,92,93
 154 20 154 20 323 20 c 0,75,76
EndSplineSet
EndChar

StartChar: Euro
Encoding: 8364 8364 136
Width: 571
Flags: HMW
HStem: 0 20<305.5 356.5 305.5 374> 0 101<285 526> 214 60<47 95 47 104 47 95 201 459 201 201> 380 60<47 93 47 100 200 459> 600 97<272.5 528 272.5 439> 677 20<298 362.5>
VStem: 93 99<316 380>
LayerCount: 2
Fore
SplineSet
47 440 m 1,0,-1
 100 440 l 1,1,2
 120 554 120 554 181 625.5 c 128,-1,3
 242 697 242 697 347 697 c 0,4,5
 466 697 466 697 528 600 c 1,6,-1
 439 600 l 1,7,8
 404 677 404 677 340 677 c 0,9,10
 300 677 300 677 270 640.5 c 0,11,12
 217.321652065 576.408010013 217.321652065 576.408010013 200 440 c 1,13,-1
 459 440 l 1,14,-1
 459 380 l 1,15,-1
 194 380 l 1,16,17
 192 360 192 360 192 333 c 128,-1,18
 192 306 192 306 194 274 c 1,19,-1
 459 274 l 1,20,-1
 459 214 l 1,21,-1
 201 214 l 1,22,23
 217 127 217 127 253.5 73.5 c 128,-1,24
 290 20 290 20 337 20 c 0,25,26
 396 20 396 20 440 101 c 1,27,-1
 526 101 l 1,28,29
 453 0 453 0 337 0 c 0,30,31
 254 0 254 0 191 54 c 128,-1,32
 128 108 128 108 104 214 c 1,33,-1
 47 214 l 1,34,-1
 47 274 l 1,35,-1
 95 274 l 1,36,37
 92 301 92 301 92 332.5 c 128,-1,38
 92 364 92 364 93 380 c 1,39,-1
 47 380 l 1,40,-1
 47 440 l 1,0,-1
EndSplineSet
EndChar

StartChar: cent
Encoding: 162 162 137
Width: 468
Flags: HMW
HStem: -130 21G<221 281 221 221> 252 20<336 356 329.5 372> 252 210<281 372> 580 20G<221 281 281 281>
VStem: 42 100<189.5 287 189.5 297> 221 60<-130 1 -130 2 -130 2 33 277 371 431 431 431 462 600> 410 20<316.5 369>
LayerCount: 2
Fore
SplineSet
402 99 m 1,0,-1
 431 99 l 1,1,2
 388 10 388 10 281 1 c 1,3,-1
 281 -130 l 1,4,-1
 221 -130 l 1,5,-1
 221 2 l 1,6,7
 134 15 134 15 88 80.5 c 128,-1,8
 42 146 42 146 42 235 c 128,-1,9
 42 324 42 324 93.5 382.5 c 128,-1,10
 145 441 145 441 221 457 c 1,11,-1
 221 600 l 1,12,-1
 281 600 l 1,13,-1
 281 462 l 1,14,15
 342 459 342 459 386 427 c 128,-1,16
 430 395 430 395 430 342 c 0,17,18
 430 303 430 303 407 277.5 c 128,-1,19
 384 252 384 252 345 252 c 128,-1,20
 306 252 306 252 281 277 c 1,21,-1
 281 21 l 1,22,23
 320 24 320 24 354 46 c 128,-1,24
 388 68 388 68 402 99 c 1,0,-1
221 431 m 1,25,26
 142 393 142 393 142 233.5 c 128,-1,27
 142 74 142 74 221 33 c 1,28,-1
 221 431 l 1,25,26
281 371 m 1,29,30
 290.166666667 382 290.166666667 382 300.583333333 382 c 128,-1,31
 311 382 311 382 311 374 c 0,32,33
 311 369 311 369 306.5 366 c 0,34,35
 282 349.666666667 282 349.666666667 282 325.833333333 c 128,-1,36
 282 302 282 302 301.5 287 c 128,-1,37
 321 272 321 272 344 272 c 128,-1,38
 367 272 367 272 388.5 289.5 c 128,-1,39
 410 307 410 307 410 345 c 128,-1,40
 410 383 410 383 372 413 c 128,-1,41
 334 443 334 443 281 444 c 1,42,-1
 281 371 l 1,29,30
EndSplineSet
EndChar

StartChar: oe
Encoding: 339 339 138
Width: 697
Flags: HMW
HStem: -3 23 -3 155 0 21G<455.5 543.5> 168 22<434 469.5 430 495> 338 21<427 461.5> 453 20<220 270 451.5 482>
VStem: 35 100<180.5 301.5> 253 100<190.5 219 149.5 265> 253 120<238 265> 557 100<277.5 368>
LayerCount: 2
Fore
SplineSet
255 473 m 0,0,1
 316 473 316 473 363 444 c 1,2,3
 410 473 410 473 464 473 c 0,4,5
 511.666666667 473 511.666666667 473 572.5 450.5 c 0,6,7
 609 437 609 437 633 403 c 128,-1,8
 657 369 657 369 657 325.5 c 128,-1,9
 657 282 657 282 642.5 253.5 c 128,-1,10
 628 225 628 225 607 209.5 c 128,-1,11
 586 194 586 194 558 184 c 0,12,13
 513.2 168 513.2 168 467 168 c 0,14,15
 365 168 365 168 354 243 c 1,16,17
 353 233 353 233 353 214 c 0,18,19
 353 118 353 118 383 69 c 128,-1,20
 413 20 413 20 469 20 c 0,21,22
 498 20 498 20 517 32.5 c 128,-1,23
 536 45 536 45 544 64 c 128,-1,24
 552 83 552 83 555 100.5 c 0,25,26
 559 123.833333333 559 123.833333333 559 152 c 1,27,-1
 658 152 l 1,28,29
 658 0 658 0 478 0 c 0,30,31
 412 0 412 0 367 20 c 1,32,33
 328 -3 328 -3 258 -3 c 0,34,35
 141 -3 141 -3 88 65 c 128,-1,36
 35 133 35 133 35 237 c 128,-1,37
 35 341 35 341 90 407 c 128,-1,38
 145 473 145 473 255 473 c 0,0,1
262 17 m 0,39,40
 300 17 300 17 320 48 c 1,41,42
 253 104 253 104 253 223.5 c 128,-1,43
 253 343 253 343 323 413 c 1,44,45
 294 453 294 453 256 453 c 0,46,47
 202 453 202 453 168.5 393.5 c 128,-1,48
 135 334 135 334 135 239.5 c 128,-1,49
 135 145 135 145 168 81 c 128,-1,50
 201 17 201 17 262 17 c 0,39,40
393 341 m 128,-1,52
 417 359 417 359 443.5 359 c 128,-1,53
 470 359 470 359 470 346 c 1,54,55
 469 338 469 338 458 338 c 0,56,57
 373 332 373 332 373 265 c 0,58,59
 373 227 373 227 395 208.5 c 128,-1,60
 417 190 417 190 453 190 c 128,-1,61
 489 190 489 190 523 224 c 128,-1,62
 557 258 557 258 557 323 c 0,63,64
 557 453 557 453 480 453 c 0,65,66
 437 453 437 453 404 411 c 128,-1,67
 371 369 371 369 359 294 c 1,68,51
 369 323 369 323 393 341 c 128,-1,52
EndSplineSet
EndChar

StartChar: Ydieresis
Encoding: 376 376 139
Width: 661
Flags: HMW
HStem: -10 21<321 385.5 308.5 426> 230 20<321 371.5> 487 20<373.5 394> 511 20<47.5 75> 676 21<416 483.5> 686 20G<76.5 135.5> 779 106<187.5 217 406.5 436>
VStem: -6 20<588.5 615.5 588.5 631.5> 149 107<817.5 846.5> 174 22 174 95 319 20<554 599 554 611> 368 107<817.5 846.5> 478 103<171 173 173 280 280 280> 554 27<460.5 472>
LayerCount: 2
Fore
SplineSet
346 230 m 0,0,1
 247.954545455 230 247.954545455 230 206 301 c 0,2,3
 183.459227468 339.145922747 183.459227468 339.145922747 179.229613734 371.572961373 c 0,4,5
 174 411.666666667 174 411.666666667 174 446.333333333 c 128,-1,6
 174 481 174 481 173.5 503.5 c 128,-1,7
 173 526 173 526 170.5 559.5 c 128,-1,8
 168 593 168 593 162.5 610.5 c 128,-1,9
 157 628 157 628 147.5 646.5 c 0,10,11
 130.297297297 680 130.297297297 680 90.1486486486 680 c 128,-1,12
 50 680 50 680 32 654.5 c 128,-1,13
 14 629 14 629 14 602 c 128,-1,14
 14 575 14 575 27 553 c 128,-1,15
 40 531 40 531 72 531 c 0,16,17
 87 531 87 531 100 538 c 128,-1,18
 113 545 113 545 114 545 c 0,19,20
 121 545 121 545 121 534 c 128,-1,21
 121 523 121 523 102.5 517 c 128,-1,22
 84 511 84 511 67 511 c 0,23,24
 35 511 35 511 14.5 536.5 c 128,-1,25
 -6 562 -6 562 -6 594 c 0,26,27
 -6 647 -6 647 26.5 676.5 c 128,-1,28
 59 706 59 706 105.5 706 c 128,-1,29
 152 706 152 706 195.5 672.5 c 128,-1,30
 239 639 239 639 252 588 c 0,31,32
 269 524.857142857 269 524.857142857 269 378 c 1,33,34
 271 308 271 308 288.5 279 c 128,-1,35
 306 250 306 250 353 250 c 0,36,37
 442 250 442 250 498 334.5 c 128,-1,38
 554 419 554 419 554 533 c 0,39,40
 554 595 554 595 526.5 635.5 c 128,-1,41
 499 676 499 676 449.5 676 c 128,-1,42
 400 676 400 676 369.5 645.5 c 128,-1,43
 339 615 339 615 339 568 c 0,44,45
 339 545 339 545 353 526 c 128,-1,46
 367 507 367 507 390 507 c 0,47,48
 399 507 399 507 412.5 511 c 128,-1,49
 426 515 426 515 428 515 c 0,50,51
 436 515 436 515 436 506 c 0,52,53
 436 489 436 489 404.5 487.5 c 2,54,-1
 394 487 l 1,55,56
 358 487 358 487 338.5 512 c 128,-1,57
 319 537 319 537 319 574 c 0,58,59
 319 629 319 629 354.5 663 c 128,-1,60
 390 697 390 697 443 697 c 0,61,62
 520 697 520 697 550.5 637 c 128,-1,63
 581 577 581 577 581 472 c 2,64,-1
 581 173 l 2,65,66
 581 91 581 91 519 40.5 c 128,-1,67
 457 -10 457 -10 374.5 -10 c 128,-1,68
 292 -10 292 -10 234 35 c 128,-1,69
 176 80 176 80 176 150 c 0,70,71
 176 174 176 174 183 190 c 128,-1,72
 190 206 190 206 200 206 c 0,73,74
 208 206 208 206 208 198 c 128,-1,75
 208 190 208 190 202 174.5 c 128,-1,76
 196 159 196 159 196 145 c 0,77,78
 196 91 196 91 242.5 51 c 128,-1,79
 289 11 289 11 346 11 c 128,-1,80
 403 11 403 11 440.5 60.5 c 128,-1,81
 478 110 478 110 478 171 c 2,82,-1
 478 280 l 1,83,84
 413 230 413 230 346 230 c 0,0,1
149 832 m 128,-1,86
 149 854 149 854 164.5 869.5 c 128,-1,87
 180 885 180 885 202 885 c 128,-1,88
 224 885 224 885 240 869.5 c 128,-1,89
 256 854 256 854 256 832 c 128,-1,90
 256 810 256 810 240 794.5 c 128,-1,91
 224 779 224 779 202 779 c 128,-1,92
 180 779 180 779 164.5 794.5 c 128,-1,85
 149 810 149 810 149 832 c 128,-1,86
368 832 m 128,-1,94
 368 854 368 854 383.5 869.5 c 128,-1,95
 399 885 399 885 421 885 c 128,-1,96
 443 885 443 885 459 869.5 c 128,-1,97
 475 854 475 854 475 832 c 128,-1,98
 475 810 475 810 459 794.5 c 128,-1,99
 443 779 443 779 421 779 c 128,-1,100
 399 779 399 779 383.5 794.5 c 128,-1,93
 368 810 368 810 368 832 c 128,-1,94
EndSplineSet
EndChar

StartChar: yen
Encoding: 165 165 140
Width: 772
Flags: HMW
HStem: 2 21G<376 475 376 376> 84 60<220 376 220 376 475 632> 200 60<222 376 222 376 475 634> 200 101<222 478 475 475 475 478 384.5 634> 433 20<85.5 110.5> 447 20G<148.5 154> 523 20<659.5 684 647 689> 640 56<179.5 204> 674 22<607 659>
VStem: 32 20<510 544.5 510 563> 252 95 376 99<2 84 2 84 144 200 260 282 282 282> 546 22<462 485.5 431.5 585.5> 718 20<598.5 629.5>
LayerCount: 2
Fore
SplineSet
567 556 m 2,0,-1
 568 471 l 2,1,2
 568 425 568 425 562.5 393 c 128,-1,3
 557 361 557 361 535.5 330.5 c 128,-1,4
 514 300 514 300 475 288 c 1,5,-1
 475 260 l 1,6,-1
 634 260 l 1,7,-1
 634 200 l 1,8,-1
 475 200 l 1,9,-1
 475 144 l 1,10,-1
 632 144 l 1,11,-1
 632 84 l 1,12,-1
 475 84 l 1,13,-1
 475 2 l 1,14,-1
 376 2 l 1,15,-1
 376 84 l 1,16,-1
 220 84 l 1,17,-1
 220 144 l 1,18,-1
 376 144 l 1,19,-1
 376 200 l 1,20,-1
 222 200 l 1,21,-1
 222 260 l 1,22,-1
 376 260 l 1,23,-1
 376 282 l 1,24,25
 292.986427533 292.123606398 292.986427533 292.123606398 270 347.5 c 0,26,27
 254.042253521 385.943661972 254.042253521 385.943661972 252.521126761 430.471830986 c 128,-1,28
 251 475 251 475 248.5 499.5 c 128,-1,29
 246 524 246 524 238 562 c 0,30,31
 221.578947368 640 221.578947368 640 162 640 c 0,32,33
 119 640 119 640 85.5 600 c 128,-1,34
 52 560 52 560 52 520 c 0,35,36
 52 497 52 497 65 475 c 128,-1,37
 78 453 78 453 110 453 c 0,38,39
 125 453 125 453 138 460 c 128,-1,40
 151 467 151 467 152 467 c 0,41,42
 159 467 159 467 159 455.5 c 128,-1,43
 159 444 159 444 139.5 438.5 c 128,-1,44
 120 433 120 433 103 433 c 0,45,46
 72 433 72 433 52 460.5 c 128,-1,47
 32 488 32 488 32 522 c 0,48,49
 32 583 32 583 94.5 639.5 c 128,-1,50
 157 696 157 696 224 696 c 0,51,52
 260.8 696 260.8 696 276.9 682 c 128,-1,53
 293 668 293 668 302 658 c 128,-1,54
 311 648 311 648 317 629.5 c 128,-1,55
 323 611 323 611 328 597 c 128,-1,56
 333 583 333 583 336 558.5 c 128,-1,57
 339 534 339 534 341 518 c 128,-1,58
 343 502 343 502 344.5 472.5 c 128,-1,59
 346 443 346 443 346 426.5 c 128,-1,60
 346 410 346 410 346.5 383.5 c 128,-1,61
 347 357 347 357 349 347 c 128,-1,62
 351 337 351 337 357.5 324 c 0,63,64
 369 301 369 301 412 301 c 128,-1,65
 455 301 455 301 478 311 c 128,-1,66
 501 321 501 321 514.5 338 c 128,-1,67
 528 355 528 355 535 388 c 0,68,69
 546 439.857142857 546 439.857142857 546 509.428571429 c 128,-1,70
 546 579 546 579 549.5 603.5 c 128,-1,71
 553 628 553 628 561.5 650.5 c 0,72,73
 578.688888889 696 578.688888889 696 635 696 c 0,74,75
 677 696 677 696 707.5 674.5 c 128,-1,76
 738 653 738 653 738 615.5 c 128,-1,77
 738 578 738 578 718 550.5 c 128,-1,78
 698 523 698 523 667 523 c 0,79,80
 650 523 650 523 630.5 528.5 c 128,-1,81
 611 534 611 534 611 545.5 c 128,-1,82
 611 557 611 557 618 557 c 0,83,84
 619 557 619 557 632 550 c 128,-1,85
 645 543 645 543 660 543 c 0,86,87
 692 543 692 543 705 564.5 c 128,-1,88
 718 586 718 586 718 612.5 c 128,-1,89
 718 639 718 639 694.5 656.5 c 128,-1,90
 671 674 671 674 633 674 c 128,-1,91
 595 674 595 674 581 644 c 128,-1,92
 567 614 567 614 567 556 c 2,0,-1
EndSplineSet
EndChar

StartChar: Agrave
Encoding: 192 192 141
Width: 762
Flags: HMW
HStem: -11 49 -8 21G<628.5 662> 681 20G<408.5 414> 927 20G<279 379 379 379>
VStem: -40 20<101 157.5 98.5 168>
LayerCount: 2
Fore
SplineSet
205 115 m 2,0,-1
 391 657 l 2,1,2
 407 701 407 701 411 701 c 0,3,4
 419 701 419 701 439 646 c 2,5,-1
 656 70 l 2,6,7
 667 38 667 38 706 38 c 0,8,9
 728.615384615 38 728.615384615 38 740 56.5 c 0,10,11
 744 63 744 63 748 70.5 c 128,-1,12
 752 78 752 78 754 78 c 0,13,14
 763 78 763 78 763 66 c 128,-1,15
 763 54 763 54 732 23 c 128,-1,16
 701 -8 701 -8 646 -8 c 0,17,18
 577 -8 577 -8 554 53 c 2,19,-1
 493 216 l 1,20,-1
 260 216 l 1,21,-1
 219 97 l 2,22,23
 198 36 198 36 167.5 12.5 c 128,-1,24
 137 -11 137 -11 92 -11 c 0,25,26
 32 -11 32 -11 -4 34 c 128,-1,27
 -40 79 -40 79 -40 131.5 c 128,-1,28
 -40 184 -40 184 -13.5 216 c 128,-1,29
 13 248 13 248 55 248 c 0,30,31
 75 248 75 248 97 236 c 0,32,33
 130 218 130 218 130 198 c 0,34,35
 130 190 130 190 125.5 190 c 128,-1,36
 121 190 121 190 111 200 c 0,37,38
 82 229 82 229 50 229 c 128,-1,39
 18 229 18 229 -1 201 c 128,-1,40
 -20 173 -20 173 -20 127.5 c 128,-1,41
 -20 82 -20 82 14 45 c 128,-1,42
 48 8 48 8 91 8 c 128,-1,43
 134 8 134 8 158.5 30.5 c 128,-1,44
 183 53 183 53 205 115 c 2,0,-1
372 542 m 1,45,-1
 266 235 l 1,46,-1
 486 235 l 1,47,-1
 372 542 l 1,45,-1
393 827 m 1,48,-1
 279 947 l 1,49,-1
 379 947 l 1,50,-1
 442 827 l 1,51,-1
 393 827 l 1,48,-1
EndSplineSet
EndChar

StartChar: Aacute
Encoding: 193 193 142
Width: 762
Flags: HMW
HStem: -11 49 -8 21G<628.5 662> 681 20G<408.5 414> 927 20G<432 532 532 532>
VStem: -40 20<101 157.5 98.5 168>
LayerCount: 2
Fore
SplineSet
205 115 m 2,0,-1
 391 657 l 2,1,2
 407 701 407 701 411 701 c 0,3,4
 419 701 419 701 439 646 c 2,5,-1
 656 70 l 2,6,7
 667 38 667 38 706 38 c 0,8,9
 728.615384615 38 728.615384615 38 740 56.5 c 0,10,11
 744 63 744 63 748 70.5 c 128,-1,12
 752 78 752 78 754 78 c 0,13,14
 763 78 763 78 763 66 c 128,-1,15
 763 54 763 54 732 23 c 128,-1,16
 701 -8 701 -8 646 -8 c 0,17,18
 577 -8 577 -8 554 53 c 2,19,-1
 493 216 l 1,20,-1
 260 216 l 1,21,-1
 219 97 l 2,22,23
 198 36 198 36 167.5 12.5 c 128,-1,24
 137 -11 137 -11 92 -11 c 0,25,26
 32 -11 32 -11 -4 34 c 128,-1,27
 -40 79 -40 79 -40 131.5 c 128,-1,28
 -40 184 -40 184 -13.5 216 c 128,-1,29
 13 248 13 248 55 248 c 0,30,31
 75 248 75 248 97 236 c 0,32,33
 130 218 130 218 130 198 c 0,34,35
 130 190 130 190 125.5 190 c 128,-1,36
 121 190 121 190 111 200 c 0,37,38
 82 229 82 229 50 229 c 128,-1,39
 18 229 18 229 -1 201 c 128,-1,40
 -20 173 -20 173 -20 127.5 c 128,-1,41
 -20 82 -20 82 14 45 c 128,-1,42
 48 8 48 8 91 8 c 128,-1,43
 134 8 134 8 158.5 30.5 c 128,-1,44
 183 53 183 53 205 115 c 2,0,-1
372 542 m 1,45,-1
 266 235 l 1,46,-1
 486 235 l 1,47,-1
 372 542 l 1,45,-1
532 947 m 1,48,-1
 418 827 l 1,49,-1
 369 827 l 1,50,-1
 432 947 l 1,51,-1
 532 947 l 1,48,-1
EndSplineSet
EndChar

StartChar: Acircumflex
Encoding: 194 194 143
Width: 762
Flags: HMW
HStem: -11 49 -8 21G<628.5 662> 8 221<28 119> 681 20G<408.5 414> 907 20G<409 409>
VStem: -40 20<101 157.5 98.5 168>
LayerCount: 2
Fore
SplineSet
205 115 m 2,0,-1
 391 657 l 2,1,2
 407 701 407 701 411 701 c 0,3,4
 419 701 419 701 439 646 c 2,5,-1
 656 70 l 2,6,7
 667 38 667 38 706 38 c 0,8,9
 728.615384615 38 728.615384615 38 740 56.5 c 0,10,11
 744 63 744 63 748 70.5 c 128,-1,12
 752 78 752 78 754 78 c 0,13,14
 763 78 763 78 763 66 c 128,-1,15
 763 54 763 54 732 23 c 128,-1,16
 701 -8 701 -8 646 -8 c 0,17,18
 577 -8 577 -8 554 53 c 2,19,-1
 493 216 l 1,20,-1
 260 216 l 1,21,-1
 219 97 l 2,22,23
 198 36 198 36 167.5 12.5 c 128,-1,24
 137 -11 137 -11 92 -11 c 0,25,26
 32 -11 32 -11 -4 34 c 128,-1,27
 -40 79 -40 79 -40 131.5 c 128,-1,28
 -40 184 -40 184 -13.5 216 c 128,-1,29
 13 248 13 248 55 248 c 0,30,31
 75 248 75 248 97 236 c 0,32,33
 130 218 130 218 130 198 c 0,34,35
 130 190 130 190 125.5 190 c 128,-1,36
 121 190 121 190 111 200 c 0,37,38
 82 229 82 229 50 229 c 128,-1,39
 18 229 18 229 -1 201 c 128,-1,40
 -20 173 -20 173 -20 127.5 c 128,-1,41
 -20 82 -20 82 14 45 c 128,-1,42
 48 8 48 8 91 8 c 128,-1,43
 134 8 134 8 158.5 30.5 c 128,-1,44
 183 53 183 53 205 115 c 2,0,-1
372 542 m 1,45,-1
 266 235 l 1,46,-1
 486 235 l 1,47,-1
 372 542 l 1,45,-1
409 927 m 1,48,-1
 576 753 l 1,49,-1
 521 753 l 1,50,-1
 409 867 l 1,51,-1
 305 754 l 1,52,-1
 250 754 l 1,53,-1
 409 927 l 1,48,-1
EndSplineSet
EndChar

StartChar: Atilde
Encoding: 195 195 144
Width: 762
Flags: HMW
HStem: -11 49 -8 21G<628.5 662> 681 20G<408.5 414> 754 20G<286 306 286 307.5> 754 38<486 521.5 486 526> 887 20G<517 537>
VStem: -40 20<101 157.5 98.5 168> 240 20<804.5 830> 563 20<831 856.5>
LayerCount: 2
Fore
SplineSet
205 115 m 2,0,-1
 391 657 l 2,1,2
 407 701 407 701 411 701 c 0,3,4
 419 701 419 701 439 646 c 2,5,-1
 656 70 l 2,6,7
 667 38 667 38 706 38 c 0,8,9
 728.615384615 38 728.615384615 38 740 56.5 c 0,10,11
 744 63 744 63 748 70.5 c 128,-1,12
 752 78 752 78 754 78 c 0,13,14
 763 78 763 78 763 66 c 128,-1,15
 763 54 763 54 732 23 c 128,-1,16
 701 -8 701 -8 646 -8 c 0,17,18
 577 -8 577 -8 554 53 c 2,19,-1
 493 216 l 1,20,-1
 260 216 l 1,21,-1
 219 97 l 2,22,23
 198 36 198 36 167.5 12.5 c 128,-1,24
 137 -11 137 -11 92 -11 c 0,25,26
 32 -11 32 -11 -4 34 c 128,-1,27
 -40 79 -40 79 -40 131.5 c 128,-1,28
 -40 184 -40 184 -13.5 216 c 128,-1,29
 13 248 13 248 55 248 c 0,30,31
 75 248 75 248 97 236 c 0,32,33
 130 218 130 218 130 198 c 0,34,35
 130 190 130 190 125.5 190 c 128,-1,36
 121 190 121 190 111 200 c 0,37,38
 82 229 82 229 50 229 c 128,-1,39
 18 229 18 229 -1 201 c 128,-1,40
 -20 173 -20 173 -20 127.5 c 128,-1,41
 -20 82 -20 82 14 45 c 128,-1,42
 48 8 48 8 91 8 c 128,-1,43
 134 8 134 8 158.5 30.5 c 128,-1,44
 183 53 183 53 205 115 c 2,0,-1
372 542 m 1,45,-1
 266 235 l 1,46,-1
 486 235 l 1,47,-1
 372 542 l 1,45,-1
414 854 m 0,48,49
 433 832 433 832 442.5 822 c 128,-1,50
 452 812 452 812 469.5 802 c 128,-1,51
 487 792 487 792 508.5 792 c 128,-1,52
 530 792 530 792 546.5 807.5 c 128,-1,53
 563 823 563 823 563 843 c 128,-1,54
 563 863 563 863 552.5 875 c 128,-1,55
 542 887 542 887 520.5 887 c 128,-1,56
 499 887 499 887 492 862 c 0,57,58
 490 856 490 856 488 856 c 0,59,60
 481 856 481 856 481 871 c 128,-1,61
 481 886 481 886 495.5 896.5 c 128,-1,62
 510 907 510 907 529 907 c 128,-1,63
 548 907 548 907 565.5 889 c 128,-1,64
 583 871 583 871 583 841 c 128,-1,65
 583 811 583 811 560 782.5 c 128,-1,66
 537 754 537 754 495 754 c 128,-1,67
 453 754 453 754 412 803 c 0,68,69
 392 827 392 827 381.5 838 c 0,70,71
 351.909090909 869 351.909090909 869 322.454545455 869 c 128,-1,72
 293 869 293 869 276.5 853.5 c 128,-1,73
 260 838 260 838 260 818 c 128,-1,74
 260 798 260 798 270.5 786 c 128,-1,75
 281 774 281 774 302.5 774 c 128,-1,76
 324 774 324 774 331 799 c 0,77,78
 333 805 333 805 335 805 c 0,79,80
 342 805 342 805 342 790 c 128,-1,81
 342 775 342 775 327.5 764.5 c 128,-1,82
 313 754 313 754 294 754 c 128,-1,83
 275 754 275 754 257.5 772 c 128,-1,84
 240 790 240 790 240 820 c 128,-1,85
 240 850 240 850 263 878.5 c 128,-1,86
 286 907 286 907 327.5 907 c 128,-1,87
 369 907 369 907 414 854 c 0,48,49
EndSplineSet
EndChar

StartChar: Adieresis
Encoding: 196 196 145
Width: 762
Flags: HMW
HStem: -11 49 -8 21G<628.5 662> 681 20G<408.5 414> 779 106<287.5 317 506.5 536>
VStem: -40 20<101 157.5 98.5 168> 249 107<817.5 846.5> 468 107<817.5 846.5>
LayerCount: 2
Fore
SplineSet
205 115 m 2,0,-1
 391 657 l 2,1,2
 407 701 407 701 411 701 c 0,3,4
 419 701 419 701 439 646 c 2,5,-1
 656 70 l 2,6,7
 667 38 667 38 706 38 c 0,8,9
 728.615384615 38 728.615384615 38 740 56.5 c 0,10,11
 744 63 744 63 748 70.5 c 128,-1,12
 752 78 752 78 754 78 c 0,13,14
 763 78 763 78 763 66 c 128,-1,15
 763 54 763 54 732 23 c 128,-1,16
 701 -8 701 -8 646 -8 c 0,17,18
 577 -8 577 -8 554 53 c 2,19,-1
 493 216 l 1,20,-1
 260 216 l 1,21,-1
 219 97 l 2,22,23
 198 36 198 36 167.5 12.5 c 128,-1,24
 137 -11 137 -11 92 -11 c 0,25,26
 32 -11 32 -11 -4 34 c 128,-1,27
 -40 79 -40 79 -40 131.5 c 128,-1,28
 -40 184 -40 184 -13.5 216 c 128,-1,29
 13 248 13 248 55 248 c 0,30,31
 75 248 75 248 97 236 c 0,32,33
 130 218 130 218 130 198 c 0,34,35
 130 190 130 190 125.5 190 c 128,-1,36
 121 190 121 190 111 200 c 0,37,38
 82 229 82 229 50 229 c 128,-1,39
 18 229 18 229 -1 201 c 128,-1,40
 -20 173 -20 173 -20 127.5 c 128,-1,41
 -20 82 -20 82 14 45 c 128,-1,42
 48 8 48 8 91 8 c 128,-1,43
 134 8 134 8 158.5 30.5 c 128,-1,44
 183 53 183 53 205 115 c 2,0,-1
372 542 m 1,45,-1
 266 235 l 1,46,-1
 486 235 l 1,47,-1
 372 542 l 1,45,-1
249 832 m 128,-1,49
 249 854 249 854 264.5 869.5 c 128,-1,50
 280 885 280 885 302 885 c 128,-1,51
 324 885 324 885 340 869.5 c 128,-1,52
 356 854 356 854 356 832 c 128,-1,53
 356 810 356 810 340 794.5 c 128,-1,54
 324 779 324 779 302 779 c 128,-1,55
 280 779 280 779 264.5 794.5 c 128,-1,48
 249 810 249 810 249 832 c 128,-1,49
468 832 m 128,-1,57
 468 854 468 854 483.5 869.5 c 128,-1,58
 499 885 499 885 521 885 c 128,-1,59
 543 885 543 885 559 869.5 c 128,-1,60
 575 854 575 854 575 832 c 128,-1,61
 575 810 575 810 559 794.5 c 128,-1,62
 543 779 543 779 521 779 c 128,-1,63
 499 779 499 779 483.5 794.5 c 128,-1,56
 468 810 468 810 468 832 c 128,-1,57
EndSplineSet
EndChar

StartChar: AE
Encoding: 198 198 146
Width: 835
Flags: HMW
HStem: -5 26<111 172.5 111 173> 0 21G 216 25<350 505 350 505 341 505> 233 21<79 116.5> 355 25<593 755 593 755> 671 25<508 508 593 805 593 593>
VStem: 12 23<107.5 156.5 107 175> 505 88<25 216 216 216 241 318.5>
LayerCount: 2
Fore
SplineSet
276 121 m 2,0,-1
 492 696 l 1,1,-1
 805 696 l 1,2,-1
 805 671 l 1,3,-1
 593 671 l 1,4,-1
 593 380 l 1,5,-1
 755 380 l 1,6,-1
 755 355 l 1,7,-1
 593 355 l 1,8,-1
 593 25 l 1,9,-1
 805 25 l 1,10,-1
 805 0 l 1,11,-1
 505 0 l 1,12,-1
 505 216 l 1,13,-1
 341 216 l 1,14,-1
 298 103 l 2,15,16
 278 51 278 51 234.5 23 c 128,-1,17
 191 -5 191 -5 137.5 -5 c 0,18,19
 84 -5 84 -5 48 40 c 128,-1,20
 12 85 12 85 12 138 c 0,21,22
 12 191 12 191 38.5 222.5 c 128,-1,23
 65 254 65 254 107 254 c 0,24,25
 131 254 131 254 151 242.5 c 128,-1,26
 171 231 171 231 180 213 c 0,27,28
 182 209 182 209 182 206 c 0,29,30
 182 203 182 203 178.5 199 c 128,-1,31
 175 195 175 195 171 195 c 1,32,-1
 163 203 l 2,33,34
 133 233 133 233 101 233 c 0,35,36
 69 233 69 233 52 203 c 128,-1,37
 35 173 35 173 35 131.5 c 0,38,39
 35 90 35 90 65.5 55.5 c 128,-1,40
 96 21 96 21 141.5 21 c 0,41,42
 187 21 187 21 223 49 c 128,-1,43
 259 77 259 77 276 121 c 2,0,-1
508 671 m 1,44,-1
 350 241 l 1,45,-1
 505 241 l 1,46,47
 505 319 505 319 506.5 457 c 128,-1,48
 508 595 508 595 508 671 c 1,44,-1
EndSplineSet
EndChar

StartChar: Egrave
Encoding: 200 200 147
Width: 566
Flags: HMW
HStem: -10 21G<246.5 369.5> 282 136<369.5 376 362.5 420.5> 388 30<362.5 369> 388 164<353 432.5> 534 172<280.5 439> 686 20<295.5 347 280.5 374.5> 927 20G<196 296 296 296>
VStem: 44 100<132.5 245> 91 53 91 99<513.5 589 513.5 591> 348 141<577.5 591.5> 469 20<584 627> 517 20<102 198>
LayerCount: 2
Fore
SplineSet
317 414 m 1,0,-1
 370 418 l 1,1,2
 391 418 391 418 391 405 c 0,3,4
 391 388 391 388 366.5 388 c 128,-1,5
 342 388 342 388 318 394 c 1,6,7
 246 372 246 372 195 321.5 c 128,-1,8
 144 271 144 271 144 189 c 128,-1,9
 144 107 144 107 199 58 c 128,-1,10
 254 9 254 9 327 9 c 0,11,12
 391.393939394 9 391.393939394 9 449.5 41.5 c 0,13,14
 479 58 479 58 498 88 c 128,-1,15
 517 118 517 118 517 157 c 0,16,17
 517 215 517 215 478.5 248.5 c 128,-1,18
 440 282 440 282 397.5 282 c 0,19,20
 305 282 305 282 305 219 c 0,21,22
 305 199 305 199 317.5 188.5 c 128,-1,23
 330 178 330 178 330 176 c 0,24,25
 330 170 330 170 317.5 170 c 128,-1,26
 305 170 305 170 295.5 186 c 128,-1,27
 286 202 286 202 286 225.5 c 128,-1,28
 286 249 286 249 313 274.5 c 128,-1,29
 340 300 340 300 391.5 300 c 128,-1,30
 443 300 443 300 490 263.5 c 128,-1,31
 537 227 537 227 537 152 c 128,-1,32
 537 77 537 77 471.5 33.5 c 128,-1,33
 406 -10 406 -10 310 -10 c 0,34,35
 244 -10 244 -10 184.5 12 c 128,-1,36
 125 34 125 34 84.5 80.5 c 128,-1,37
 44 127 44 127 44 188 c 0,38,39
 44 266 44 266 102 316 c 128,-1,40
 160 366 160 366 256 400 c 1,41,42
 188 405 188 405 139.5 443.5 c 128,-1,43
 91 482 91 482 91 535 c 128,-1,44
 91 588 91 588 132 628 c 128,-1,45
 173 668 173 668 225.5 687 c 128,-1,46
 278 706 278 706 312 706 c 128,-1,47
 346 706 346 706 370 702 c 128,-1,48
 394 698 394 698 423 687.5 c 128,-1,49
 452 677 452 677 470.5 655 c 128,-1,50
 489 633 489 633 489 600.5 c 128,-1,51
 489 568 489 568 469.5 551 c 128,-1,52
 450 534 450 534 421 534 c 128,-1,53
 392 534 392 534 370 550.5 c 128,-1,54
 348 567 348 567 348 582 c 128,-1,55
 348 597 348 597 354 597 c 128,-1,56
 360 597 360 597 364.5 590 c 128,-1,57
 369 583 369 583 373 574.5 c 128,-1,58
 377 566 377 566 389 559 c 128,-1,59
 401 552 401 552 421 552 c 128,-1,60
 441 552 441 552 455 564.5 c 128,-1,61
 469 577 469 577 469 600 c 0,62,63
 469 639 469 639 431.5 662.5 c 128,-1,64
 394 686 394 686 334 686 c 128,-1,65
 274 686 274 686 232 647.5 c 128,-1,66
 190 609 190 609 190 554 c 128,-1,67
 190 499 190 499 225.5 464.5 c 128,-1,68
 261 430 261 430 317 414 c 1,0,-1
310 827 m 1,69,-1
 196 947 l 1,70,-1
 296 947 l 1,71,-1
 359 827 l 1,72,-1
 310 827 l 1,69,-1
EndSplineSet
EndChar

